<svg xmlns="http://www.w3.org/2000/svg" width="319" height="316" fill="none"><path fill="#EDA600" d="M211.664 248.702a73.35 73.35 0 0 1 10.9-14.76l-1.99-.15a588.27 588.27 0 0 0-5.47 25.26c-.15.77 1.18.64 1.55.45 9.69-5.14 19.48-10.31 30.19-12.97l-.63-1.21a106.837 106.837 0 0 0-26.76 18.54c-.38.36-.17.76.25.93 8.61 3.34 17.1 6.96 25.47 10.87l1.25-1.3c-7.05-.09-14.09-.17-21.14-.26-.47 0-1.96.44-1.4 1.17 4.39 5.73 8.22 11.86 11.43 18.33l1.73-.96c-6.72-2.18-11.21-8.45-18.13-10.25-.47-.12-1.74.07-1.74.78.01 4.12-.21 8.24-.65 12.33l2.1-.56c-2.5-2.94-5-5.87-7.5-8.81-.57-.67-2.65.15-2 .91 2.5 2.94 5 5.87 7.5 8.81.47.55 2.01.21 2.1-.56.45-4.1.66-8.21.65-12.33l-1.74.78c6.88 1.78 11.4 8.06 18.13 10.25.42.14 2.09-.23 1.73-.96-3.26-6.58-7.14-12.83-11.6-18.66l-1.4 1.17c7.05.09 14.09.17 21.14.26.41 0 2.3-.8 1.25-1.3-8.5-3.97-17.13-7.65-25.88-11.05l.25.93c7.66-7.27 16.4-13.33 25.89-17.95 1.15-.56.43-1.48-.63-1.21-10.9 2.72-20.89 7.94-30.75 13.17l1.55.45a588.27 588.27 0 0 1 5.47-25.26c.24-.99-1.67-.49-1.99-.15a74.879 74.879 0 0 0-11.19 15.11c-.56.99 1.64.9 2.05.16h.01Z"/><path fill="#06093F" fill-opacity=".2" d="M108.737 295.772a1 1 0 0 1 .973-.772h102.45c.48 0 .892.341.983.812l3.63 19a1 1 0 0 1-.982 1.188h-110.53a1 1 0 0 1-.973-1.228l4.449-19Z"/><path fill="#F7F8FF" d="M112 236.497 120.69 218h81.586L210 236.497V310h-98v-73.503Z"/><g clip-path="url(#a)"><path fill="#06093F" d="M119.859 218.918c20.981 2.112 41.938 1.189 62.967.51l18.118-.583c.679-.024 1.978-.242 2.329-.922.352-.68-.303-.886-.91-.874l-31.417 1.02c-10.472.339-20.859.691-31.295.315a266.58 266.58 0 0 1-17.608-1.213c-.801-.085-1.868.097-2.487.667-.474.449-.498.995.291 1.08h.012Z"/><path fill="#06093F" d="M200.519 218.796c.85 3.276 2.245 6.456 3.422 9.623 1.178 3.167 2.342 6.274 4.199 9.077.558.849 3.786-.534 3.519-.947-1.844-2.803-3.034-5.946-4.198-9.077-1.165-3.13-2.573-6.346-3.422-9.622-.195-.753-3.714.169-3.52.946ZM119.145 217.934c-3.604 5.704-5.582 12.293-7.851 18.603-.376 1.044 3.106.619 3.507-.485 2.208-6.128 4.101-12.584 7.608-18.13.413-.667-.376-.922-.934-.922-.704 0-1.905.267-2.33.934Z"/><path fill="#06093F" d="M112.834 237.266a1770.606 1770.606 0 0 0 74.848 1.638c7.062 0 14.112-.037 21.175-.109 2.063-.025 2.657-2.755.267-2.719a1737.915 1737.915 0 0 1-95.113-1.504c-.837-.037-1.941.218-2.281 1.104-.303.764.279 1.553 1.104 1.59Z"/><path fill="#06093F" d="M111.611 236.549a1234.368 1234.368 0 0 1-2.585 72.457c-.109 1.735 3.458 1.189 3.555-.304a1223.147 1223.147 0 0 0 2.585-72.456c0-1.76-3.543-1.177-3.555.303Z"/><path fill="#06093F" d="M109.984 310.353c25.617-.133 51.233-.412 76.85-.388 7.268 0 14.537.145 21.794.679.776.061 1.893-.109 2.487-.667.449-.425.534-.898-.255-.959-12.814-.934-25.689-.703-38.527-.631-12.924.073-25.848.134-38.771.207-7.366.036-14.744.072-22.11.121-.643 0-1.99.255-2.342.886-.364.655.316.752.874.752Z"/><path fill="#06093F" d="M207.329 237.739a769.489 769.489 0 0 0 1.165 72.154c.085 1.286 3.604.521 3.519-.947a765.683 765.683 0 0 1-1.153-71.595c.049-1.578-3.495-.922-3.531.388Z"/><path fill="#ED2579" d="M123.102 261.146c-.061 9.671 5.825 18.02 6.929 27.485.121.995 3.47.207 3.507-.728a64.991 64.991 0 0 1 6.71-26.029c.34-.692-1.201-.643-1.48-.607-.728.097-1.675.413-2.027 1.105a64.987 64.987 0 0 0-6.71 26.029l3.507-.728c-1.104-9.466-6.99-17.826-6.929-27.486 0-.898-3.507-.303-3.519.947l.012.012Z"/><path fill="#4751FD" d="M143.912 266.741c-.486 3.713-1.19 7.863-.28 11.552.401 1.602 1.226 3.483 2.743 4.308 1.662.91 3.762.643 5.473.024 6.929-2.488 7.244-12.996 2.791-17.838-1.359-1.468-3.192-2.039-5.145-1.711-1.748.291-3.968 1.189-4.466 3.094-.231.91 3.228.413 3.483-.57.06-.255.133-.485.279-.704.085-.121.267-.23.315-.352.049-.121-.194.037-.206.037.194.109.51.109.728.194 1.129.461 2.014 1.505 2.633 2.524a12.649 12.649 0 0 1 1.723 7.803 11.862 11.862 0 0 1-1.031 3.761c-.425.923-1.371 2.488-2.233 2.719.146-.037-.109 0-.145 0a2.13 2.13 0 0 1-.777-.17c-.631-.255-1.153-.789-1.517-1.359-.764-1.141-1.177-2.524-1.371-3.871-.486-3.277.036-6.747.473-10.012.134-1.019-3.361-.376-3.483.571h.013Z"/><path fill="#ED2579" d="M162.211 260.248h19.658c.777 0 1.845-.595 1.93-1.432.097-.923-.922-1.177-1.638-1.177h-19.659c-.776 0-1.844.594-1.929 1.432-.097.922.922 1.177 1.638 1.177Z"/><path fill="#ED2579" d="M170.195 259.024c.049 9.501.11 19.015.158 28.516 0 .595 3.519.085 3.519-.946-.048-9.502-.109-19.015-.158-28.517 0-.594-3.519-.085-3.519.947Z"/><path fill="#4751FD" d="M181.262 266.935h11.565c.752 0 1.844-.57 1.941-1.395.11-.91-.946-1.104-1.614-1.104H181.59c-.752 0-1.844.57-1.942 1.395-.109.91.947 1.104 1.614 1.104Z"/><path fill="#4751FD" d="M179.322 266.352c-.085 7.063-.182 14.125-.267 21.2 0 .534 3.507.073 3.519-.947.085-7.062.182-14.125.267-21.199 0-.534-3.507-.073-3.519.946Z"/><path fill="#4751FD" d="m180.691 288.79 10.787-.267c.765-.024 1.845-.57 1.942-1.408.097-.898-.947-1.14-1.614-1.128l-10.788.267c-.764.024-1.844.57-1.941 1.407-.097.898.946 1.141 1.614 1.129ZM181.458 277.238h9.829c.74 0 1.832-.303 2.342-.862.546-.606-.498-.667-.85-.667h-9.829c-.74 0-1.832.303-2.342.862-.546.606.498.667.85.667Z"/><path fill="#06093F" d="M145.672 224.173c9.817 0 19.634.157 29.451.497.801.024 1.845-.121 2.488-.667.461-.401.534-.91-.255-.935a895.534 895.534 0 0 0-30.215-.509c-.644 0-1.991.267-2.342.885-.377.656.315.741.873.741v-.012Z"/><path fill="#06093F" d="M144.712 223.419a29.79 29.79 0 0 1-1.541 3.41c-.146.279-.158.618.048.885.219.267.655.413.983.437.461.025.959-.048 1.383-.255.364-.182.728-.412.923-.776a28.808 28.808 0 0 0 1.541-3.41.573.573 0 0 0 .097-.461.556.556 0 0 0-.146-.425c-.218-.267-.655-.412-.983-.437-.461-.024-.958.049-1.383.255l-.388.219a1.624 1.624 0 0 0-.522.558h-.012Z"/><path fill="#06093F" d="M143.851 228.589c5.048-.11 10.096-.219 15.132-.158s10.072.643 15.084.425c.631-.025 1.893-.486 1.99-1.226.097-.825-.995-.837-1.541-.813-2.5.109-5.012-.182-7.499-.291a211.206 211.206 0 0 0-7.269-.182c-4.854-.037-9.708.06-14.55.17-.728.012-1.953.218-2.318.983-.327.703.28 1.116.971 1.104v-.012Z"/><path fill="#06093F" d="M176.07 227.715c.194-.304.425-.583.68-.838l-.231.231c.801-.813 1.784-1.493 2.378-2.5.134-.23.219-.449 0-.667-.218-.219-.667-.267-.934-.267-.461 0-.947.097-1.371.279l-.401.194c-.218.121-.4.267-.558.461-.194.34-.449.643-.728.922l.231-.23c-.777.801-1.724 1.456-2.33 2.415-.134.218-.219.449 0 .667.218.219.667.267.934.267.461 0 .947-.097 1.371-.279.328-.146.753-.328.947-.655h.012Z"/></g><path fill="#fff" d="M119.953 70.627a2 2 0 0 1 2.563-1.195l94.571 34.421a2.002 2.002 0 0 1 1.196 2.564l-40.282 110.672-.638 1.753-2.867 7.878a2 2 0 0 1-2.564 1.196l-24.931-9.074-2.5-.91-67.14-24.437a2 2 0 0 1-1.195-2.564l43.787-120.304Z"/><path fill="url(#b)" fill-opacity=".5" d="M119.953 70.627a2 2 0 0 1 2.563-1.195l94.571 34.421a2.002 2.002 0 0 1 1.196 2.564l-40.282 110.672-.638 1.753-2.867 7.878a2 2 0 0 1-2.564 1.196l-24.931-9.074-2.5-.91-67.14-24.437a2 2 0 0 1-1.195-2.564l43.787-120.304Z"/><path fill="#F7F8FF" d="m218.5 131.5-17.5-44 29.5 14-12 30Z"/><g clip-path="url(#c)"><path fill="#ED2579" d="M45.136 79.556c-3.744-1.074-6.482 1.957-8.575 4.583-2.535 3.198-4.712 6.647-6.9 10.097-4.067 6.396-8.372 13.139-14.878 17.34-1.662 1.074-3.504 2.005-5.43 2.495-1.71.429-4.77.871-5.656-1.158-1.519-3.473 3.84-6.122 5.908-7.865 5.501-4.63 10.046-10.228 14.148-16.1 8.634-12.364 15.51-27.055 27.984-36.15 4.664-3.389 10.07-5.286 14.889-8.365 2.595-1.66 4.628-3.89 6.1-6.588 2.271-4.165 3.06-8.999 3.348-13.677.49-7.948-.526-15.945-1.926-23.75-.167-.943-3.66-.143-3.468.931 1.304 7.28 2.272 14.692 2.01 22.103-.156 4.535-.802 9.19-2.644 13.378-1.16 2.614-2.846 4.977-5.19 6.648-1.961 1.408-4.233 2.387-6.398 3.449-2.858 1.408-5.633 2.924-8.264 4.726-12.868 8.82-19.984 23.272-28.546 35.84-4.174 6.122-8.754 12.09-14.399 16.935-2.284 1.957-6.255 3.842-7.08 6.969-1.004 3.772 2.775 4.786 5.753 4.655 8.574-.346 15.845-6.6 20.856-13.033 2.763-3.532 5.083-7.363 7.499-11.135 1.243-1.945 2.511-3.866 3.862-5.728a60.08 60.08 0 0 1 2.273-2.936c.334-.406.67-.823 1.04-1.217.24-.275.502-.537.777-.776.575-.37.61-.418.096-.167.777.227 1.746 0 2.44-.382.335-.191 1.172-.895.37-1.122Z"/><path fill="#ED2579" d="M41.93 80.582c.514 4.201-1.615 7.96-3.385 11.625-1.901 3.902-2.87 7.78-3.217 12.113-.347 4.332-.586 8.975-.741 13.462-.156 4.488-.263 8.903 1.028 13.152 1.052 3.449 3.097 6.791 6.195 8.748 2.655 1.671 6.65 1.217 7.725-2.1.479-1.456.335-3.056.312-4.559-.048-2.518-.12-5.037-.216-7.555-.167-4.63-.478-9.237-.681-13.868-.24-5.227.047-10.323 1.41-15.395 1.364-5.073 3.385-9.739 5.43-14.465.37-.871-3.002-.513-3.444.501-3.3 7.627-6.518 15.372-6.9 23.774-.192 4.081.131 8.163.358 12.233.227 4.069.407 8.509.514 12.77.048 1.933.288 4.01.013 5.931-.084.585-.204 1.265-.515 1.778l-.239.346c.215-.405.036-.644-.55-.704a11.874 11.874 0 0 1-1.088-.775c-2.763-2.196-4.413-5.478-5.215-8.856-.98-4.081-.837-8.33-.681-12.495.155-4.165.37-8.689.741-13.009s1.615-8.414 3.612-12.46c1.734-3.52 3.468-7.112 2.966-11.146-.12-.955-3.612-.215-3.468.93l.035.024Z"/><path fill="#ED2579" d="M52.477 81.942c-1.34 11.481.801 23.654 8.766 32.45 3.504 3.867 7.94 6.767 12.952 8.259 5.68 1.695 11.731 1.659 17.603 1.325 2.38-.132 4.724-.132 6.937-1.086 1.112-.478 3.815-1.695 2.906-3.306-.491-.883-3.767.382-3.468.931.705 1.253-1.017 1.515-1.758 1.969-.419.262.574-1.027.621-.203 0 0-.741.06-.8.06-.623.047-1.245.083-1.878.131-1.436.095-2.87.167-4.306.203-5.357.143-10.859-.275-15.834-2.399-8.79-3.76-14.793-12.126-17.209-21.16-1.578-5.896-1.77-12.066-1.064-18.105.06-.477-3.337-.143-3.468.931Z"/><path fill="#ED2579" d="M64.09 73.982c-.777 9.476-1.543 19.954 3.456 28.499 2.38 4.07 5.92 7.269 9.651 10.085 3.91 2.96 8.073 5.991 12.832 7.435 4.76 1.444 10.584.967 14.949-1.945.61-.406.359-.764-.239-.895-.753-.167-1.83.239-2.452.656-3.79 2.53-8.73 1.337-12.569-.465-4.042-1.91-7.785-4.738-11.23-7.555-3.443-2.816-6.35-5.86-8.287-9.75-1.937-3.89-2.738-8.02-3.05-12.233-.358-4.917 0-9.858.407-14.751.048-.62-3.372-.203-3.468.93v-.011Z"/><path fill="#4751FD" d="M82.17 75.343a42.587 42.587 0 0 1 12.497-3.45c.311-.035.969-.119 1.16-.405.192-.287-.155-.299-.406-.275a48.575 48.575 0 0 0-14.256 3.915c-.215.095-.514.286-.215.441.3.155.945-.107 1.208-.227h.012Z"/><path fill="#4751FD" d="M87.194 73.493c11.36 20.55 22.71 41.09 34.071 61.641.311.573 1.985 0 1.734-.465-11.361-20.551-22.71-41.09-34.071-61.642-.311-.573-1.986 0-1.734.466Z"/><path fill="#4751FD" d="M116.122 137.391c4.126.704 8.635-.907 11.314-4.13.263-.31-.227-.417-.443-.417-.382 0-.897.143-1.148.453-2.105 2.542-5.357 3.807-8.622 3.246-.383-.071-.921.072-1.22.323-.263.226-.215.453.143.513l-.024.012Z"/><path fill="#4751FD" d="M125.762 133.381a26.653 26.653 0 0 0 3.575 14.405c.311.525 1.985-.036 1.603-.693a25.877 25.877 0 0 1-3.444-13.903c.024-.764-1.711-.43-1.734.191Z"/><path fill="#4751FD" d="M115.539 138.632a22.834 22.834 0 0 0 5.525 3.389c2.14.919 4.437 1.349 6.637 2.089.562.191 2.021-.633 1.052-.955-2.092-.704-4.281-1.098-6.314-1.981a21.495 21.495 0 0 1-5.298-3.222c-.311-.251-.801-.179-1.148-.024-.179.071-.765.453-.454.716v-.012Z"/><path fill="#4751FD" d="m116.887 137.509-6.003-10.586c-.909-1.599-1.806-3.199-2.87-4.702-1.065-1.504-2.273-3.068-3.062-4.798-.371-.8-2.081-.31-1.734.465.765 1.695 1.83 3.175 2.906 4.679 1.076 1.503 2.045 3.15 2.978 4.797 2.069 3.64 4.138 7.292 6.207 10.932.406.716 2.045.048 1.578-.787ZM79.277 76.465c2.679 3.377 4.46 7.304 6.003 11.29 1.543 3.986 2.607 8.044 5.226 11.29.515.633 2.165-.06 1.579-.776-2.715-3.353-3.803-7.757-5.37-11.707-1.566-3.95-3.288-7.626-5.871-10.885-.515-.644-2.153.06-1.58.776l.013.012ZM95.78 71.702c5.178 10.228 9.555 20.826 14.637 31.101 5.083 10.276 10.285 20.265 15.439 30.397.335.657 1.986.036 1.591-.752-5.274-10.383-10.703-20.706-15.81-31.161-4.915-10.037-9.208-20.36-14.267-30.337-.335-.657-1.985-.036-1.59.752Z"/><path fill="#ED2579" d="M92.696 46.449c6.613 3.353 11.481 9.046 15.786 14.918s7.941 11.899 10.237 18.642c2.177 6.396 3.659 14.5.49 20.825-.215.442-.897 1.838-1.507 1.981-.574.144-1.339-.549-1.746-.907-1.291-1.145-2.045-2.745-2.75-4.284-1.615-3.557-2.93-7.232-4.198-10.908-2.368-6.875-4.616-13.856-8.287-20.181-3.146-5.419-7.618-11.314-13.837-13.331-5.597-1.815-11.995.644-13.645 6.54-1.65 5.895.67 12.889 3.169 18.379 3.54 7.781 8.514 14.942 13.179 22.079 2.14 3.27 4.245 6.313 7.366 8.736 2.548 1.981 6.889 5.525 4.521 9.213-.742 1.158 2.655.716 3.181-.095 1.674-2.602.658-5.621-1.339-7.746-1.16-1.229-2.56-2.172-3.875-3.234-1.46-1.181-2.703-2.518-3.827-4.034-2.38-3.21-4.449-6.671-6.601-10.037-2.153-3.365-4.102-6.409-5.98-9.703-3.444-6.027-6.817-13.02-6.853-20.11-.012-2.78.61-6.134 2.87-8.02 2.608-2.171 6.614-.119 8.958 1.517 5.728 3.998 9.52 10.526 12.282 16.78 3.169 7.16 5.19 14.75 8.132 21.995 1.124 2.769 2.296 6.432 4.915 8.187 2.332 1.563 5.669.859 7.63-1.015 2.38-2.267 3.146-6.062 3.361-9.19.251-3.532-.204-7.112-1.041-10.537-1.877-7.71-5.86-14.728-10.392-21.16-4.533-6.433-9.998-13.057-17.413-16.816-.849-.43-4.042.871-2.798 1.504l.012.012ZM22.127 115.413c-6.679 4.047-13.67 8.227-21.598 9.061-.71.074-1.345.676-1.803 1.183-.087.099-.99 1.366-.43 1.304 8.523-.896 15.994-5.319 23.198-9.685.499-.304 1.545-1.112 1.582-1.754.037-.642-.538-.349-.95-.109Z"/></g><path stroke="#4751FD" stroke-linecap="round" stroke-width="2" d="M138.793 33c0 2.607 1.113 5.256 1.113 7.792M144.359 44.133h6.68M131 44.133h3.34M139.906 46.357V57.49"/><path stroke="#ED2579" stroke-linecap="round" stroke-width="2" d="M310 197v4M314 205h4M303 206h2M311 210v6"/><path stroke="#EDA600" stroke-linecap="round" stroke-width="2" d="M17.602 208v3.2M20.8 214.4H24M12 215.199h1.6M18.398 218.4v4.8"/><path stroke="#F7F8FF" stroke-linecap="round" stroke-width="8" d="M131 150.235c3.859 3.999 6.719 8.706 9.644 13.43.394.636 5.372 8.603 5.726 8.328.817-.635.61-2.529.728-3.383.757-5.492 2.47-10.931 3.968-16.241C153.978 142.05 158.414 133.006 164 124"/><g fill="#4751FD" clip-path="url(#d)"><path d="M95.893 248.413c-9.972 4.726-17.084 13.863-27.22 18.274-.3.135-.898.526-.57.916 2.95 3.48 6.005 6.871 9.15 10.172.508.54 1.631.09 2.02-.39a298.727 298.727 0 0 0 19.465-27.306c.554-.886-1.632-.721-2.036-.075a295.854 295.854 0 0 1-19.465 27.306l2.022-.39a235.383 235.383 0 0 1-9.149-10.173l-.569.916c10.167-4.411 17.264-13.548 27.22-18.275 1.363-.645.12-1.44-.868-.96v-.015Z"/><path fill-opacity=".6" d="M99.339 238.706c-7.92.6-15.886-.87-23.073-4.216-.45-.21-2.037.045-2.111.661l-1.123 9.032c-.015.12.344.15.374.15 8.774.18 17.234-2.341 25.544-4.907.164-.06 1.108-.315 1.003-.63-.105-.315-.988-.105-1.168-.045-7.786 2.416-15.721 4.861-23.957 4.696l.375.15 1.123-9.032-2.111.661a48.452 48.452 0 0 0 24.18 4.351c.33-.03 1.303-.166 1.453-.526.15-.36-.135-.375-.51-.345Z"/><path fill-opacity=".3" d="M100.984 226.869a73.9 73.9 0 0 0-6.648-14.614c-.314-.525-1.347-.12-1.692.061a90.962 90.962 0 0 1-9.792 4.576c-.33.135-1.033.78-.404 1.08 2.515 1.17 4.552 3.015 6.633 4.801 2.186 1.875 4.477 3.541 7.082 4.786.479.225 1.123.12 1.542-.18.3-.195.644-.705.165-.945-2.665-1.276-4.971-2.986-7.202-4.906-2.036-1.756-4.073-3.541-6.528-4.681l-.404 1.08a94.564 94.564 0 0 0 10.286-4.831l-1.692.06a71.607 71.607 0 0 1 6.483 14.313c.27.84 2.441.24 2.171-.585v-.015Z"/></g><path fill="#4751FD" d="m204.583 77.166-6.011 8.502c-.351.495-.286 1.055.338 1.29 4.971 1.822 9.498 4.908 14.052 7.577 4.814 2.813 8.483 5.143 13.297 7.955 1.002.586 3.318-.781 2.03-1.523-4.97-2.916-8.808-5.325-13.791-8.242-4.554-2.669-9.082-5.729-14.065-7.552l.338 1.29 6.011-8.503c.963-1.367-1.509-1.784-2.212-.781l.013-.013ZM269.967 63.702a71.859 71.859 0 0 1-7.378-5.442c-.468-.391-1.236-.3-1.756-.052-.273.13-1.171.703-.69 1.106a75.513 75.513 0 0 0 7.742 5.703c.507.326 1.405.065 1.874-.234.416-.26.741-.755.221-1.08h-.013Z"/><path fill="#4751FD" d="M227.838 102.27a222.169 222.169 0 0 1 23.719-6.094c.377-.078 1.496-.312 1.509-.846.013-.534-.728-.547-1.119-.469a229.35 229.35 0 0 0-24.435 6.25c-.338.104-1.301.417-1.158.937.143.521 1.171.326 1.471.222h.013Z"/><path fill="#4751FD" d="M253.34 95.316a481.083 481.083 0 0 1 16.576-31.236c.287-.495-.923-.456-1.106-.43-.559.065-1.223.313-1.522.82a480.57 480.57 0 0 0-16.576 31.236c-.299.625 2.251.378 2.628-.39ZM199.288 86.71c2.277 7.982 6.31 15.261 9.68 22.812 1.652 3.724 3.032 7.513 4.216 11.406 1.249 4.089 2.446 8.177 4.293 12.044.326.677 2.876-.208 2.641-.703-1.808-3.776-2.992-7.773-4.215-11.757-1.223-3.985-2.602-7.878-4.307-11.68-3.357-7.551-7.403-14.817-9.68-22.811-.182-.638-2.824.078-2.641.703l.013-.013Z"/><path fill="#4751FD" d="M220.109 132.634c.729-11.146 3.448-20.768 8.08-30.937.572-1.25-2.082-1.041-2.485-.156-4.697 10.312-7.508 20.065-8.249 31.366-.078 1.185 2.589.716 2.654-.286v.013Z"/><path fill="#4751FD" d="M219.368 133.961c5.308-.795 10.331-2.604 15.301-4.558 4.97-1.953 10.292-3.919 15.574-5.52 10.448-3.177 21.091-5.82 31.019-10.456 1.652-.768.156-1.809-1.08-1.237-9.706 4.532-20.115 7.11-30.329 10.208a189.69 189.69 0 0 0-14.625 5.117c-5.048 2.006-10.135 4.024-15.548 4.831-1.327.195-2.134 1.875-.325 1.615h.013Z"/><path fill="#4751FD" d="M251.907 94.952a2858.818 2858.818 0 0 1 27.922 18.268c.65.429 2.94-.625 2.472-.938a2787.002 2787.002 0 0 0-27.922-18.267c-.664-.43-2.941.638-2.472.937Z"/><path fill="#4751FD" d="M268.262 64.38c-1.145 8.45 2.823 16.224 4.957 24.166 2.199 8.177 2.941 16.718 6.285 24.557.377.898 2.979.091 2.641-.704-3.253-7.656-4.06-15.989-6.128-23.983-2.069-7.995-6.272-15.898-5.114-24.374.143-1.003-2.511-.534-2.641.338Z"/><path fill="#4751FD" fill-opacity=".7" d="M252.106 30.433 196 45.023l14.966 48.666 16.4 7.811 25-6.5 12.179-21.5-12.439-43.067Z"/><path stroke="#F7F8FF" stroke-linecap="round" stroke-width="3" d="m213.301 54.764 27-7M216.301 67.764l27-7M220.301 80.764l28-7"/><path stroke="#ED2579" stroke-linecap="round" stroke-width="5" d="M226.301 45.459c7.606 2.623 14.859 6.284 22.173 9.608"/><path stroke="#ED2579" stroke-linecap="round" stroke-width="5" d="M228.516 58.024c.89-3.563 5.374-6.832 7.801-9.28 2.441-2.461 4.776-5.214 7.72-6.98"/><path fill="#4751FD" d="m224.736 153.424 19.808 7.21-15.902 36.439-18.643-6.786 14.737-36.863Z"/><path fill="#fff" d="m244.545 160.633 18.644 6.786-15.902 36.439-18.644-6.786 15.902-36.439Z"/><path fill="#ED2579" d="m263.186 167.42 18.643 6.786-15.901 36.439-18.644-6.786 15.902-36.439ZM277.719 46.335c-.681-2.403-.197-5.507 1.877-7.151 1.946-1.54 5.539-.769 6.726 1.362.293.542.463 1.211.216 1.805-.07.162-.165.317-.288.444.255-.097.227-.125-.075-.087-.271-.092-.465-.087-.711-.23-1.15-.641-1.507-2.18-.86-3.286.648-1.106 2.019-1.747 3.131-2.312 1.517-.772 3.098-1.398 4.72-1.93.322-.11 1.279-.53 1.262-.958-.012-.452-.811-.154-1.027-.088a37.278 37.278 0 0 0-5.486 2.278c-1.462.76-3.047 1.592-4.161 2.826-.882.962-1.366 2.25-.794 3.496.573 1.245 1.901 1.748 3.217 1.46 1.317-.29 2.908-1.145 3.368-2.497.46-1.352-.493-2.724-1.594-3.466-2.612-1.752-6.258-.912-8.69.77-2.814 1.953-4.013 5.429-3.092 8.68.132.483 2.455-.44 2.261-1.116Z"/><path fill="#4751FD" d="M284.118 60.355c5.537-1.404 11.32-2.834 17.045-1.723.513.1 1.086-.186 1.515-.443.081-.05.984-.743.579-.82-6.154-1.194-12.326.303-18.299 1.817-.413.107-1.318.449-1.481.89-.163.441.302.358.641.279Z"/><path fill="#FAC036" d="M37.839 151.212c-1.417.46-2.211 1.406-2.36 2.82-.097.932.504 2.228 1.333 4.023.233.505.484 1.047.735 1.62.334.757.8 1.798 1.304 2.922 1.15 2.566 2.583 5.761 2.882 6.634l.098.282c.414 1.17.658 2.057-.005 2.734-.78.474-1.588.08-2.637-.539l-.26-.15c-.803-.463-3.675-2.485-5.983-4.106-1-.704-1.927-1.356-2.601-1.825-.515-.355-.998-.706-1.448-1.03-1.604-1.156-2.761-1.993-3.694-2.073-1.414-.124-2.492.474-3.215 1.777-1.207 2.19 1.484 4.22 3.087 5.432l.442.339c2.793 2.158 9.15 6.514 9.84 6.903.58.326 1.838 1.22 2.759 1.871l.721.508c.222.155.968.59.968.59l.054.03-.246.513a273.389 273.389 0 0 0-2.968-1.963c-1.738-1.122-3.327-.387-4.22.966-.995 1.496.111 3.205 1.094 3.904.526.37 2.123 1.259 3.707 2.072l-.322.669a36.3 36.3 0 0 0-1.423-.737c-1.707-.838-2.912-.289-3.674.992-.847 1.416.52 3.183 1.453 3.78.275.176.769.446 1.353.747 0 0 4.023 3.35 6.388 5.062l.085.067.146.1c.36.257.676.472.917.614.54.354.604.428.95.603 3.394 1.722 7.303 1.237 10.34-.964.383-.279 7.981-4.675 7.835-12.307-.022-1.167-.327-2.751-2.086-5.517-.662-1.04-1.708-2.431-2.662-3.242-1.67-1.411-3.65-1.665-5.658-1.363l-1.058-2.262-.007-.022s-.284-.816-.394-1.062l-.36-.801c-.466-1.027-1.105-2.438-1.315-3.07-.25-.748-3.317-7.821-4.904-10.977l-.247-.499c-.884-1.806-2.364-4.833-4.744-4.065Z"/><path fill="#E39E49" d="M44.486 176.133s3.35-1.66 6.349-2.157l-.525-1.159s-2.6.539-5.16 1.749c-.859.407-2.042.848-2.792 1.393-1.277.925-2.311 2.083-2.793 3.225l-3.708-1.929s.238.322.152.526c-.107.257-.412.267-.412.267-.014.005-.005.017-.004.031a3.41 3.41 0 0 1 1.058.455c.655.423 1.633 1.07 2.634 1.737-.008.121-.027.24-.02.358 0 0 .038 2.497 2.55 3.264 0 0 .82.327 2.47-.284 1.449 1.163.733 2.622.733 2.622-1.022 2.015-3.514 1.256-3.514 1.256-.451-.072-2.31-.987-3.07-1.365l-3.389-1.823s.217.324.13.533c-.107.257-.411.267-.411.267-.006.004 0 .013-.004.021.232.066.47.149.727.275 1.192.583 2.657 1.408 3.788 2.064l-.01-.012.547.323c1.993 1.125 2.105 1.709 2.105 1.709.624 1.379-.724 2.495-.724 2.495-1.233 1.118-3.248.33-3.248.33-.676-.257-3.332-1.391-3.332-1.391l2.203 1.806c1.696.86 2.888.779 2.888.779 2.53-.089 3.331-2.306 3.331-2.306.275-.854 0-1.535 0-1.535a2.996 2.996 0 0 0-.717-1.065c2.568.255 3.649-1.679 3.649-1.679.845-1.74-.135-3.156-.677-3.752.225-.113.458-.24.707-.389 1.236-.741 2.008-1.205 2.87-1.514 0 0 2.361-.864 3.451.311 0 0 .444.568.605 1.523 0 0 .238.707.694.564.235-.074.607-.527.691-.992 0 0 .14-.503-.222-1.273 0 0-.416-1.237-2.155-1.589 0 0-1.232-.302-2.44.061-1.286.387-1.764.499-3.588 1.566 0 0-1.919 1.208-3.608 1.223 0 0-1.45-.053-1.622-1.756-.008.001-.309-2.594 3.813-4.763Z"/><path fill="#FAC036" d="M37.839 151.212c-1.417.46-2.211 1.406-2.36 2.82-.097.932.504 2.228 1.333 4.023.233.505.484 1.047.735 1.62.334.757.8 1.798 1.304 2.922 1.15 2.566 2.583 5.761 2.882 6.634l.098.282c.414 1.17.658 2.057-.005 2.734-.78.474-1.588.08-2.637-.539l-.26-.15c-.803-.463-3.675-2.485-5.983-4.106-1-.704-1.927-1.356-2.601-1.825-.515-.355-.998-.706-1.448-1.03-1.604-1.156-2.761-1.993-3.694-2.073-1.414-.124-2.492.474-3.215 1.777-1.207 2.19 1.484 4.22 3.087 5.432l.442.339c2.793 2.158 9.15 6.514 9.84 6.903.58.326 1.838 1.22 2.759 1.871l.721.508c.222.155.968.59.968.59l.054.03-.246.513a273.389 273.389 0 0 0-2.968-1.963c-1.738-1.122-3.327-.387-4.22.966-.995 1.496.111 3.205 1.094 3.904.526.37 2.123 1.259 3.707 2.072l-.322.669a36.3 36.3 0 0 0-1.423-.737c-1.707-.838-2.912-.289-3.674.992-.847 1.416.52 3.183 1.453 3.78.275.176.769.446 1.353.747 0 0 4.023 3.35 6.388 5.062l.085.067.146.1c.36.257.676.472.917.614.54.354.604.428.95.603 3.394 1.722 7.303 1.237 10.34-.964.383-.279 7.981-4.675 7.835-12.307-.022-1.167-.327-2.751-2.086-5.517-.662-1.04-1.708-2.431-2.662-3.242-1.67-1.411-3.65-1.665-5.658-1.363l-1.82-4.147c-.465-1.027-1.104-2.438-1.314-3.07-.25-.748-3.317-7.821-4.904-10.977l-.247-.499c-.884-1.806-2.364-4.833-4.744-4.065Z"/><path fill="#E48C15" d="M44.483 176.135s3.389-1.664 6.385-2.164l-.513-1.168s-2.648.555-5.205 1.763c-.859.407-2.042.848-2.792 1.393-1.277.925-2.311 2.083-2.793 3.225l-3.708-1.929s.238.322.152.526c-.107.257-.412.267-.412.267-.014.005-.005.017-.004.031a3.41 3.41 0 0 1 1.058.455c.655.423 1.633 1.07 2.634 1.737-.008.121-.027.24-.02.358 0 0 .038 2.497 2.55 3.264 0 0 .82.327 2.47-.284 1.449 1.163.733 2.622.733 2.622-1.022 2.015-3.514 1.256-3.514 1.256-.451-.072-2.31-.987-3.07-1.365l-3.389-1.823s.217.324.13.533c-.107.257-.411.267-.411.267-.006.004 0 .013-.004.021.232.066.47.149.727.275 1.192.583 2.657 1.408 3.788 2.064l-.01-.012.547.323c1.993 1.125 2.105 1.709 2.105 1.709.624 1.379-.724 2.495-.724 2.495-1.233 1.118-3.248.33-3.248.33-.676-.257-3.332-1.391-3.332-1.391l2.203 1.806c1.696.86 2.888.779 2.888.779 2.53-.089 3.331-2.306 3.331-2.306.275-.854 0-1.535 0-1.535a2.996 2.996 0 0 0-.717-1.065c2.568.255 3.649-1.679 3.649-1.679.845-1.74-.135-3.156-.677-3.752.225-.113.458-.24.707-.389 1.236-.741 2.008-1.205 2.87-1.514 0 0 2.361-.864 3.451.311 0 0 .444.567.605 1.523 0 0 .238.707.694.564.235-.074.607-.527.691-.992 0 0 .14-.503-.222-1.273 0 0-.416-1.237-2.155-1.589 0 0-1.232-.302-2.44.061-1.286.387-1.764.499-3.588 1.566 0 0-1.919 1.208-3.608 1.223 0 0-1.45-.053-1.622-1.756-.01.003-.312-2.592 3.81-4.761Z"/><defs><clipPath id="a"><path fill="#fff" d="M109 217h103v93.656H109z"/></clipPath><clipPath id="c"><path fill="#fff" d="M0 0h131v148H0z"/></clipPath><clipPath id="d"><path fill="#fff" d="M68 212h33v66H68z"/></clipPath><linearGradient id="b" x1="122.357" x2="170.503" y1="69.022" y2="229.087" gradientUnits="userSpaceOnUse"><stop stop-color="#ED2579"/><stop offset="1" stop-color="#6000C1"/></linearGradient></defs></svg>