<svg width="319" height="316" viewBox="0 0 319 316" fill="none" xmlns="http://www.w3.org/2000/svg">
<path d="M211.664 248.702C214.674 243.332 218.324 238.392 222.564 233.942L220.574 233.792C218.564 242.172 216.744 250.592 215.104 259.052C214.954 259.822 216.284 259.692 216.654 259.502C226.344 254.362 236.134 249.192 246.844 246.532L246.214 245.322C236.394 250.102 227.374 256.352 219.454 263.862C219.074 264.222 219.284 264.622 219.704 264.792C228.314 268.132 236.804 271.752 245.174 275.662L246.424 274.362C239.374 274.272 232.334 274.192 225.284 274.102C224.814 274.102 223.324 274.542 223.884 275.272C228.274 281.002 232.104 287.132 235.314 293.602L237.044 292.642C230.324 290.462 225.834 284.192 218.914 282.392C218.444 282.272 217.174 282.462 217.174 283.172C217.184 287.292 216.964 291.412 216.524 295.502L218.624 294.942C216.124 292.002 213.624 289.072 211.124 286.132C210.554 285.462 208.474 286.282 209.124 287.042C211.624 289.982 214.124 292.912 216.624 295.852C217.094 296.402 218.634 296.062 218.724 295.292C219.174 291.192 219.384 287.082 219.374 282.962L217.634 283.742C224.514 285.522 229.034 291.802 235.764 293.992C236.184 294.132 237.854 293.762 237.494 293.032C234.234 286.452 230.354 280.202 225.894 274.372L224.494 275.542C231.544 275.632 238.584 275.712 245.634 275.802C246.044 275.802 247.934 275.002 246.884 274.502C238.384 270.532 229.754 266.852 221.004 263.452L221.254 264.382C228.914 257.112 237.654 251.052 247.144 246.432C248.294 245.872 247.574 244.952 246.514 245.222C235.614 247.942 225.624 253.162 215.764 258.392L217.314 258.842C218.954 250.382 220.774 241.962 222.784 233.582C223.024 232.592 221.114 233.092 220.794 233.432C216.444 237.982 212.684 243.052 209.604 248.542C209.044 249.532 211.244 249.442 211.654 248.702H211.664Z" fill="#EDA600"/>
<path d="M108.737 295.772C108.843 295.32 109.246 295 109.71 295H212.16C212.64 295 213.052 295.341 213.143 295.812L216.773 314.812C216.891 315.429 216.418 316 215.791 316H105.261C104.617 316 104.141 315.399 104.288 314.772L108.737 295.772Z" fill="#06093F" fill-opacity="0.2"/>
<path d="M112 236.497L120.69 218H202.276L210 236.497V310H112V236.497Z" fill="#F7F8FF"/>
<g clip-path="url(#clip0_296_1624)">
<path d="M119.859 218.918C140.84 221.03 161.797 220.107 182.826 219.428C188.869 219.234 194.913 219.039 200.944 218.845C201.623 218.821 202.922 218.603 203.273 217.923C203.625 217.243 202.97 217.037 202.363 217.049C191.891 217.389 181.419 217.729 170.946 218.069C160.474 218.408 150.087 218.76 139.651 218.384C133.765 218.178 127.892 217.765 122.043 217.171C121.242 217.086 120.175 217.268 119.556 217.838C119.082 218.287 119.058 218.833 119.847 218.918H119.859Z" fill="#06093F"/>
<path d="M200.519 218.796C201.369 222.072 202.764 225.252 203.941 228.419C205.119 231.586 206.283 234.693 208.14 237.496C208.698 238.345 211.926 236.962 211.659 236.549C209.815 233.746 208.625 230.603 207.461 227.472C206.296 224.342 204.888 221.126 204.039 217.85C203.844 217.097 200.325 218.019 200.519 218.796Z" fill="#06093F"/>
<path d="M119.145 217.934C115.541 223.638 113.563 230.227 111.294 236.537C110.918 237.581 114.4 237.156 114.801 236.052C117.009 229.924 118.902 223.468 122.409 217.922C122.822 217.255 122.033 217 121.475 217C120.771 217 119.57 217.267 119.145 217.934Z" fill="#06093F"/>
<path d="M112.834 237.266C137.771 238.333 162.72 238.892 187.682 238.904C194.744 238.904 201.794 238.867 208.857 238.795C210.92 238.77 211.514 236.04 209.124 236.076C184.526 236.356 159.917 236.125 135.32 235.36C128.209 235.142 121.11 234.875 114.011 234.572C113.174 234.535 112.07 234.79 111.73 235.676C111.427 236.44 112.009 237.229 112.834 237.266Z" fill="#06093F"/>
<path d="M111.611 236.549C111.465 260.722 110.591 284.882 109.026 309.006C108.917 310.741 112.484 310.195 112.581 308.702C114.159 284.579 115.02 260.418 115.166 236.246C115.166 234.486 111.623 235.069 111.611 236.549Z" fill="#06093F"/>
<path d="M109.984 310.353C135.601 310.22 161.217 309.941 186.834 309.965C194.102 309.965 201.371 310.11 208.628 310.644C209.404 310.705 210.521 310.535 211.115 309.977C211.564 309.552 211.649 309.079 210.86 309.018C198.046 308.084 185.171 308.315 172.333 308.387C159.409 308.46 146.485 308.521 133.562 308.594C126.196 308.63 118.818 308.666 111.452 308.715C110.809 308.715 109.462 308.97 109.11 309.601C108.746 310.256 109.426 310.353 109.984 310.353Z" fill="#06093F"/>
<path d="M207.329 237.739C206.589 261.79 206.977 285.866 208.494 309.893C208.579 311.179 212.098 310.414 212.013 308.946C210.508 285.113 210.132 261.22 210.86 237.351C210.909 235.773 207.365 236.429 207.329 237.739Z" fill="#06093F"/>
<path d="M123.102 261.146C123.041 270.817 128.927 279.166 130.031 288.631C130.152 289.626 133.501 288.838 133.538 287.903C133.938 278.851 136.22 269.992 140.248 261.874C140.588 261.182 139.047 261.231 138.768 261.267C138.04 261.364 137.093 261.68 136.741 262.372C132.713 270.49 130.431 279.348 130.031 288.401L133.538 287.673C132.434 278.207 126.548 269.847 126.609 260.187C126.609 259.289 123.102 259.884 123.09 261.134L123.102 261.146Z" fill="#ED2579"/>
<path d="M143.912 266.741C143.426 270.454 142.722 274.604 143.632 278.293C144.033 279.895 144.858 281.776 146.375 282.601C148.037 283.511 150.137 283.244 151.848 282.625C158.777 280.137 159.092 269.629 154.639 264.787C153.28 263.319 151.447 262.748 149.494 263.076C147.746 263.367 145.526 264.265 145.028 266.17C144.797 267.08 148.256 266.583 148.511 265.6C148.571 265.345 148.644 265.115 148.79 264.896C148.875 264.775 149.057 264.666 149.105 264.544C149.154 264.423 148.911 264.581 148.899 264.581C149.093 264.69 149.409 264.69 149.627 264.775C150.756 265.236 151.641 266.28 152.26 267.299C153.656 269.604 154.275 272.432 153.983 275.102C153.85 276.4 153.498 277.686 152.952 278.863C152.527 279.786 151.581 281.351 150.719 281.582C150.865 281.545 150.61 281.582 150.574 281.582C150.307 281.582 150.04 281.509 149.797 281.412C149.166 281.157 148.644 280.623 148.28 280.053C147.516 278.912 147.103 277.529 146.909 276.182C146.423 272.905 146.945 269.435 147.382 266.17C147.516 265.151 144.021 265.794 143.899 266.741H143.912Z" fill="#4751FD"/>
<path d="M162.211 260.248H181.869C182.646 260.248 183.714 259.653 183.799 258.816C183.896 257.893 182.877 257.639 182.161 257.639H162.502C161.726 257.639 160.658 258.233 160.573 259.071C160.476 259.993 161.495 260.248 162.211 260.248Z" fill="#ED2579"/>
<path d="M170.195 259.024C170.244 268.525 170.305 278.039 170.353 287.54C170.353 288.135 173.872 287.625 173.872 286.594C173.824 277.092 173.763 267.579 173.714 258.077C173.714 257.483 170.195 257.992 170.195 259.024Z" fill="#ED2579"/>
<path d="M181.262 266.935H192.827C193.579 266.935 194.671 266.365 194.768 265.54C194.878 264.63 193.822 264.436 193.154 264.436H181.59C180.838 264.436 179.746 265.006 179.648 265.831C179.539 266.741 180.595 266.935 181.262 266.935Z" fill="#4751FD"/>
<path d="M179.322 266.352C179.237 273.415 179.14 280.477 179.055 287.552C179.055 288.086 182.562 287.625 182.574 286.605C182.659 279.543 182.756 272.48 182.841 265.406C182.841 264.872 179.334 265.333 179.322 266.352Z" fill="#4751FD"/>
<path d="M180.691 288.79L191.478 288.523C192.243 288.499 193.323 287.953 193.42 287.115C193.517 286.217 192.473 285.975 191.806 285.987L181.018 286.254C180.254 286.278 179.174 286.824 179.077 287.661C178.98 288.559 180.023 288.802 180.691 288.79Z" fill="#4751FD"/>
<path d="M181.458 277.238H191.287C192.027 277.238 193.119 276.935 193.629 276.376C194.175 275.77 193.131 275.709 192.779 275.709H182.95C182.21 275.709 181.118 276.012 180.608 276.571C180.062 277.177 181.106 277.238 181.458 277.238Z" fill="#4751FD"/>
<path d="M145.672 224.173C155.489 224.173 165.306 224.33 175.123 224.67C175.924 224.694 176.968 224.549 177.611 224.003C178.072 223.602 178.145 223.093 177.356 223.068C167.284 222.728 157.212 222.559 147.141 222.559C146.497 222.559 145.15 222.826 144.799 223.444C144.422 224.1 145.114 224.185 145.672 224.185V224.173Z" fill="#06093F"/>
<path d="M144.712 223.419C144.275 224.584 143.753 225.724 143.171 226.829C143.025 227.108 143.013 227.447 143.219 227.714C143.438 227.981 143.874 228.127 144.202 228.151C144.663 228.176 145.161 228.103 145.585 227.896C145.949 227.714 146.313 227.484 146.508 227.12C147.09 226.016 147.612 224.887 148.049 223.71C148.146 223.564 148.182 223.419 148.146 223.249C148.158 223.091 148.109 222.945 148 222.824C147.782 222.557 147.345 222.412 147.017 222.387C146.556 222.363 146.059 222.436 145.634 222.642L145.246 222.861C145.027 223.006 144.857 223.188 144.724 223.419H144.712Z" fill="#06093F"/>
<path d="M143.851 228.589C148.899 228.479 153.947 228.37 158.983 228.431C164.019 228.492 169.055 229.074 174.067 228.856C174.698 228.831 175.96 228.37 176.057 227.63C176.154 226.805 175.062 226.793 174.516 226.817C172.016 226.926 169.504 226.635 167.017 226.526C164.529 226.417 162.175 226.368 159.748 226.344C154.894 226.307 150.04 226.404 145.198 226.514C144.47 226.526 143.245 226.732 142.88 227.497C142.553 228.2 143.16 228.613 143.851 228.601V228.589Z" fill="#06093F"/>
<path d="M176.07 227.715C176.264 227.411 176.495 227.132 176.75 226.877L176.519 227.108C177.32 226.295 178.303 225.615 178.897 224.608C179.031 224.378 179.116 224.159 178.897 223.941C178.679 223.722 178.23 223.674 177.963 223.674C177.502 223.674 177.016 223.771 176.592 223.953L176.191 224.147C175.973 224.268 175.791 224.414 175.633 224.608C175.439 224.948 175.184 225.251 174.905 225.53L175.136 225.3C174.359 226.101 173.412 226.756 172.806 227.715C172.672 227.933 172.587 228.164 172.806 228.382C173.024 228.601 173.473 228.649 173.74 228.649C174.201 228.649 174.687 228.552 175.111 228.37C175.439 228.224 175.864 228.042 176.058 227.715H176.07Z" fill="#06093F"/>
</g>
<path d="M119.953 70.6274C120.33 69.5895 121.478 69.0543 122.516 69.4321L217.087 103.853C218.125 104.231 218.66 105.379 218.283 106.417L178.001 217.089L177.363 218.842L174.496 226.72C174.118 227.758 172.97 228.294 171.932 227.916L147.001 218.842L144.501 217.932L77.361 193.495C76.323 193.117 75.7879 191.969 76.1657 190.931L119.953 70.6274Z" fill="white"/>
<path d="M119.953 70.6274C120.33 69.5895 121.478 69.0543 122.516 69.4321L217.087 103.853C218.125 104.231 218.66 105.379 218.283 106.417L178.001 217.089L177.363 218.842L174.496 226.72C174.118 227.758 172.97 228.294 171.932 227.916L147.001 218.842L144.501 217.932L77.361 193.495C76.323 193.117 75.7879 191.969 76.1657 190.931L119.953 70.6274Z" fill="url(#paint0_linear_296_1624)" fill-opacity="0.5"/>
<path d="M218.5 131.5L201 87.5L230.5 101.5L218.5 131.5Z" fill="#F7F8FF"/>
<g clip-path="url(#clip1_296_1624)">
<path d="M45.1355 79.556C41.3923 78.4819 38.6537 81.5133 36.5608 84.1389C34.0255 87.3373 31.8489 90.7864 29.6604 94.2355C25.5943 100.632 21.289 107.375 14.7833 111.576C13.121 112.65 11.2793 113.581 9.35386 114.071C7.64371 114.5 4.58218 114.942 3.6972 112.913C2.1784 109.44 7.53608 106.791 9.605 105.048C15.1062 100.418 19.6506 94.8203 23.7526 88.9485C32.3871 76.5843 39.2636 61.8929 51.7369 52.7988C56.401 49.4094 61.8065 47.5118 66.626 44.4327C69.2211 42.7738 71.2542 40.5421 72.7251 37.8449C74.9974 33.6797 75.7867 28.8463 76.0737 24.1679C76.564 16.2195 75.5475 8.2234 74.1483 0.418223C73.9808 -0.524604 70.4888 0.275009 70.6801 1.34912C71.9837 8.62917 72.9524 16.0405 72.6893 23.4518C72.5338 27.987 71.888 32.6414 70.0463 36.8304C68.8863 39.4441 67.2 41.8071 64.856 43.478C62.8948 44.8862 60.6225 45.8649 58.4579 46.927C55.5997 48.3353 52.8252 49.851 50.1942 51.6531C37.3262 60.4727 30.2105 74.9254 21.6478 87.4925C17.4741 93.6149 12.8938 99.5822 7.24906 104.428C4.96487 106.385 0.994448 108.27 0.16927 111.397C-0.835294 115.169 2.94378 116.183 5.9216 116.052C14.4963 115.706 21.7674 109.452 26.7783 103.019C29.5408 99.4867 31.8609 95.6557 34.2766 91.8844C35.5204 89.9391 36.788 88.0176 38.1394 86.1558C38.8689 85.1533 39.6223 84.1747 40.4116 83.2199C40.7465 82.8142 41.0814 82.3965 41.4521 82.0026C41.6913 81.7281 41.9544 81.4656 42.2294 81.2269C42.8035 80.8569 42.8393 80.8092 42.3251 81.0598C43.1024 81.2865 44.0711 81.0598 44.7648 80.6779C45.0996 80.4869 45.9368 79.7828 45.1355 79.556Z" fill="#ED2579"/>
<path d="M41.9295 80.5824C42.4438 84.7834 40.3151 88.5427 38.5451 92.2066C36.6436 96.1092 35.6749 99.9879 35.3281 104.32C34.9813 108.652 34.7421 113.295 34.5867 117.782C34.4312 122.27 34.3236 126.685 35.6151 130.934C36.6675 134.383 38.7125 137.725 41.81 139.682C44.4649 141.353 48.4592 140.899 49.5355 137.582C50.0139 136.126 49.8704 134.526 49.8465 133.023C49.7986 130.505 49.7269 127.986 49.6312 125.468C49.4638 120.838 49.1528 116.231 48.9495 111.6C48.7104 106.373 48.9974 101.277 50.3607 96.2047C51.7241 91.1325 53.7451 86.4661 55.7901 81.7401C56.1609 80.8688 52.7884 81.2269 52.3459 82.2413C49.0452 89.8675 45.8282 97.613 45.4455 106.015C45.2542 110.096 45.5771 114.178 45.8043 118.248C46.0315 122.317 46.2109 126.757 46.3185 131.018C46.3664 132.951 46.6056 135.028 46.3305 136.949C46.2468 137.534 46.1272 138.214 45.8163 138.727L45.5771 139.073C45.7923 138.668 45.6129 138.429 45.027 138.369C44.6443 138.131 44.2855 137.868 43.9387 137.594C41.1761 135.398 39.5258 132.116 38.7245 128.738C37.7439 124.657 37.8874 120.408 38.0428 116.243C38.1983 112.078 38.4136 107.554 38.7843 103.234C39.155 98.9138 40.3988 94.8203 42.3959 90.7745C44.13 87.2538 45.8641 83.6615 45.3618 79.6277C45.2422 78.6729 41.7502 79.4128 41.8937 80.5585L41.9295 80.5824Z" fill="#ED2579"/>
<path d="M52.4768 81.9422C51.1374 93.4232 53.2781 105.596 61.2429 114.392C64.7469 118.259 69.1837 121.159 74.1946 122.651C79.8751 124.346 85.9264 124.31 91.7984 123.976C94.1782 123.844 96.5222 123.844 98.7346 122.89C99.8468 122.412 102.55 121.195 101.641 119.584C101.15 118.701 97.8736 119.966 98.1726 120.515C98.8781 121.768 97.156 122.03 96.4146 122.484C95.996 122.746 96.9886 121.457 97.0364 122.281C97.0364 122.281 96.295 122.341 96.2352 122.341C95.6133 122.388 94.9914 122.424 94.3576 122.472C92.9225 122.567 91.4874 122.639 90.0523 122.675C84.6947 122.818 79.1935 122.4 74.2185 120.276C65.4285 116.516 59.4251 108.15 57.0093 99.116C55.4307 93.2203 55.2394 87.0502 55.945 81.0113C56.0048 80.5339 52.6084 80.8681 52.4768 81.9422Z" fill="#ED2579"/>
<path d="M64.0901 73.9818C63.3128 83.4578 62.5474 93.9363 67.5463 102.481C69.9262 106.551 73.4661 109.75 77.1973 112.566C81.1079 115.526 85.2697 118.557 90.0294 120.001C94.7891 121.445 100.613 120.968 104.978 118.056C105.588 117.65 105.337 117.292 104.739 117.161C103.986 116.994 102.909 117.4 102.287 117.817C98.4965 120.347 93.5574 119.154 89.7185 117.352C85.6763 115.442 81.9331 112.614 78.4889 109.797C75.0447 106.981 72.1386 103.937 70.2012 100.047C68.2639 96.1561 67.4626 92.0268 67.1517 87.8139C66.7929 82.8969 67.1517 77.956 67.5583 73.0628C67.6061 72.4423 64.1858 72.86 64.0901 73.9937V73.9818Z" fill="#ED2579"/>
<path d="M82.1701 75.3425C86.1405 73.5643 90.3501 72.3947 94.6673 71.8935C94.9783 71.8577 95.636 71.7741 95.8274 71.4877C96.0187 71.2013 95.6719 71.1893 95.4208 71.2132C90.4936 71.7861 85.698 73.0989 81.1655 75.1277C80.9503 75.2232 80.6513 75.4141 80.9503 75.5693C81.2492 75.7244 81.895 75.4619 82.1581 75.3425H82.1701Z" fill="#4751FD"/>
<path d="M87.1935 73.4926C98.5547 94.0439 109.904 114.583 121.265 135.134C121.576 135.707 123.25 135.134 122.999 134.669C111.638 114.118 100.289 93.5784 88.9276 73.0272C88.6167 72.4543 86.9424 73.0272 87.1935 73.4926Z" fill="#4751FD"/>
<path d="M116.122 137.391C120.248 138.095 124.757 136.484 127.436 133.261C127.699 132.951 127.209 132.844 126.993 132.844C126.611 132.844 126.096 132.987 125.845 133.297C123.74 135.839 120.488 137.104 117.223 136.543C116.84 136.472 116.302 136.615 116.003 136.866C115.74 137.092 115.788 137.319 116.146 137.379L116.122 137.391Z" fill="#4751FD"/>
<path d="M125.762 133.381C125.57 138.441 126.802 143.406 129.337 147.786C129.648 148.311 131.322 147.75 130.94 147.093C128.512 142.893 127.304 138.023 127.496 133.19C127.52 132.426 125.785 132.76 125.762 133.381Z" fill="#4751FD"/>
<path d="M115.539 138.632C117.213 140.016 119.067 141.162 121.064 142.021C123.204 142.94 125.501 143.37 127.701 144.11C128.263 144.301 129.722 143.477 128.753 143.155C126.661 142.451 124.472 142.057 122.439 141.174C120.526 140.363 118.744 139.276 117.141 137.952C116.83 137.701 116.34 137.773 115.993 137.928C115.814 137.999 115.228 138.381 115.539 138.644V138.632Z" fill="#4751FD"/>
<path d="M116.887 137.509L110.884 126.923C109.975 125.324 109.078 123.724 108.014 122.221C106.949 120.717 105.741 119.153 104.952 117.423C104.581 116.623 102.871 117.113 103.218 117.888C103.983 119.583 105.048 121.063 106.124 122.567C107.2 124.07 108.169 125.717 109.102 127.364C111.171 131.004 113.24 134.656 115.309 138.296C115.715 139.012 117.354 138.344 116.887 137.509Z" fill="#4751FD"/>
<path d="M79.2768 76.465C81.9557 79.8425 83.7376 83.769 85.2803 87.7551C86.823 91.7412 87.8874 95.799 90.5064 99.0451C91.0207 99.6777 92.671 98.9855 92.085 98.2694C89.3703 94.9158 88.282 90.512 86.7154 86.5616C85.1487 82.6113 83.4266 78.9355 80.8435 75.6774C80.3292 75.0329 78.6908 75.737 79.2649 76.4531L79.2768 76.465Z" fill="#4751FD"/>
<path d="M95.7793 71.7017C100.958 81.9296 105.335 92.5275 110.417 102.803C115.5 113.079 120.702 123.068 125.856 133.2C126.191 133.857 127.842 133.236 127.447 132.448C122.173 122.065 116.744 111.742 111.637 101.287C106.722 91.2505 102.429 80.9271 97.3699 70.9498C97.035 70.2934 95.3847 70.914 95.7793 71.7017Z" fill="#4751FD"/>
<path d="M92.696 46.4486C99.3093 49.8022 104.177 55.495 108.482 61.3668C112.787 67.2386 116.423 73.2655 118.719 80.0085C120.896 86.4054 122.378 94.509 119.209 100.834C118.994 101.276 118.312 102.672 117.702 102.815C117.128 102.959 116.363 102.266 115.956 101.908C114.665 100.763 113.911 99.1634 113.206 97.6239C111.591 94.0674 110.276 90.3916 109.008 86.7157C106.64 79.8414 104.392 72.8597 100.721 66.5345C97.5753 61.1162 93.1026 55.2205 86.8838 53.2036C81.287 51.3895 74.8889 53.8481 73.2385 59.7437C71.5881 65.6394 73.9082 72.633 76.4077 78.1229C79.9476 85.9042 84.9225 93.0649 89.5866 100.202C91.7273 103.472 93.8321 106.515 96.9534 108.938C99.5007 110.919 103.842 114.463 101.474 118.151C100.732 119.309 104.129 118.867 104.655 118.056C106.329 115.454 105.313 112.435 103.316 110.31C102.156 109.081 100.756 108.138 99.4409 107.076C97.9819 105.895 96.7381 104.558 95.614 103.042C93.2341 99.8318 91.1652 96.3708 89.0126 93.0052C86.8599 89.6397 84.9106 86.5964 83.033 83.3025C79.5888 77.2755 76.2163 70.2819 76.1804 63.1928C76.1685 60.412 76.7904 57.0584 79.0506 55.1728C81.6577 53.0007 85.664 55.0534 88.008 56.6885C93.7364 60.6865 97.5274 67.2147 100.29 73.4684C103.459 80.6291 105.48 88.2195 108.422 95.4637C109.546 98.2325 110.718 101.896 113.337 103.651C115.669 105.214 119.006 104.51 120.967 102.636C123.347 100.369 124.113 96.5736 124.328 93.4468C124.579 89.9142 124.124 86.3338 123.287 82.9086C121.41 75.1989 117.427 68.1814 112.895 61.7487C108.362 55.316 102.897 48.6923 95.4824 44.933C94.6333 44.5033 91.4403 45.8042 92.684 46.4367L92.696 46.4486Z" fill="#ED2579"/>
<path d="M22.1269 115.413C15.4481 119.46 8.45769 123.64 0.52936 124.474C-0.181489 124.548 -0.815664 125.15 -1.2743 125.657C-1.36062 125.756 -2.2639 127.023 -1.70352 126.961C6.81944 126.065 14.2897 121.642 21.4942 117.276C21.9928 116.972 23.0393 116.164 23.076 115.522C23.1126 114.88 22.5383 115.173 22.1269 115.413Z" fill="#ED2579"/>
</g>
<path d="M138.793 33C138.793 35.6069 139.906 38.2557 139.906 40.7924" stroke="#4751FD" stroke-width="2" stroke-linecap="round"/>
<path d="M144.359 44.1328H151.039" stroke="#4751FD" stroke-width="2" stroke-linecap="round"/>
<path d="M131 44.1328H134.34" stroke="#4751FD" stroke-width="2" stroke-linecap="round"/>
<path d="M139.906 46.3574V57.4894" stroke="#4751FD" stroke-width="2" stroke-linecap="round"/>
<path d="M310 197C310 198.338 310 199.698 310 201" stroke="#ED2579" stroke-width="2" stroke-linecap="round"/>
<path d="M314 205H318" stroke="#ED2579" stroke-width="2" stroke-linecap="round"/>
<path d="M303 206H305" stroke="#ED2579" stroke-width="2" stroke-linecap="round"/>
<path d="M311 210V216" stroke="#ED2579" stroke-width="2" stroke-linecap="round"/>
<path d="M17.6016 208C17.6016 209.071 17.6016 210.158 17.6016 211.2" stroke="#EDA600" stroke-width="2" stroke-linecap="round"/>
<path d="M20.8008 214.4H24.0008" stroke="#EDA600" stroke-width="2" stroke-linecap="round"/>
<path d="M12 215.199H13.6" stroke="#EDA600" stroke-width="2" stroke-linecap="round"/>
<path d="M18.3984 218.4V223.2" stroke="#EDA600" stroke-width="2" stroke-linecap="round"/>
<path d="M131 150.235C134.859 154.234 137.719 158.941 140.644 163.665C141.038 164.301 146.016 172.268 146.37 171.993C147.187 171.358 146.98 169.464 147.098 168.61C147.855 163.118 149.568 157.679 151.066 152.369C153.978 142.05 158.414 133.006 164 124" stroke="#F7F8FF" stroke-width="8" stroke-linecap="round"/>
<g clip-path="url(#clip2_296_1624)">
<path d="M95.8934 248.413C85.9215 253.139 78.8095 262.276 68.6729 266.687C68.3734 266.822 67.7745 267.213 68.1039 267.603C71.0536 271.083 74.108 274.474 77.2523 277.775C77.7614 278.315 78.8843 277.865 79.2736 277.385C86.2659 268.653 92.7641 259.546 98.7382 250.079C99.2922 249.193 97.1062 249.358 96.7019 250.004C90.7278 259.471 84.2446 268.578 77.2373 277.31L79.2587 276.92C76.1144 273.619 73.0599 270.228 70.1103 266.747L69.5413 267.663C79.7078 263.252 86.8049 254.115 96.7618 249.388C98.1244 248.743 96.8816 247.948 95.8934 248.428V248.413Z" fill="#4751FD"/>
<path d="M99.3389 238.706C91.4183 239.306 83.4528 237.836 76.2658 234.49C75.8166 234.28 74.2295 234.535 74.1547 235.151C73.7803 238.166 73.406 241.167 73.0317 244.183C73.0167 244.303 73.3761 244.333 73.406 244.333C82.1801 244.513 90.6397 241.992 98.9496 239.426C99.1143 239.366 100.058 239.111 99.9528 238.796C99.8479 238.481 98.9646 238.691 98.7849 238.751C90.999 241.167 83.0635 243.612 74.8284 243.447L75.2028 243.597C75.5771 240.582 75.9514 237.581 76.3257 234.565L74.2146 235.226C81.7758 238.736 90.0857 240.222 98.3956 239.577C98.725 239.547 99.6982 239.411 99.8479 239.051C99.9977 238.691 99.7132 238.676 99.3389 238.706Z" fill="#4751FD" fill-opacity="0.6"/>
<path d="M100.984 226.869C99.3072 221.768 97.0762 216.877 94.3362 212.255C94.0218 211.73 92.9887 212.135 92.6443 212.316C89.4701 214.041 86.206 215.556 82.8521 216.892C82.5227 217.027 81.819 217.672 82.4478 217.972C84.9633 219.142 86.9996 220.987 89.0808 222.773C91.2668 224.648 93.5576 226.314 96.1629 227.559C96.642 227.784 97.2859 227.679 97.7051 227.379C98.0046 227.184 98.3489 226.674 97.8698 226.434C95.2046 225.158 92.8988 223.448 90.6679 221.528C88.6316 219.772 86.5953 217.987 84.1398 216.847L83.7355 217.927C87.2541 216.531 90.6829 214.911 94.0218 213.096L92.3299 213.156C95.01 217.672 97.1811 222.473 98.8131 227.469C99.0826 228.309 101.254 227.709 100.984 226.884V226.869Z" fill="#4751FD" fill-opacity="0.3"/>
</g>
<path d="M204.583 77.1659L198.572 85.6682C198.221 86.163 198.286 86.7228 198.91 86.9572C203.881 88.7801 208.408 91.8659 212.962 94.5351C217.776 97.3475 221.445 99.678 226.259 102.49C227.261 103.076 229.577 101.709 228.289 100.967C223.319 98.0505 219.481 95.6418 214.498 92.7252C209.944 90.056 205.416 86.9963 200.433 85.1734L200.771 86.4624L206.782 77.9601C207.745 76.593 205.273 76.1763 204.57 77.1789L204.583 77.1659Z" fill="#4751FD"/>
<path d="M269.967 63.7022C267.391 62.0486 264.931 60.2257 262.589 58.2597C262.121 57.869 261.353 57.9602 260.833 58.2076C260.56 58.3378 259.662 58.9107 260.143 59.3143C262.602 61.3715 265.179 63.2855 267.885 65.0172C268.392 65.3427 269.29 65.0823 269.759 64.7829C270.175 64.5225 270.5 64.0277 269.98 63.7022H269.967Z" fill="#4751FD"/>
<path d="M227.838 102.27C235.631 99.8088 243.542 97.7646 251.557 96.1761C251.934 96.098 253.053 95.8637 253.066 95.3298C253.079 94.796 252.338 94.783 251.947 94.8611C243.698 96.5017 235.54 98.5719 227.512 101.111C227.174 101.215 226.211 101.528 226.354 102.048C226.497 102.569 227.525 102.374 227.825 102.27H227.838Z" fill="#4751FD"/>
<path d="M253.34 95.3157C258.48 84.7041 264.009 74.2878 269.916 64.0798C270.203 63.5851 268.993 63.6241 268.81 63.6502C268.251 63.7153 267.587 63.9627 267.288 64.4704C261.381 74.6784 255.851 85.0947 250.712 95.7064C250.413 96.3313 252.963 96.0839 253.34 95.3157Z" fill="#4751FD"/>
<path d="M199.288 86.7108C201.565 94.6923 205.598 101.971 208.968 109.522C210.62 113.246 212 117.035 213.184 120.928C214.433 125.017 215.63 129.105 217.477 132.972C217.803 133.649 220.353 132.764 220.118 132.269C218.31 128.493 217.126 124.496 215.903 120.512C214.68 116.527 213.301 112.634 211.596 108.832C208.239 101.281 204.193 94.0152 201.916 86.0207C201.734 85.3827 199.092 86.0988 199.275 86.7238L199.288 86.7108Z" fill="#4751FD"/>
<path d="M220.109 132.634C220.838 121.488 223.557 111.866 228.189 101.697C228.761 100.447 226.107 100.656 225.704 101.541C221.007 111.853 218.196 121.606 217.455 132.907C217.377 134.092 220.044 133.623 220.109 132.621V132.634Z" fill="#4751FD"/>
<path d="M219.368 133.961C224.676 133.166 229.699 131.357 234.669 129.403C239.639 127.45 244.961 125.484 250.243 123.883C260.691 120.706 271.334 118.063 281.262 113.427C282.914 112.659 281.418 111.618 280.182 112.19C270.476 116.722 260.067 119.3 249.853 122.398C244.909 123.896 240.043 125.615 235.228 127.515C230.18 129.521 225.093 131.539 219.68 132.346C218.353 132.541 217.546 134.221 219.355 133.961H219.368Z" fill="#4751FD"/>
<path d="M251.907 94.9521C261.249 100.994 270.565 107.074 279.829 113.22C280.479 113.649 282.769 112.595 282.301 112.282C273.024 106.137 263.721 100.043 254.379 94.0146C253.715 93.585 251.438 94.6526 251.907 94.9521Z" fill="#4751FD"/>
<path d="M268.262 64.3803C267.117 72.8305 271.085 80.6037 273.219 88.5461C275.418 96.7229 276.16 105.264 279.504 113.103C279.881 114.001 282.483 113.194 282.145 112.399C278.892 104.743 278.085 96.4104 276.017 88.4159C273.948 80.4214 269.745 72.518 270.903 64.0418C271.046 63.0392 268.392 63.5079 268.262 64.3803Z" fill="#4751FD"/>
<path d="M252.106 30.4329L196 45.0234L210.966 93.6891L227.366 101.5L252.366 95L264.545 73.5L252.106 30.4329Z" fill="#4751FD" fill-opacity="0.7"/>
<path d="M213.301 54.7637L240.301 47.7637" stroke="#F7F8FF" stroke-width="3" stroke-linecap="round"/>
<path d="M216.301 67.7637L243.301 60.7637" stroke="#F7F8FF" stroke-width="3" stroke-linecap="round"/>
<path d="M220.301 80.7637L248.301 73.7637" stroke="#F7F8FF" stroke-width="3" stroke-linecap="round"/>
<path d="M226.301 45.459C233.907 48.0819 241.16 51.743 248.474 55.0675" stroke="#ED2579" stroke-width="5" stroke-linecap="round"/>
<path d="M228.516 58.0242C229.406 54.4611 233.89 51.192 236.317 48.7442C238.758 46.2826 241.093 43.5302 244.037 41.7637" stroke="#ED2579" stroke-width="5" stroke-linecap="round"/>
<path d="M224.736 153.424L244.544 160.634L228.642 197.073L209.999 190.287L224.736 153.424Z" fill="#4751FD"/>
<path d="M244.545 160.633L263.189 167.419L247.287 203.858L228.643 197.072L244.545 160.633Z" fill="white"/>
<path d="M263.186 167.42L281.829 174.206L265.928 210.645L247.284 203.859L263.186 167.42Z" fill="#ED2579"/>
<path d="M277.719 46.3353C277.038 43.9321 277.522 40.8284 279.596 39.184C281.542 37.6448 285.135 38.4154 286.322 40.5461C286.615 41.088 286.785 41.757 286.538 42.3513C286.468 42.513 286.373 42.6682 286.25 42.7952C286.505 42.6982 286.477 42.67 286.175 42.7083C285.904 42.6156 285.71 42.6208 285.464 42.4778C284.314 41.8368 283.957 40.2983 284.604 39.1919C285.252 38.0856 286.623 37.4452 287.735 36.8801C289.252 36.1083 290.833 35.4824 292.455 34.9501C292.777 34.8397 293.734 34.4192 293.717 33.9918C293.705 33.5403 292.906 33.838 292.69 33.9043C290.81 34.5227 288.968 35.2697 287.204 36.1821C285.742 36.9428 284.157 37.7737 283.043 39.0085C282.161 39.9697 281.677 41.2586 282.249 42.504C282.822 43.7493 284.15 44.2522 285.466 43.9632C286.783 43.6743 288.374 42.8193 288.834 41.4672C289.294 40.1151 288.341 38.7426 287.24 38.0011C284.628 36.2493 280.982 37.0887 278.55 38.7716C275.736 40.7244 274.537 44.1997 275.458 47.4504C275.59 47.9341 277.913 47.0107 277.719 46.3353Z" fill="#ED2579"/>
<path d="M284.118 60.3545C289.655 58.9512 295.438 57.5208 301.163 58.6317C301.676 58.7321 302.249 58.4462 302.678 58.1893C302.759 58.1388 303.662 57.4458 303.257 57.3689C297.103 56.1747 290.931 57.6722 284.958 59.1863C284.545 59.2927 283.64 59.6345 283.477 60.0757C283.314 60.517 283.779 60.4344 284.118 60.3545Z" fill="#4751FD"/>
<path d="M37.8386 151.212C36.4216 151.672 35.628 152.618 35.4799 154.032C35.3818 154.964 35.9827 156.26 36.8123 158.055C37.0453 158.56 37.2962 159.102 37.5474 159.675C37.881 160.432 38.3472 161.473 38.8507 162.597C40.001 165.163 41.4335 168.358 41.7325 169.231L41.8312 169.513C42.2449 170.683 42.4888 171.57 41.8257 172.247C41.0465 172.721 40.2382 172.327 39.1894 171.708L38.9292 171.558C38.1264 171.095 35.2535 169.073 32.9462 167.452C31.9455 166.748 31.0189 166.096 30.3446 165.627C29.8302 165.272 29.3469 164.921 28.8966 164.597C27.2933 163.441 26.136 162.604 25.2032 162.524C23.7888 162.4 22.7108 162.998 21.988 164.301C20.7812 166.491 23.4722 168.521 25.0746 169.733L25.5173 170.072C28.3101 172.23 34.6674 176.586 35.3571 176.975C35.9373 177.301 37.1946 178.195 38.116 178.846L38.8371 179.354C39.0594 179.509 39.8055 179.944 39.8055 179.944L39.8592 179.974L39.6128 180.487C38.4993 179.741 37.3724 178.996 36.6454 178.524C34.9066 177.402 33.3181 178.137 32.4253 179.49C31.43 180.986 32.5362 182.695 33.5192 183.394C34.0445 183.764 35.6424 184.653 37.226 185.466L36.9044 186.135C36.413 185.868 35.9274 185.615 35.4813 185.398C33.7742 184.56 32.5686 185.109 31.8068 186.39C30.9597 187.806 32.3277 189.573 33.2603 190.17C33.535 190.346 34.0285 190.616 34.6127 190.917C34.6127 190.917 38.6365 194.267 41.001 195.979L41.086 196.046C41.086 196.046 41.141 196.084 41.232 196.146C41.5922 196.403 41.9085 196.618 42.1488 196.76C42.6899 197.114 42.7526 197.188 43.0992 197.363C46.4926 199.085 50.4022 198.6 53.4381 196.399C53.8224 196.12 61.4201 191.724 61.2736 184.092C61.2523 182.925 60.9469 181.341 59.1885 178.575C58.5256 177.535 57.4803 176.144 56.5259 175.333C54.8569 173.922 52.8763 173.668 50.8683 173.97L49.8103 171.708L49.8032 171.686C49.8032 171.686 49.5188 170.87 49.4093 170.624L49.0482 169.823C48.5825 168.796 47.9441 167.385 47.7339 166.753C47.484 166.005 44.4171 158.932 42.8297 155.776L42.5825 155.277C41.699 153.471 40.2185 150.444 37.8386 151.212Z" fill="#FAC036"/>
<path d="M44.4863 176.133C44.4863 176.133 47.8369 174.473 50.8349 173.976L50.3105 172.817C50.3105 172.817 47.7095 173.356 45.1504 174.566C44.2913 174.973 43.1082 175.414 42.3575 175.959C41.0814 176.884 40.047 178.042 39.5649 179.184L35.8566 177.255C35.8566 177.255 36.0948 177.577 36.0091 177.781C35.9019 178.038 35.5975 178.048 35.5975 178.048C35.5833 178.053 35.592 178.065 35.5926 178.079C35.9377 178.163 36.2901 178.301 36.6514 178.534C37.3064 178.957 38.2842 179.604 39.2855 180.271C39.2769 180.392 39.2579 180.511 39.2657 180.629C39.2657 180.629 39.3034 183.126 41.8159 183.893C41.8159 183.893 42.6349 184.22 44.2859 183.609C45.734 184.772 45.0183 186.231 45.0183 186.231C43.9962 188.246 41.5036 187.487 41.5036 187.487C41.0529 187.415 39.1935 186.5 38.4331 186.122L35.0451 184.299C35.0451 184.299 35.2617 184.623 35.1752 184.832C35.068 185.089 34.7636 185.099 34.7636 185.099C34.7576 185.103 34.7642 185.112 34.7603 185.12C34.9915 185.186 35.2305 185.269 35.4867 185.395C36.6793 185.978 38.1439 186.803 39.2745 187.459L39.2658 187.447L39.8119 187.77C41.8052 188.895 41.9167 189.479 41.9167 189.479C42.5415 190.858 41.1925 191.974 41.1925 191.974C39.9599 193.092 37.9449 192.304 37.9449 192.304C37.2687 192.047 34.613 190.913 34.613 190.913L36.8164 192.719C38.512 193.579 39.7041 193.498 39.7041 193.498C42.2333 193.409 43.0354 191.192 43.0354 191.192C43.3096 190.338 43.0357 189.657 43.0357 189.657C42.8827 189.25 42.6257 188.896 42.3183 188.592C44.8857 188.847 45.9667 186.913 45.9667 186.913C46.8123 185.173 45.832 183.757 45.2896 183.161C45.5147 183.048 45.7475 182.921 45.997 182.772C47.2331 182.031 48.0055 181.567 48.8674 181.258C48.8674 181.258 51.2281 180.394 52.3183 181.569C52.3183 181.569 52.7618 182.137 52.923 183.092C52.923 183.092 53.1609 183.799 53.6165 183.656C53.8515 183.582 54.2238 183.129 54.3084 182.664C54.3084 182.664 54.4471 182.161 54.0863 181.391C54.0863 181.391 53.6699 180.154 51.9305 179.802C51.9305 179.802 50.6986 179.5 49.4908 179.863C48.2047 180.25 47.7273 180.362 45.9028 181.429C45.9028 181.429 43.984 182.637 42.2951 182.652C42.2951 182.652 40.8455 182.599 40.6733 180.896C40.6651 180.897 40.3641 178.302 44.4863 176.133Z" fill="#E39E49"/>
<path d="M37.8386 151.212C36.4216 151.672 35.628 152.618 35.4799 154.032C35.3818 154.964 35.9827 156.26 36.8123 158.055C37.0453 158.56 37.2962 159.102 37.5474 159.675C37.881 160.432 38.3472 161.473 38.8507 162.597C40.001 165.163 41.4335 168.358 41.7325 169.231L41.8312 169.513C42.2449 170.683 42.4888 171.57 41.8257 172.247C41.0465 172.721 40.2382 172.327 39.1894 171.708L38.9292 171.558C38.1264 171.095 35.2535 169.073 32.9462 167.452C31.9455 166.748 31.0189 166.096 30.3446 165.627C29.8302 165.272 29.3469 164.921 28.8966 164.597C27.2933 163.441 26.136 162.604 25.2032 162.524C23.7888 162.4 22.7108 162.998 21.988 164.301C20.7812 166.491 23.4722 168.521 25.0746 169.733L25.5173 170.072C28.3101 172.23 34.6674 176.586 35.3571 176.975C35.9373 177.301 37.1946 178.195 38.116 178.846L38.8371 179.354C39.0594 179.509 39.8055 179.944 39.8055 179.944L39.8592 179.974L39.6128 180.487C38.4993 179.741 37.3724 178.996 36.6454 178.524C34.9066 177.402 33.3181 178.137 32.4253 179.49C31.43 180.986 32.5362 182.695 33.5192 183.394C34.0445 183.764 35.6424 184.653 37.226 185.466L36.9044 186.135C36.413 185.868 35.9274 185.615 35.4813 185.398C33.7742 184.56 32.5686 185.109 31.8068 186.39C30.9597 187.806 32.3277 189.573 33.2603 190.17C33.535 190.346 34.0285 190.616 34.6127 190.917C34.6127 190.917 38.6365 194.267 41.001 195.979L41.086 196.046C41.086 196.046 41.141 196.084 41.232 196.146C41.5922 196.403 41.9085 196.618 42.1488 196.76C42.6899 197.114 42.7526 197.188 43.0992 197.363C46.4926 199.085 50.4022 198.6 53.4381 196.399C53.8224 196.12 61.4201 191.724 61.2736 184.092C61.2523 182.925 60.9469 181.341 59.1885 178.575C58.5256 177.535 57.4803 176.144 56.5259 175.333C54.8569 173.922 52.8763 173.668 50.8683 173.97L49.0482 169.823C48.5825 168.796 47.9441 167.385 47.7339 166.753C47.484 166.005 44.4171 158.932 42.8297 155.776L42.5825 155.277C41.699 153.471 40.2185 150.444 37.8386 151.212Z" fill="#FAC036"/>
<path d="M44.4833 176.135C44.4833 176.135 47.8718 174.471 50.8677 173.971L50.3552 172.803C50.3552 172.803 47.7065 173.358 45.1504 174.566C44.2913 174.973 43.1082 175.414 42.3575 175.959C41.0814 176.884 40.047 178.042 39.5649 179.184L35.8566 177.255C35.8566 177.255 36.0948 177.577 36.0091 177.781C35.9019 178.038 35.5975 178.048 35.5975 178.048C35.5833 178.053 35.592 178.065 35.5926 178.079C35.9377 178.163 36.2901 178.301 36.6514 178.534C37.3064 178.957 38.2842 179.604 39.2855 180.271C39.2769 180.392 39.2579 180.511 39.2657 180.629C39.2657 180.629 39.3034 183.126 41.8159 183.893C41.8159 183.893 42.6349 184.22 44.2859 183.609C45.734 184.772 45.0183 186.231 45.0183 186.231C43.9962 188.246 41.5036 187.487 41.5036 187.487C41.0529 187.415 39.1935 186.5 38.4331 186.122L35.0451 184.299C35.0451 184.299 35.2617 184.623 35.1752 184.832C35.068 185.089 34.7636 185.099 34.7636 185.099C34.7576 185.103 34.7642 185.112 34.7603 185.12C34.9915 185.186 35.2305 185.269 35.4867 185.395C36.6793 185.978 38.1439 186.803 39.2745 187.459L39.2658 187.447L39.8119 187.77C41.8052 188.895 41.9167 189.479 41.9167 189.479C42.5415 190.858 41.1925 191.974 41.1925 191.974C39.9599 193.092 37.9449 192.304 37.9449 192.304C37.2687 192.047 34.613 190.913 34.613 190.913L36.8164 192.719C38.512 193.579 39.7041 193.498 39.7041 193.498C42.2333 193.409 43.0354 191.192 43.0354 191.192C43.3096 190.338 43.0357 189.657 43.0357 189.657C42.8827 189.25 42.6257 188.896 42.3183 188.592C44.8857 188.847 45.9667 186.913 45.9667 186.913C46.8123 185.173 45.832 183.757 45.2896 183.161C45.5147 183.048 45.7475 182.921 45.997 182.772C47.2331 182.031 48.0055 181.567 48.8674 181.258C48.8674 181.258 51.2281 180.394 52.3183 181.569C52.3183 181.569 52.7618 182.136 52.923 183.092C52.923 183.092 53.1609 183.799 53.6166 183.656C53.8515 183.582 54.2238 183.129 54.3084 182.664C54.3084 182.664 54.4471 182.161 54.0863 181.391C54.0863 181.391 53.6699 180.154 51.9305 179.802C51.9305 179.802 50.6986 179.5 49.4908 179.863C48.2047 180.25 47.7273 180.362 45.9028 181.429C45.9028 181.429 43.984 182.637 42.2951 182.652C42.2951 182.652 40.8455 182.599 40.6733 180.896C40.6621 180.899 40.3611 178.304 44.4833 176.135Z" fill="#E48C15"/>
<defs>
<linearGradient id="paint0_linear_296_1624" x1="122.357" y1="69.0215" x2="170.503" y2="229.087" gradientUnits="userSpaceOnUse">
<stop stop-color="#ED2579"/>
<stop offset="1" stop-color="#6000C1"/>
</linearGradient>
<clipPath id="clip0_296_1624">
<rect width="103" height="93.6562" fill="white" transform="translate(109 217)"/>
</clipPath>
<clipPath id="clip1_296_1624">
<rect width="131" height="148" fill="white"/>
</clipPath>
<clipPath id="clip2_296_1624">
<rect width="33" height="66" fill="white" transform="translate(68 212)"/>
</clipPath>
</defs>
</svg>
