<svg width="20" height="20" viewBox="0 0 20 20" fill="none" xmlns="http://www.w3.org/2000/svg">
<g clip-path="url(#clip0_276_1225)">
<path d="M15.261 0.814196L10 6.07516L4.73904 0.814196C3.65344 -0.271399 1.89979 -0.271399 0.814196 0.814196C-0.271399 1.89979 -0.271399 3.65344 0.814196 4.73904L6.07516 10L0.814196 15.261C-0.271399 16.3466 -0.271399 18.1002 0.814196 19.1858C1.89979 20.2714 3.65344 20.2714 4.73904 19.1858L10 13.9248L15.261 19.1858C16.3466 20.2714 18.1002 20.2714 19.1858 19.1858C20.2714 18.1002 20.2714 16.3466 19.1858 15.261L13.9248 10L19.1858 4.73904C20.2714 3.65344 20.2714 1.89979 19.1858 0.814196C18.1002 -0.243564 16.3187 -0.243564 15.261 0.814196Z" fill="#06093F"/>
</g>
<defs>
<clipPath id="clip0_276_1225">
<rect width="20" height="20" fill="white"/>
</clipPath>
</defs>
</svg>
