<svg width="23" height="23" viewBox="0 0 23 23" fill="none" xmlns="http://www.w3.org/2000/svg">
<path d="M17.261 2.8142L12 8.07516L6.73904 2.8142C5.65344 1.7286 3.89979 1.7286 2.8142 2.8142C1.7286 3.89979 1.7286 5.65344 2.8142 6.73904L8.07516 12L2.8142 17.261C1.7286 18.3466 1.7286 20.1002 2.8142 21.1858C3.89979 22.2714 5.65344 22.2714 6.73904 21.1858L12 15.9248L17.261 21.1858C18.3466 22.2714 20.1002 22.2714 21.1858 21.1858C22.2714 20.1002 22.2714 18.3466 21.1858 17.261L15.9248 12L21.1858 6.73904C22.2714 5.65344 22.2714 3.89979 21.1858 2.8142C20.1002 1.75644 18.3187 1.75644 17.261 2.8142Z" fill="#06093F"/>
</svg>
