<svg width="32" height="32" viewBox="0 0 32 32" fill="none" xmlns="http://www.w3.org/2000/svg">
<path d="M0.839942 17.5857C0.979932 17.2012 1.08492 16.7817 1.25991 16.3971C1.32991 16.2223 1.29491 16.0825 1.11992 15.9776C0.769946 15.7329 0.419971 15.4532 0 15.1385C0.454968 15.1385 0.839942 15.1036 1.18992 15.1385C1.5049 15.1735 1.67988 15.0686 1.74988 14.754C1.85487 14.3694 1.99486 14.0198 2.20485 13.6702C2.30984 14.0198 2.44983 14.3694 2.51982 14.719C2.58982 14.9987 2.69481 15.1735 3.04479 15.1385C3.42976 15.1036 3.81473 15.1385 4.19971 15.1385C4.19971 15.1735 4.23471 15.2085 4.23471 15.2434C3.98972 15.4182 3.74474 15.593 3.49976 15.7678C2.9048 16.1873 2.97479 15.9776 3.18478 16.7117C3.25477 17.0264 3.35977 17.3061 3.39476 17.6557C3.04479 17.4109 2.69481 17.1662 2.37983 16.8865C2.23984 16.7817 2.13485 16.7467 1.95986 16.8865C1.60989 17.1662 1.25991 17.4109 0.874939 17.6557C0.874939 17.6207 0.874939 17.6207 0.839942 17.5857Z" fill="white"/>
<path d="M7.76947 5.83614C7.90946 5.45158 8.01445 5.06702 8.15444 4.68246C8.22444 4.4727 8.18944 4.36782 8.01445 4.22798C7.66448 3.98326 7.3145 3.73854 6.89453 3.4239C7.3845 3.4239 7.76947 3.4239 8.15444 3.4239C8.43442 3.4239 8.57441 3.35398 8.64441 3.0743C8.7494 2.68974 8.88939 2.30517 9.09938 1.88565C9.23937 2.30517 9.37936 2.68974 9.48435 3.10926C9.55435 3.31902 9.65934 3.38894 9.86932 3.38894C10.2893 3.38894 10.7093 3.38894 11.1292 3.38894C11.1292 3.4239 11.1642 3.45886 11.1642 3.45886C10.8493 3.66862 10.5693 3.91334 10.2193 4.1231C9.97432 4.26294 9.93932 4.43774 10.0443 4.71742C10.1843 5.06702 10.2893 5.45158 10.3243 5.8711C10.0093 5.62638 9.65934 5.41662 9.34436 5.13694C9.16937 4.9971 9.02938 4.9971 8.85439 5.13694C8.50442 5.38166 8.15444 5.62638 7.80447 5.8711C7.80447 5.8711 7.76947 5.8711 7.76947 5.83614Z" fill="white"/>
<path d="M22.7485 1.99024C22.8884 2.40976 23.0284 2.79432 23.1334 3.21384C23.1684 3.38864 23.2734 3.45856 23.4834 3.45856C23.9034 3.45856 24.3583 3.45856 24.7783 3.45856C24.7783 3.49352 24.7783 3.52848 24.8133 3.52848C24.4633 3.77321 24.1484 4.01793 23.7984 4.22769C23.6234 4.33257 23.5884 4.47241 23.6584 4.68217C23.7984 5.10169 23.9384 5.52121 24.0784 6.01065C23.6934 5.73097 23.3784 5.52121 23.0984 5.27649C22.8534 5.06673 22.6785 5.03177 22.4335 5.27649C22.1535 5.52121 21.8035 5.73097 21.4185 5.90577C21.5585 5.52121 21.6635 5.13665 21.8385 4.75209C21.9085 4.54233 21.8735 4.43745 21.6985 4.29761C21.3485 4.05289 20.9986 3.80817 20.6836 3.49352C21.1036 3.49352 21.5235 3.49352 21.9085 3.49352C22.1185 3.49352 22.2235 3.4236 22.2935 3.21384C22.3985 2.79432 22.5735 2.40976 22.6785 1.99024C22.6785 1.99024 22.7135 1.99024 22.7485 1.99024Z" fill="white"/>
<path d="M26.3867 24.5431C26.5266 24.1585 26.6316 23.7739 26.7716 23.3894C26.8766 23.1447 26.8066 23.0398 26.5966 22.8999C26.2467 22.6552 25.8967 22.4105 25.5117 22.1308C25.9667 22.1308 26.3867 22.1308 26.7716 22.1308C27.0166 22.1308 27.1566 22.0609 27.2266 21.8162C27.3316 21.4316 27.4716 21.0471 27.6466 20.5576C27.7866 21.0471 27.9616 21.4316 28.0315 21.8162C28.1015 22.0609 28.2065 22.1308 28.4165 22.0959C28.8365 22.0609 29.2565 22.0959 29.6764 22.0959C29.6764 22.1308 29.7114 22.1658 29.7114 22.2007C29.4314 22.4105 29.1515 22.6552 28.8365 22.83C28.5215 23.0048 28.4865 23.2146 28.6265 23.5292C28.7665 23.8788 28.8715 24.2284 28.9065 24.6479C28.5915 24.4032 28.2765 24.1935 27.9965 23.9487C27.7516 23.739 27.5766 23.739 27.3666 23.9487C27.0516 24.1935 26.7366 24.4032 26.4217 24.6479C26.4217 24.578 26.4217 24.578 26.3867 24.5431Z" fill="white"/>
<path d="M7.63291 29.6105C7.7729 29.226 7.87789 28.8414 8.01788 28.4569C8.12288 28.2121 8.05288 28.1072 7.8429 27.9674C7.49292 27.7227 7.17794 27.478 6.79297 27.1983C7.28293 27.1983 7.7029 27.1983 8.08788 27.1983C8.29786 27.1983 8.43785 27.1284 8.50785 26.9186C8.61284 26.4991 8.78783 26.0796 8.96282 25.5901C9.10281 26.0446 9.2428 26.4292 9.34779 26.8137C9.41779 27.0584 9.52278 27.1983 9.80276 27.1633C10.1877 27.1284 10.6077 27.1633 10.9927 27.1633C10.9927 27.1983 11.0277 27.2332 11.0277 27.2682C10.6777 27.5129 10.3627 27.7576 10.0127 28.0024C9.83776 28.1072 9.83776 28.2121 9.87275 28.3869C10.0127 28.8065 10.1527 29.226 10.2227 29.6805C9.90775 29.4357 9.59277 29.226 9.31279 28.9813C9.10281 28.8065 8.92782 28.7715 8.71784 28.9813C8.40286 29.226 8.05288 29.4357 7.7379 29.6805C7.66791 29.6455 7.63291 29.6455 7.63291 29.6105Z" fill="white"/>
<path d="M23.8674 29.6824C23.5524 29.4377 23.2025 29.193 22.8875 28.9482C22.7125 28.8084 22.5725 28.7734 22.3975 28.9482C22.0475 29.2279 21.6976 29.4377 21.3126 29.6474C21.4526 29.2629 21.5576 28.8434 21.7326 28.4588C21.8026 28.284 21.7676 28.1442 21.5926 28.0393C21.2426 27.7946 20.8926 27.5149 20.4727 27.2352C20.9626 27.2352 21.3826 27.2352 21.7676 27.2352C22.0125 27.2352 22.1175 27.1653 22.1875 26.9555C22.3275 26.536 22.4675 26.1165 22.6425 25.627C22.7825 26.1165 22.9225 26.536 23.0625 26.9555C23.0975 27.1303 23.2025 27.2002 23.3775 27.2002C23.7974 27.2002 24.2524 27.2002 24.6724 27.2002C24.6724 27.2352 24.6724 27.2702 24.7074 27.3051C24.3574 27.5498 24.0424 27.7946 23.6924 28.0043C23.5174 28.1092 23.4824 28.2141 23.5524 28.4238C23.6924 28.8434 23.7974 29.2629 23.9374 29.6824C23.9024 29.6474 23.9024 29.6474 23.8674 29.6824Z" fill="white"/>
<path d="M30.6604 17.7264C30.3104 17.4817 29.9604 17.237 29.6455 16.9573C29.5055 16.8524 29.4005 16.8524 29.2605 16.9573C28.9105 17.237 28.5255 17.4817 28.1056 17.6915C28.2106 17.3419 28.3156 16.9923 28.4555 16.6427C28.5955 16.363 28.5605 16.1532 28.2456 15.9784C27.8956 15.7687 27.6156 15.489 27.2656 15.2442C27.7206 15.2442 28.1056 15.2442 28.5255 15.2442C28.8055 15.2442 28.9455 15.1743 29.0155 14.8946C29.1205 14.5101 29.2605 14.1255 29.4705 13.741C29.6105 14.1255 29.7505 14.5101 29.8204 14.8946C29.8904 15.1394 29.9954 15.2093 30.2404 15.2093C30.6604 15.2093 31.0804 15.2093 31.4653 15.2093C31.4653 15.2442 31.4653 15.2792 31.5003 15.3142C31.1854 15.5239 30.9054 15.7686 30.5904 15.9434C30.3454 16.0833 30.2754 16.2581 30.3804 16.5378C30.5204 16.8874 30.6254 17.2719 30.7304 17.6565C30.6954 17.6915 30.6604 17.6915 30.6604 17.7264Z" fill="white"/>
<path d="M15.85 0C15.99 0.454481 16.13 0.804082 16.2 1.15368C16.27 1.46832 16.41 1.60816 16.7949 1.5732C17.1799 1.53824 17.5649 1.5732 17.9849 1.60816C17.6349 1.85289 17.3199 2.09761 16.9349 2.34233C16.7599 2.44721 16.69 2.58705 16.7949 2.79681C16.9349 3.18137 17.0399 3.60089 17.1099 4.05537C16.7949 3.81065 16.445 3.60089 16.13 3.32121C15.955 3.14641 15.815 3.18137 15.64 3.32121C15.325 3.56593 14.9751 3.81065 14.5551 4.02041C14.6951 3.63585 14.8001 3.28625 14.9401 2.90169C15.0451 2.65697 15.0101 2.51713 14.7651 2.37729C14.4151 2.16753 14.1001 1.88785 13.7852 1.60816C14.1701 1.60816 14.5551 1.60816 14.9401 1.60816C15.2201 1.60816 15.36 1.5732 15.43 1.29352C15.535 0.874002 15.675 0.489441 15.85 0Z" fill="white"/>
<path d="M25.5117 8.42677C25.8967 8.42677 26.3167 8.42677 26.7016 8.42677C26.9466 8.42677 27.0516 8.35685 27.1216 8.14709C27.2266 7.72756 27.4016 7.343 27.5766 6.85356C27.7516 7.343 27.8566 7.76253 27.9965 8.14709C28.0665 8.35685 28.1365 8.42677 28.3465 8.42677C28.7665 8.42677 29.1865 8.42677 29.6414 8.42677C29.6414 8.46173 29.6764 8.49669 29.6764 8.49669C29.3615 8.70645 29.0815 8.95117 28.7665 9.12597C28.5215 9.26581 28.4165 9.44061 28.5565 9.72029C28.6965 10.0699 28.8015 10.4545 28.8715 10.874C28.5565 10.6293 28.2065 10.4195 27.9266 10.1748C27.7166 9.99997 27.5766 9.99997 27.3316 10.1748C27.0166 10.4195 26.6666 10.6293 26.2817 10.839C26.4217 10.4545 26.5266 10.0699 26.6666 9.72029C26.7716 9.47557 26.7016 9.33573 26.4917 9.19589C26.1417 8.98613 25.8617 8.74141 25.5117 8.49669C25.5117 8.46173 25.5117 8.42677 25.5117 8.42677Z" fill="white"/>
<path d="M2.69932 24.5422C2.83931 24.1577 2.9443 23.7731 3.08429 23.3886C3.18928 23.1788 3.11929 23.0389 2.9443 22.8991C2.59432 22.6544 2.24435 22.4097 1.85938 22.095C2.27935 22.095 2.62932 22.095 2.9793 22.095C3.60925 22.095 3.46926 22.13 3.64425 21.6056C3.78424 21.256 3.88923 20.9413 4.02922 20.4869C4.20421 20.9763 4.3442 21.3609 4.44919 21.7454C4.51919 21.9901 4.62418 22.0601 4.83417 22.0251C5.25414 22.0251 5.67411 22.0251 6.05908 22.0251C6.05908 22.0601 6.09408 22.095 6.09408 22.13C5.8141 22.3397 5.49912 22.5495 5.18414 22.7593C4.90416 22.9341 4.83417 23.0739 4.97416 23.3886C5.11415 23.7382 5.21914 24.1227 5.28914 24.5422C4.93916 24.2975 4.58919 24.0528 4.27421 23.8081C4.09922 23.6682 3.99423 23.7032 3.85424 23.8081C3.50426 24.0528 3.15429 24.2975 2.80431 24.5772C2.73431 24.5772 2.69932 24.5772 2.69932 24.5422Z" fill="white"/>
<path d="M2.66432 10.8032C2.80431 10.4536 2.9093 10.0691 3.04929 9.75442C3.15428 9.47474 3.15428 9.29994 2.8743 9.12514C2.55933 8.91538 2.24435 8.67066 1.85938 8.39098C2.31434 8.39098 2.66432 8.35602 3.01429 8.39098C3.36427 8.42594 3.53926 8.2861 3.64425 7.9365C3.74924 7.5869 3.88923 7.23729 4.02922 6.78281C4.20421 7.27225 4.3442 7.69178 4.44919 8.1113C4.51919 8.32106 4.58919 8.39098 4.79917 8.39098C5.21914 8.39098 5.63911 8.39098 6.05908 8.39098C6.05908 8.42594 6.09408 8.4609 6.09408 8.49586C5.74411 8.74058 5.42913 8.9853 5.07915 9.23002C4.90416 9.3349 4.90416 9.43978 4.93916 9.61458C5.07915 10.0341 5.21914 10.4536 5.28914 10.9081C4.97416 10.6634 4.62418 10.4536 4.3442 10.2089C4.13422 10.0341 3.99423 10.0341 3.78424 10.2089C3.46926 10.4536 3.11929 10.6983 2.76931 10.9431C2.73431 10.8032 2.69932 10.8032 2.66432 10.8032Z" fill="white"/>
<path d="M17.848 29.0878C17.498 29.3326 17.183 29.5773 16.8331 29.787C16.6581 29.8919 16.6231 29.9968 16.6931 30.2066C16.8331 30.6261 16.973 31.0456 17.043 31.5001C16.6931 31.2554 16.3431 30.9757 15.9931 30.731C15.8531 30.6261 15.7481 30.6261 15.6081 30.731C15.2582 31.0106 14.8732 31.2554 14.4532 31.4651C14.5932 31.1155 14.6982 30.731 14.8382 30.3814C14.9432 30.1366 14.9082 29.9618 14.6632 29.787C14.3132 29.5773 13.9983 29.2976 13.6133 29.0179C14.1032 29.0179 14.4882 29.0179 14.8732 29.0179C15.1182 29.0179 15.2582 28.948 15.3282 28.7033C15.4332 28.3187 15.6081 27.9342 15.7831 27.5496C15.9231 27.9342 16.0281 28.3187 16.1331 28.7382C16.2031 28.948 16.3081 29.0179 16.5181 29.0179C16.9381 29.0179 17.358 29.0179 17.778 29.0179C17.813 29.0179 17.848 29.0529 17.848 29.0878Z" fill="white"/>
</svg>
