<svg viewBox="0 0 666 171" fill="none" xmlns="http://www.w3.org/2000/svg">
<path d="M198.991 104.042L223.396 47.7344H241.712L205.884 121H193.858L198.991 104.042ZM193.304 47.7344L200.249 105.502L200.198 121H188.776L175.994 47.7344H193.304ZM234.768 94.6325L234.869 93.5757C235.305 89.6843 236.261 86.0278 237.737 82.606C239.213 79.1843 241.175 76.1819 243.624 73.5988C246.073 71.0157 248.958 69.0029 252.279 67.5604C255.6 66.1179 259.324 65.447 263.45 65.5476C267.409 65.6147 270.83 66.4031 273.715 67.9127C276.634 69.3887 279.016 71.4015 280.861 73.951C282.706 76.5006 284.014 79.4191 284.786 82.7067C285.557 85.9942 285.775 89.4831 285.44 93.1732L285.339 94.2802C284.903 98.1381 283.93 101.761 282.421 105.149C280.911 108.537 278.932 111.506 276.483 114.056C274.034 116.605 271.149 118.601 267.828 120.044C264.507 121.453 260.8 122.107 256.707 122.006C252.782 121.939 249.361 121.168 246.442 119.692C243.557 118.216 241.192 116.22 239.347 113.704C237.502 111.188 236.194 108.303 235.422 105.049C234.651 101.795 234.432 98.3226 234.768 94.6325ZM250.216 93.5757L250.115 94.6325C250.015 96.142 249.964 97.769 249.964 99.5135C249.998 101.224 250.233 102.868 250.669 104.445C251.139 106.021 251.91 107.313 252.984 108.319C254.091 109.292 255.634 109.812 257.613 109.879C259.76 109.946 261.572 109.51 263.048 108.571C264.524 107.632 265.731 106.374 266.671 104.797C267.643 103.187 268.382 101.459 268.885 99.6141C269.421 97.769 269.774 95.9743 269.941 94.2299L270.042 93.1732C270.176 91.6971 270.227 90.0869 270.193 88.3425C270.193 86.5645 269.958 84.8872 269.489 83.3105C269.052 81.7003 268.281 80.392 267.174 79.3856C266.067 78.3456 264.524 77.7921 262.544 77.725C260.397 77.6579 258.569 78.1108 257.06 79.0836C255.584 80.0565 254.376 81.348 253.437 82.9583C252.497 84.5685 251.776 86.3129 251.273 88.1915C250.77 90.0366 250.417 91.8313 250.216 93.5757ZM324.941 66.554L322.978 77.5741H291.629L293.541 66.554H324.941ZM303.052 53.0683H318.399L309.644 104.042C309.51 105.216 309.51 106.189 309.644 106.961C309.811 107.732 310.18 108.336 310.751 108.772C311.355 109.175 312.277 109.41 313.518 109.477C314.256 109.51 314.978 109.494 315.682 109.426C316.387 109.326 317.091 109.242 317.795 109.175L316.688 120.698C315.313 121.134 313.904 121.453 312.462 121.654C311.053 121.855 309.61 121.956 308.134 121.956C304.813 121.889 302.062 121.201 299.882 119.893C297.701 118.551 296.124 116.673 295.152 114.257C294.212 111.808 293.894 108.957 294.196 105.703L303.052 53.0683ZM348.943 122.006C345.186 121.939 341.781 121.235 338.729 119.893C335.709 118.551 333.16 116.706 331.08 114.358C329 111.976 327.474 109.208 326.501 106.055C325.528 102.902 325.176 99.4631 325.444 95.7395L325.645 93.777C326.048 89.8856 326.97 86.2291 328.413 82.8073C329.889 79.3856 331.851 76.3664 334.3 73.7498C336.749 71.0996 339.634 69.0532 342.955 67.6107C346.31 66.1347 350.05 65.447 354.177 65.5476C357.967 65.6147 361.221 66.3863 363.939 67.8623C366.69 69.3048 368.904 71.2673 370.581 73.7498C372.292 76.2322 373.466 79.0501 374.103 82.2035C374.741 85.3568 374.875 88.6947 374.506 92.2171L373.6 98.658H330.979L332.59 88.5438L359.812 88.5941L360.114 87.2354C360.349 85.5246 360.265 83.9647 359.863 82.5557C359.46 81.1132 358.705 79.9559 357.598 79.0836C356.491 78.2114 354.999 77.7418 353.12 77.6747C350.939 77.6411 349.111 78.1108 347.635 79.0836C346.159 80.0565 344.968 81.3648 344.062 83.0086C343.157 84.6188 342.452 86.38 341.949 88.2922C341.479 90.1708 341.127 91.9991 340.892 93.777L340.691 95.6892C340.557 97.4336 340.607 99.1277 340.842 100.771C341.11 102.415 341.614 103.908 342.352 105.25C343.123 106.558 344.163 107.632 345.471 108.47C346.813 109.275 348.474 109.712 350.453 109.779C353.036 109.846 355.435 109.343 357.649 108.269C359.896 107.196 361.909 105.753 363.687 103.942L370.329 112.345C368.786 114.626 366.84 116.488 364.492 117.93C362.144 119.339 359.611 120.379 356.894 121.05C354.21 121.721 351.56 122.04 348.943 122.006Z" fill="#3E3E3E"/>
<path d="M406.409 47.7344L393.678 121H377.726L390.407 47.7344H406.409ZM429.052 78.6308L426.838 91.3113H394.332L396.546 78.6308H429.052ZM437.506 47.7344L435.292 60.4653H399.666L401.93 47.7344H437.506ZM457.282 66.554L447.872 121H432.474L441.934 66.554H457.282ZM443.444 52.7161C443.377 50.2672 444.182 48.3215 445.859 46.879C447.57 45.403 449.6 44.6482 451.948 44.6146C454.196 44.5811 456.175 45.252 457.886 46.6274C459.597 47.9693 460.469 49.8143 460.502 52.1626C460.536 54.6115 459.697 56.5739 457.986 58.05C456.309 59.4925 454.313 60.2305 451.998 60.2641C449.751 60.2976 447.771 59.6435 446.061 58.3016C444.383 56.9597 443.511 55.0979 443.444 52.7161ZM480.982 79.0333L473.636 121H458.288L467.748 66.554H482.089L480.982 79.0333ZM476.806 91.8649L473.334 92.0158C473.669 88.7618 474.374 85.5413 475.447 82.3544C476.521 79.1675 477.997 76.2993 479.875 73.7498C481.788 71.1667 484.136 69.1371 486.92 67.6611C489.705 66.1515 492.975 65.4302 496.733 65.4973C499.752 65.598 502.234 66.2521 504.18 67.4598C506.159 68.6339 507.669 70.2106 508.709 72.1898C509.782 74.1355 510.47 76.3496 510.772 78.832C511.074 81.2809 511.074 83.8305 510.772 86.4807L505.035 121H489.587L495.424 86.3297C495.592 84.6859 495.542 83.2099 495.273 81.9016C495.005 80.5932 494.384 79.5868 493.411 78.8824C492.472 78.1443 491.063 77.7418 489.185 77.6747C487.172 77.6411 485.444 78.0437 484.002 78.8824C482.559 79.6875 481.351 80.7945 480.379 82.2035C479.406 83.5789 478.634 85.122 478.064 86.8329C477.527 88.5102 477.108 90.1875 476.806 91.8649ZM547.908 107.917L559.079 43.7089H574.527L561.091 121H547.304L547.908 107.917ZM517.414 94.8337L517.515 93.7267C517.917 90.4056 518.672 87.0509 519.779 83.6627C520.92 80.2745 522.463 77.1883 524.408 74.4039C526.354 71.6196 528.753 69.4055 531.604 67.7617C534.489 66.1179 537.911 65.3631 541.869 65.4973C545.258 65.6315 548.025 66.6211 550.172 68.4662C552.353 70.2777 554.047 72.5924 555.254 75.4103C556.462 78.1947 557.284 81.1635 557.72 84.3169C558.19 87.4367 558.374 90.3553 558.274 93.0725L558.072 94.9847C557.536 97.8697 556.647 100.922 555.405 104.143C554.198 107.33 552.604 110.299 550.625 113.049C548.646 115.8 546.297 118.014 543.58 119.692C540.863 121.369 537.777 122.157 534.321 122.057C530.665 121.956 527.662 121.067 525.314 119.39C522.966 117.712 521.154 115.532 519.88 112.848C518.638 110.131 517.833 107.212 517.464 104.093C517.129 100.939 517.112 97.8529 517.414 94.8337ZM532.912 93.6764L532.812 94.7331C532.678 96.075 532.594 97.5845 532.56 99.2619C532.527 100.939 532.661 102.566 532.963 104.143C533.298 105.72 533.936 107.045 534.875 108.118C535.848 109.192 537.257 109.779 539.102 109.879C541.651 109.946 543.782 109.343 545.492 108.068C547.203 106.793 548.545 105.149 549.518 103.136C550.524 101.09 551.179 98.9767 551.48 96.7962L552.185 91.4623C552.353 90.0198 552.386 88.5102 552.286 86.9335C552.218 85.3568 551.95 83.8976 551.48 82.5557C551.011 81.1803 550.239 80.0397 549.166 79.134C548.126 78.2282 546.666 77.7586 544.788 77.725C542.708 77.6579 540.947 78.1276 539.504 79.134C538.062 80.1404 536.888 81.4654 535.982 83.1092C535.11 84.753 534.439 86.5142 533.969 88.3928C533.499 90.2379 533.147 91.9991 532.912 93.6764ZM597.422 122.006C593.665 121.939 590.26 121.235 587.207 119.893C584.188 118.551 581.639 116.706 579.559 114.358C577.479 111.976 575.953 109.208 574.98 106.055C574.007 102.902 573.655 99.4631 573.923 95.7395L574.124 93.777C574.527 89.8856 575.449 86.2291 576.892 82.8073C578.368 79.3856 580.33 76.3664 582.779 73.7498C585.228 71.0996 588.113 69.0532 591.434 67.6107C594.789 66.1347 598.529 65.447 602.656 65.5476C606.446 65.6147 609.7 66.3863 612.418 67.8623C615.168 69.3048 617.383 71.2673 619.06 73.7498C620.771 76.2322 621.945 79.0501 622.582 82.2035C623.22 85.3568 623.354 88.6947 622.985 92.2171L622.079 98.658H579.458L581.068 88.5438L608.291 88.5941L608.593 87.2354C608.828 85.5246 608.744 83.9647 608.342 82.5557C607.939 81.1132 607.184 79.9559 606.077 79.0836C604.97 78.2114 603.477 77.7418 601.599 77.6747C599.418 77.6411 597.59 78.1108 596.114 79.0836C594.638 80.0565 593.447 81.3648 592.541 83.0086C591.636 84.6188 590.931 86.38 590.428 88.2922C589.958 90.1708 589.606 91.9991 589.371 93.777L589.17 95.6892C589.036 97.4336 589.086 99.1277 589.321 100.771C589.589 102.415 590.092 103.908 590.83 105.25C591.602 106.558 592.642 107.632 593.95 108.47C595.292 109.275 596.953 109.712 598.932 109.779C601.515 109.846 603.914 109.343 606.128 108.269C608.375 107.196 610.388 105.753 612.166 103.942L618.808 112.345C617.265 114.626 615.319 116.488 612.971 117.93C610.623 119.339 608.09 120.379 605.373 121.05C602.689 121.721 600.039 122.04 597.422 122.006ZM647.893 80.09L640.798 121H625.45L634.911 66.554H649.252L647.893 80.09ZM665.656 66.1012L663.744 80.7442C662.872 80.61 662.016 80.4926 661.177 80.392C660.339 80.2913 659.483 80.241 658.611 80.241C656.699 80.2075 654.971 80.4423 653.428 80.9455C651.919 81.4151 650.594 82.1364 649.453 83.1092C648.346 84.0821 647.423 85.2898 646.685 86.7323C645.947 88.1412 645.394 89.7514 645.025 91.5629L642.207 90.154C642.576 87.5709 643.146 84.8536 643.918 82.0022C644.689 79.1172 645.763 76.4167 647.138 73.9007C648.547 71.3512 650.342 69.3048 652.522 67.7617C654.737 66.185 657.454 65.3967 660.674 65.3967C661.513 65.3967 662.335 65.4638 663.14 65.598C663.979 65.7321 664.817 65.8999 665.656 66.1012Z" fill="#0052B4"/>
<path d="M69.2609 155.522C107.513 155.522 138.522 124.513 138.522 86.2609C138.522 48.0092 107.513 17 69.2609 17C31.0092 17 0 48.0092 0 86.2609C0 124.513 31.0092 155.522 69.2609 155.522Z" fill="#ED2939"/>
<path d="M69.5 134C95.7335 134 117 112.734 117 86.5C117 60.2665 95.7335 39 69.5 39C43.2665 39 22 60.2665 22 86.5C22 112.734 43.2665 134 69.5 134Z" fill="white"/>
<path d="M69 117C77.2217 117 85.1067 113.734 90.9203 107.92C96.7339 102.107 100 94.2217 100 86C100 77.7783 96.7339 69.8933 90.9203 64.0797C85.1067 58.2661 77.2217 55 69 55C60.7783 55 52.8933 58.2661 47.0797 64.0797C41.2661 69.8933 38 77.7783 38 86C38 94.2217 41.2661 102.107 47.0797 107.92C52.8933 113.734 60.7783 117 69 117ZM82.6836 80.3086L67.1836 95.8086C66.0453 96.9469 64.2047 96.9469 63.0785 95.8086L55.3285 88.0586C54.1902 86.9203 54.1902 85.0797 55.3285 83.9535C56.4668 82.8273 58.3074 82.8152 59.4336 83.9535L65.125 89.6449L78.5664 76.1914C79.7047 75.0531 81.5453 75.0531 82.6715 76.1914C83.7977 77.3297 83.8098 79.1703 82.6715 80.2965L82.6836 80.3086Z" fill="#0052B4"/>
<path d="M69 110C75.6304 110 81.9893 107.366 86.6777 102.678C91.3661 97.9893 94 91.6304 94 85C94 78.3696 91.3661 72.0107 86.6777 67.3223C81.9893 62.6339 75.6304 60 69 60C62.3696 60 56.0107 62.6339 51.3223 67.3223C46.6339 72.0107 44 78.3696 44 85C44 91.6304 46.6339 97.9893 51.3223 102.678C56.0107 107.366 62.3696 110 69 110ZM80.0352 80.4102L67.5352 92.9102C66.6172 93.8281 65.1328 93.8281 64.2246 92.9102L57.9746 86.6602C57.0566 85.7422 57.0566 84.2578 57.9746 83.3496C58.8926 82.4414 60.377 82.4316 61.2852 83.3496L65.875 87.9395L76.7148 77.0898C77.6328 76.1719 79.1172 76.1719 80.0254 77.0898C80.9336 78.0078 80.9434 79.4922 80.0254 80.4004L80.0352 80.4102Z" fill="white"/>
<path d="M69.1595 31L72.0232 39.8131H81.2893L73.7925 45.2598L76.6563 54.0729L69.1595 48.6259L61.6623 54.0729L64.5261 45.2598L57.0293 39.8131H66.2957L69.1595 31Z" fill="#FFDA44"/>
<path d="M31.0929 46.7695L39.3501 50.9762L45.9023 44.4243L44.4523 53.5764L52.7092 57.7834L43.5568 59.2331L42.1071 68.3858L37.9001 60.1289L28.748 61.5789L35.3003 55.0267L31.0929 46.7695Z" fill="#FFDA44"/>
<path d="M15.3223 84.8367L24.1354 81.9729V72.7065L29.5817 80.2037L38.3951 77.3399L32.9478 84.8367L38.3951 92.3335L29.5817 89.4701L24.1354 96.9669V87.7005L15.3223 84.8367Z" fill="#FFDA44"/>
<path d="M31.0929 122.904L35.2999 114.647L28.748 108.095L37.9004 109.545L42.1068 101.288L43.5568 110.44L52.7088 111.89L44.453 116.097L45.9023 125.249L39.3501 118.697L31.0929 122.904Z" fill="#FFDA44"/>
<path d="M69.1595 138.672L66.2953 129.859H57.0293L64.5264 124.413L61.6623 115.6L69.1595 121.046L76.6563 115.6L73.7925 124.413L81.2893 129.859H72.0229L69.1595 138.672Z" fill="#FFDA44"/>
<path d="M107.227 122.904L98.97 118.697L92.4175 125.25L93.8675 116.097L85.6113 111.89L94.7634 110.44L96.213 101.288L100.42 109.545L109.572 108.095L103.02 114.648L107.227 122.904Z" fill="#FFDA44"/>
<path d="M123 84.8367L114.187 87.7005V96.9669L108.74 89.4697L99.9277 92.3335L105.374 84.8367L99.9277 77.3399L108.74 80.2037L114.187 72.7065V81.9733L123 84.8367Z" fill="#FFDA44"/>
<path d="M107.227 46.7692L103.02 55.0264L109.572 61.5786L100.419 60.1282L96.213 68.3851L94.7634 59.2327L85.6113 57.7827L93.8675 53.576L92.4175 44.4243L98.9704 50.9762L107.227 46.7692Z" fill="#FFDA44"/>
<path d="M69.2609 155.522C107.513 155.522 138.522 124.513 138.522 86.2609C138.522 48.0092 107.513 17 69.2609 17C31.0092 17 0 48.0092 0 86.2609C0 124.513 31.0092 155.522 69.2609 155.522Z" fill="#ED2939"/>
<path d="M69.5 134C95.7335 134 117 112.734 117 86.5C117 60.2665 95.7335 39 69.5 39C43.2665 39 22 60.2665 22 86.5C22 112.734 43.2665 134 69.5 134Z" fill="white"/>
<path d="M69 117C77.2217 117 85.1067 113.734 90.9203 107.92C96.7339 102.107 100 94.2217 100 86C100 77.7783 96.7339 69.8933 90.9203 64.0797C85.1067 58.2661 77.2217 55 69 55C60.7783 55 52.8933 58.2661 47.0797 64.0797C41.2661 69.8933 38 77.7783 38 86C38 94.2217 41.2661 102.107 47.0797 107.92C52.8933 113.734 60.7783 117 69 117ZM82.6836 80.3086L67.1836 95.8086C66.0453 96.9469 64.2047 96.9469 63.0785 95.8086L55.3285 88.0586C54.1902 86.9203 54.1902 85.0797 55.3285 83.9535C56.4668 82.8273 58.3074 82.8152 59.4336 83.9535L65.125 89.6449L78.5664 76.1914C79.7047 75.0531 81.5453 75.0531 82.6715 76.1914C83.7977 77.3297 83.8098 79.1703 82.6715 80.2965L82.6836 80.3086Z" fill="#0052B4"/>
</svg>
