<svg viewBox="0 0 1216 171" fill="none" xmlns="http://www.w3.org/2000/svg">
<path d="M69.2609 155.522C107.513 155.522 138.522 124.513 138.522 86.2609C138.522 48.0092 107.513 17 69.2609 17C31.0092 17 0 48.0092 0 86.2609C0 124.513 31.0092 155.522 69.2609 155.522Z" fill="#ED2939"/>
<path d="M69.5 134C95.7335 134 117 112.734 117 86.5C117 60.2665 95.7335 39 69.5 39C43.2665 39 22 60.2665 22 86.5C22 112.734 43.2665 134 69.5 134Z" fill="white"/>
<path d="M69 117C77.2217 117 85.1067 113.734 90.9203 107.92C96.7339 102.107 100 94.2217 100 86C100 77.7783 96.7339 69.8933 90.9203 64.0797C85.1067 58.2661 77.2217 55 69 55C60.7783 55 52.8933 58.2661 47.0797 64.0797C41.2661 69.8933 38 77.7783 38 86C38 94.2217 41.2661 102.107 47.0797 107.92C52.8933 113.734 60.7783 117 69 117ZM82.6836 80.3086L67.1836 95.8086C66.0453 96.9469 64.2047 96.9469 63.0785 95.8086L55.3285 88.0586C54.1902 86.9203 54.1902 85.0797 55.3285 83.9535C56.4668 82.8273 58.3074 82.8152 59.4336 83.9535L65.125 89.6449L78.5664 76.1914C79.7047 75.0531 81.5453 75.0531 82.6715 76.1914C83.7977 77.3297 83.8098 79.1703 82.6715 80.2965L82.6836 80.3086Z" fill="#0052B4"/>
<path d="M199.266 104.042L223.671 47.7344H241.987L206.16 121H194.133L199.266 104.042ZM193.58 47.7344L200.524 105.502L200.474 121H189.051L176.27 47.7344H193.58ZM235.043 94.6325L235.144 93.5757C235.58 89.6843 236.536 86.0278 238.012 82.606C239.488 79.1843 241.451 76.1819 243.899 73.5988C246.348 71.0157 249.233 69.0029 252.554 67.5604C255.876 66.1179 259.599 65.447 263.725 65.5476C267.684 65.6147 271.106 66.4031 273.991 67.9127C276.909 69.3887 279.291 71.4015 281.136 73.951C282.981 76.5006 284.289 79.4191 285.061 82.7067C285.833 85.9942 286.051 89.4831 285.715 93.1732L285.615 94.2802C285.178 98.1381 284.206 101.761 282.696 105.149C281.186 108.537 279.207 111.506 276.758 114.056C274.309 116.605 271.424 118.601 268.103 120.044C264.782 121.453 261.075 122.107 256.983 122.006C253.058 121.939 249.636 121.168 246.717 119.692C243.832 118.216 241.467 116.22 239.622 113.704C237.777 111.188 236.469 108.303 235.697 105.049C234.926 101.795 234.708 98.3226 235.043 94.6325ZM250.491 93.5757L250.391 94.6325C250.29 96.142 250.24 97.769 250.24 99.5135C250.273 101.224 250.508 102.868 250.944 104.445C251.414 106.021 252.185 107.313 253.259 108.319C254.366 109.292 255.909 109.812 257.888 109.879C260.035 109.946 261.847 109.51 263.323 108.571C264.799 107.632 266.007 106.374 266.946 104.797C267.919 103.187 268.657 101.459 269.16 99.6141C269.697 97.769 270.049 95.9743 270.217 94.2299L270.317 93.1732C270.452 91.6971 270.502 90.0869 270.468 88.3425C270.468 86.5645 270.233 84.8872 269.764 83.3105C269.328 81.7003 268.556 80.392 267.449 79.3856C266.342 78.3456 264.799 77.7921 262.82 77.725C260.673 77.6579 258.844 78.1108 257.335 79.0836C255.859 80.0565 254.651 81.348 253.712 82.9583C252.773 84.5685 252.051 86.3129 251.548 88.1915C251.045 90.0366 250.693 91.8313 250.491 93.5757ZM325.216 66.554L323.254 77.5741H291.904L293.817 66.554H325.216ZM303.327 53.0683H318.675L309.919 104.042C309.785 105.216 309.785 106.189 309.919 106.961C310.087 107.732 310.456 108.336 311.026 108.772C311.63 109.175 312.552 109.41 313.794 109.477C314.532 109.51 315.253 109.494 315.957 109.426C316.662 109.326 317.366 109.242 318.071 109.175L316.964 120.698C315.588 121.134 314.179 121.453 312.737 121.654C311.328 121.855 309.885 121.956 308.409 121.956C305.088 121.889 302.337 121.201 300.157 119.893C297.976 118.551 296.4 116.673 295.427 114.257C294.488 111.808 294.169 108.957 294.471 105.703L303.327 53.0683ZM349.219 122.006C345.461 121.939 342.057 121.235 339.004 119.893C335.985 118.551 333.435 116.706 331.355 114.358C329.275 111.976 327.749 109.208 326.776 106.055C325.803 102.902 325.451 99.4631 325.719 95.7395L325.921 93.777C326.323 89.8856 327.246 86.2291 328.688 82.8073C330.164 79.3856 332.127 76.3664 334.576 73.7498C337.025 71.0996 339.91 69.0532 343.231 67.6107C346.585 66.1347 350.326 65.447 354.452 65.5476C358.243 65.6147 361.497 66.3863 364.214 67.8623C366.965 69.3048 369.179 71.2673 370.856 73.7498C372.567 76.2322 373.741 79.0501 374.379 82.2035C375.016 85.3568 375.15 88.6947 374.781 92.2171L373.875 98.658H331.255L332.865 88.5438L360.088 88.5941L360.39 87.2354C360.625 85.5246 360.541 83.9647 360.138 82.5557C359.736 81.1132 358.981 79.9559 357.874 79.0836C356.767 78.2114 355.274 77.7418 353.395 77.6747C351.215 77.6411 349.386 78.1108 347.91 79.0836C346.434 80.0565 345.243 81.3648 344.338 83.0086C343.432 84.6188 342.727 86.38 342.224 88.2922C341.755 90.1708 341.402 91.9991 341.168 93.777L340.966 95.6892C340.832 97.4336 340.882 99.1277 341.117 100.771C341.386 102.415 341.889 103.908 342.627 105.25C343.398 106.558 344.438 107.632 345.747 108.47C347.088 109.275 348.749 109.712 350.728 109.779C353.311 109.846 355.71 109.343 357.924 108.269C360.172 107.196 362.184 105.753 363.962 103.942L370.605 112.345C369.061 114.626 367.116 116.488 364.767 117.93C362.419 119.339 359.886 120.379 357.169 121.05C354.485 121.721 351.835 122.04 349.219 122.006Z" fill="#3E3E3E"/>
<path d="M406.684 47.7344L393.953 121H378.002L390.682 47.7344H406.684ZM429.328 78.6308L427.114 91.3113H394.607L396.821 78.6308H429.328ZM437.781 47.7344L435.567 60.4653H399.941L402.205 47.7344H437.781ZM457.557 66.554L448.147 121H432.749L442.21 66.554H457.557ZM443.719 52.7161C443.652 50.2672 444.457 48.3215 446.135 46.879C447.845 45.403 449.875 44.6482 452.223 44.6146C454.471 44.5811 456.45 45.252 458.161 46.6274C459.872 47.9693 460.744 49.8143 460.778 52.1626C460.811 54.6115 459.972 56.5739 458.262 58.05C456.584 59.4925 454.588 60.2305 452.274 60.2641C450.026 60.2976 448.047 59.6435 446.336 58.3016C444.658 56.9597 443.786 55.0979 443.719 52.7161ZM481.258 79.0333L473.911 121H458.564L468.024 66.554H482.365L481.258 79.0333ZM477.081 91.8649L473.609 92.0158C473.945 88.7618 474.649 85.5413 475.723 82.3544C476.796 79.1675 478.272 76.2993 480.151 73.7498C482.063 71.1667 484.411 69.1371 487.195 67.6611C489.98 66.1515 493.251 65.4302 497.008 65.4973C500.027 65.598 502.509 66.2521 504.455 67.4598C506.434 68.6339 507.944 70.2106 508.984 72.1898C510.057 74.1355 510.745 76.3496 511.047 78.832C511.349 81.2809 511.349 83.8305 511.047 86.4807L505.311 121H489.862L495.699 86.3297C495.867 84.6859 495.817 83.2099 495.549 81.9016C495.28 80.5932 494.66 79.5868 493.687 78.8824C492.747 78.1443 491.338 77.7418 489.46 77.6747C487.447 77.6411 485.719 78.0437 484.277 78.8824C482.834 79.6875 481.627 80.7945 480.654 82.2035C479.681 83.5789 478.909 85.122 478.339 86.8329C477.802 88.5102 477.383 90.1875 477.081 91.8649ZM548.183 107.917L559.354 43.7089H574.802L561.367 121H547.579L548.183 107.917ZM517.689 94.8337L517.79 93.7267C518.192 90.4056 518.947 87.0509 520.054 83.6627C521.195 80.2745 522.738 77.1883 524.684 74.4039C526.629 71.6196 529.028 69.4055 531.879 67.7617C534.764 66.1179 538.186 65.3631 542.145 65.4973C545.533 65.6315 548.3 66.6211 550.447 68.4662C552.628 70.2777 554.322 72.5924 555.53 75.4103C556.737 78.1947 557.559 81.1635 557.995 84.3169C558.465 87.4367 558.649 90.3553 558.549 93.0725L558.348 94.9847C557.811 97.8697 556.922 100.922 555.681 104.143C554.473 107.33 552.879 110.299 550.9 113.049C548.921 115.8 546.573 118.014 543.855 119.692C541.138 121.369 538.052 122.157 534.597 122.057C530.94 121.956 527.938 121.067 525.589 119.39C523.241 117.712 521.43 115.532 520.155 112.848C518.914 110.131 518.109 107.212 517.74 104.093C517.404 100.939 517.387 97.8529 517.689 94.8337ZM533.188 93.6764L533.087 94.7331C532.953 96.075 532.869 97.5845 532.835 99.2619C532.802 100.939 532.936 102.566 533.238 104.143C533.573 105.72 534.211 107.045 535.15 108.118C536.123 109.192 537.532 109.779 539.377 109.879C541.927 109.946 544.057 109.343 545.768 108.068C547.479 106.793 548.82 105.149 549.793 103.136C550.8 101.09 551.454 98.9767 551.756 96.7962L552.46 91.4623C552.628 90.0198 552.661 88.5102 552.561 86.9335C552.494 85.3568 552.225 83.8976 551.756 82.5557C551.286 81.1803 550.514 80.0397 549.441 79.134C548.401 78.2282 546.942 77.7586 545.063 77.725C542.983 77.6579 541.222 78.1276 539.78 79.134C538.337 80.1404 537.163 81.4654 536.257 83.1092C535.385 84.753 534.714 86.5142 534.244 88.3928C533.775 90.2379 533.423 91.9991 533.188 93.6764ZM597.698 122.006C593.94 121.939 590.535 121.235 587.483 119.893C584.464 118.551 581.914 116.706 579.834 114.358C577.754 111.976 576.228 109.208 575.255 106.055C574.282 102.902 573.93 99.4631 574.198 95.7395L574.4 93.777C574.802 89.8856 575.725 86.2291 577.167 82.8073C578.643 79.3856 580.606 76.3664 583.055 73.7498C585.503 71.0996 588.388 69.0532 591.71 67.6107C595.064 66.1347 598.805 65.447 602.931 65.5476C606.722 65.6147 609.976 66.3863 612.693 67.8623C615.444 69.3048 617.658 71.2673 619.335 73.7498C621.046 76.2322 622.22 79.0501 622.857 82.2035C623.495 85.3568 623.629 88.6947 623.26 92.2171L622.354 98.658H579.733L581.344 88.5438L608.567 88.5941L608.869 87.2354C609.103 85.5246 609.02 83.9647 608.617 82.5557C608.214 81.1132 607.46 79.9559 606.353 79.0836C605.246 78.2114 603.753 77.7418 601.874 77.6747C599.694 77.6411 597.865 78.1108 596.389 79.0836C594.913 80.0565 593.722 81.3648 592.817 83.0086C591.911 84.6188 591.206 86.38 590.703 88.2922C590.234 90.1708 589.881 91.9991 589.646 93.777L589.445 95.6892C589.311 97.4336 589.361 99.1277 589.596 100.771C589.865 102.415 590.368 103.908 591.106 105.25C591.877 106.558 592.917 107.632 594.226 108.47C595.567 109.275 597.228 109.712 599.207 109.779C601.79 109.846 604.189 109.343 606.403 108.269C608.651 107.196 610.663 105.753 612.441 103.942L619.084 112.345C617.54 114.626 615.595 116.488 613.246 117.93C610.898 119.339 608.365 120.379 605.648 121.05C602.964 121.721 600.314 122.04 597.698 122.006ZM648.168 80.09L641.073 121H625.726L635.186 66.554H649.527L648.168 80.09ZM665.931 66.1012L664.019 80.7442C663.147 80.61 662.291 80.4926 661.453 80.392C660.614 80.2913 659.759 80.241 658.886 80.241C656.974 80.2075 655.247 80.4423 653.704 80.9455C652.194 81.4151 650.869 82.1364 649.728 83.1092C648.621 84.0821 647.699 85.2898 646.961 86.7323C646.223 88.1412 645.669 89.7514 645.3 91.5629L642.482 90.154C642.851 87.5709 643.421 84.8536 644.193 82.0022C644.965 79.1172 646.038 76.4167 647.414 73.9007C648.822 71.3512 650.617 69.3048 652.798 67.7617C655.012 66.185 657.729 65.3967 660.95 65.3967C661.788 65.3967 662.61 65.4638 663.415 65.598C664.254 65.7321 665.093 65.8999 665.931 66.1012Z" fill="#0052B4"/>
<path d="M736.027 113.1L734.618 121H699.042L700.4 113.1H736.027ZM713.685 47.7344L700.954 121H691.443L704.174 47.7344H713.685ZM766.973 122.006C763.25 121.939 760.012 121.201 757.262 119.792C754.544 118.35 752.313 116.421 750.569 114.006C748.858 111.557 747.634 108.772 746.896 105.652C746.158 102.533 745.94 99.2619 746.242 95.8401L746.443 93.6764C746.778 90.1875 747.634 86.7658 749.009 83.4111C750.385 80.023 752.213 76.9702 754.494 74.253C756.809 71.5357 759.526 69.3887 762.646 67.812C765.799 66.2018 769.288 65.447 773.112 65.5476C776.903 65.6147 780.056 66.4198 782.572 67.963C785.088 69.5061 787.051 71.5525 788.46 74.102C789.902 76.618 790.842 79.4527 791.278 82.606C791.714 85.7259 791.747 88.9295 791.378 92.2171L790.825 96.3936H751.324L752.531 88.7954L782.673 88.8457L782.824 88.0406C783.159 85.6252 783.025 83.2937 782.421 81.0461C781.818 78.7985 780.711 76.9534 779.1 75.5109C777.524 74.0349 775.393 73.2633 772.71 73.1962C769.925 73.0956 767.51 73.6659 765.464 74.9071C763.417 76.1148 761.706 77.7586 760.331 79.8384C758.956 81.8848 757.865 84.1324 757.06 86.5813C756.289 88.9966 755.752 91.3617 755.45 93.6764L755.249 95.7898C755.047 97.9368 755.115 100.101 755.45 102.281C755.786 104.462 756.423 106.458 757.362 108.269C758.335 110.047 759.677 111.506 761.388 112.647C763.099 113.754 765.212 114.341 767.728 114.408C770.781 114.475 773.515 113.821 775.93 112.446C778.379 111.037 780.61 109.259 782.623 107.112L787.806 111.54C786.229 113.855 784.35 115.8 782.17 117.377C779.989 118.954 777.608 120.128 775.024 120.899C772.441 121.671 769.758 122.04 766.973 122.006ZM769.64 58.5029L781.465 43.7089H793.039L777.641 58.5029H769.64ZM840.591 66.554H848.944L839.836 119.792C839.199 124.321 837.74 128.313 835.458 131.768C833.211 135.224 830.259 137.907 826.602 139.82C822.979 141.732 818.836 142.637 814.173 142.537C811.724 142.47 809.326 142.05 806.977 141.279C804.629 140.507 802.465 139.417 800.486 138.008C798.507 136.599 796.846 134.871 795.505 132.825L800.738 127.391C802.314 129.638 804.176 131.416 806.323 132.725C808.504 134.066 810.986 134.788 813.771 134.888C816.823 134.955 819.524 134.385 821.872 133.177C824.254 132.003 826.183 130.309 827.659 128.095C829.168 125.881 830.158 123.281 830.628 120.296L837.773 78.0773L840.591 66.554ZM799.48 94.7834L799.631 93.6764C800.033 90.3217 800.822 86.9671 801.996 83.6124C803.203 80.2578 804.814 77.205 806.826 74.4542C808.839 71.6699 811.305 69.4726 814.223 67.8623C817.142 66.2186 820.547 65.4302 824.438 65.4973C827.961 65.598 830.896 66.4198 833.244 67.963C835.593 69.5061 837.438 71.5525 838.78 74.102C840.155 76.618 841.077 79.3856 841.547 82.4048C842.05 85.4239 842.201 88.4599 842 91.5126L841.446 96.142C840.876 99.3961 839.937 102.583 838.629 105.703C837.32 108.823 835.626 111.641 833.546 114.157C831.466 116.639 828.984 118.601 826.099 120.044C823.247 121.486 819.993 122.157 816.337 122.057C812.747 121.923 809.779 121 807.43 119.289C805.116 117.578 803.321 115.381 802.046 112.697C800.771 109.98 799.949 107.061 799.58 103.942C799.211 100.788 799.178 97.7355 799.48 94.7834ZM808.789 93.6261L808.638 94.7331C808.403 96.7459 808.336 98.8593 808.437 101.073C808.537 103.287 808.923 105.384 809.594 107.363C810.265 109.309 811.338 110.919 812.815 112.194C814.324 113.435 816.37 114.089 818.954 114.157C821.704 114.257 824.254 113.653 826.602 112.345C828.95 111.037 830.963 109.292 832.641 107.112C834.318 104.931 835.526 102.566 836.264 100.017L838.226 87.789C838.327 85.9439 838.109 84.1659 837.572 82.4551C837.035 80.7442 836.23 79.2178 835.156 77.876C834.117 76.5341 832.842 75.4606 831.332 74.6555C829.823 73.8504 828.112 73.4311 826.2 73.3975C823.382 73.2969 820.95 73.8504 818.903 75.0581C816.857 76.2322 815.129 77.8257 813.72 79.8384C812.345 81.8512 811.255 84.0653 810.45 86.4807C809.644 88.896 809.091 91.2778 808.789 93.6261ZM872.443 66.554L862.983 121H853.875L863.336 66.554H872.443ZM865.147 52.2632C865.147 50.6865 865.634 49.3782 866.606 48.3383C867.613 47.2648 868.904 46.7113 870.481 46.6777C872.058 46.6442 873.349 47.1306 874.356 48.137C875.396 49.1434 875.899 50.4182 875.865 51.9613C875.865 53.5044 875.345 54.796 874.305 55.8359C873.299 56.8423 872.024 57.3623 870.481 57.3958C868.938 57.4294 867.663 56.9765 866.657 56.0372C865.65 55.0644 865.147 53.8064 865.147 52.2632ZM911.089 106.256C911.391 104.176 911.005 102.549 909.932 101.375C908.892 100.201 907.516 99.3122 905.805 98.7084C904.128 98.071 902.484 97.551 900.874 97.1484C898.861 96.6452 896.832 96.0246 894.785 95.2866C892.739 94.5486 890.86 93.6093 889.15 92.4687C887.472 91.2946 886.13 89.8521 885.124 88.1412C884.151 86.3968 883.715 84.2834 883.816 81.8009C883.95 79.1172 884.654 76.7522 885.929 74.7058C887.237 72.6595 888.915 70.9486 890.961 69.5732C893.041 68.1978 895.305 67.1746 897.754 66.5037C900.203 65.8328 902.635 65.5141 905.051 65.5476C908.472 65.6147 911.575 66.3192 914.36 67.6611C917.178 69.0029 919.409 70.9318 921.052 73.4478C922.696 75.9638 923.468 79.0166 923.367 82.606L914.36 82.5557C914.427 80.6436 914.041 78.9998 913.202 77.6244C912.364 76.249 911.206 75.1923 909.73 74.4542C908.254 73.6827 906.577 73.2801 904.698 73.2466C902.92 73.213 901.176 73.4982 899.465 74.102C897.754 74.6723 896.295 75.578 895.087 76.8193C893.88 78.0269 893.142 79.6036 892.873 81.5493C892.672 82.9918 892.89 84.1827 893.527 85.122C894.165 86.0278 895.037 86.7658 896.144 87.3361C897.285 87.8728 898.476 88.3257 899.717 88.6947C900.992 89.0302 902.149 89.3321 903.189 89.6005C905.94 90.372 908.657 91.3449 911.341 92.519C914.024 93.6931 916.205 95.3202 917.882 97.4C919.559 99.4464 920.314 102.147 920.147 105.502C920.012 108.353 919.258 110.835 917.882 112.949C916.54 115.029 914.796 116.756 912.649 118.132C910.535 119.474 908.204 120.463 905.654 121.101C903.105 121.738 900.555 122.04 898.006 122.006C894.483 121.939 891.196 121.218 888.143 119.843C885.124 118.434 882.709 116.421 880.897 113.804C879.086 111.154 878.23 107.934 878.331 104.143L887.439 104.193C887.439 106.374 887.892 108.219 888.797 109.728C889.737 111.204 891.028 112.328 892.672 113.1C894.316 113.871 896.194 114.274 898.308 114.307C900.086 114.341 901.897 114.106 903.742 113.603C905.621 113.1 907.231 112.261 908.573 111.087C909.948 109.879 910.787 108.269 911.089 106.256ZM952.402 43.7089L938.966 121H929.858L943.243 43.7089H952.402ZM986.367 111.691L990.896 83.5621C991.131 81.4822 990.93 79.6539 990.292 78.0773C989.688 76.5006 988.665 75.2761 987.223 74.4039C985.814 73.5317 984.036 73.0621 981.889 72.995C980.01 72.9614 978.165 73.2633 976.354 73.9007C974.576 74.5381 973.033 75.4942 971.724 76.7689C970.416 78.0437 969.561 79.6539 969.158 81.5996L960.1 81.65C960.335 78.9327 961.191 76.5677 962.667 74.5549C964.143 72.5085 965.988 70.8144 968.202 69.4726C970.416 68.0972 972.798 67.0908 975.347 66.4534C977.897 65.7825 980.379 65.4638 982.795 65.4973C986.451 65.5644 989.621 66.3528 992.305 67.8623C995.022 69.3384 997.069 71.4183 998.444 74.102C999.82 76.7857 1000.32 80.0062 999.954 83.7634L995.777 109.125C995.475 110.97 995.291 112.831 995.224 114.71C995.19 116.555 995.408 118.367 995.878 120.145L995.777 121L986.569 121.05C986.2 119.507 986.015 117.947 986.015 116.371C986.049 114.794 986.166 113.234 986.367 111.691ZM991.953 87.9902L990.896 94.5318L982.291 94.4815C980.48 94.4815 978.568 94.6157 976.555 94.884C974.542 95.1524 972.63 95.6556 970.819 96.3936C969.007 97.1317 967.481 98.2052 966.239 99.6141C964.998 100.99 964.243 102.784 963.975 104.998C963.774 106.81 963.992 108.387 964.629 109.728C965.3 111.037 966.307 112.06 967.648 112.798C968.99 113.536 970.55 113.922 972.328 113.955C974.643 113.989 976.924 113.536 979.172 112.597C981.419 111.657 983.382 110.315 985.059 108.571C986.736 106.827 987.894 104.814 988.531 102.533L991.852 107.011C991.215 109.225 990.175 111.272 988.732 113.15C987.29 114.995 985.579 116.589 983.6 117.93C981.654 119.272 979.557 120.312 977.31 121.05C975.062 121.788 972.815 122.141 970.567 122.107C967.514 122.04 964.747 121.352 962.264 120.044C959.815 118.736 957.87 116.907 956.427 114.559C955.018 112.177 954.414 109.41 954.616 106.256C954.817 102.801 955.723 99.8993 957.333 97.551C958.943 95.2027 961.006 93.3241 963.522 91.9152C966.072 90.5062 968.856 89.4998 971.875 88.896C974.894 88.2586 977.88 87.9399 980.832 87.9399L991.953 87.9902ZM1039.56 66.554L1038.3 73.6994H1009.67L1010.92 66.554H1039.56ZM1022.9 53.3199H1031.96L1022.75 107.615C1022.65 108.789 1022.68 109.846 1022.85 110.785C1023.02 111.724 1023.42 112.479 1024.06 113.049C1024.69 113.586 1025.67 113.871 1026.98 113.905C1027.71 113.905 1028.43 113.855 1029.14 113.754C1029.88 113.62 1030.62 113.502 1031.35 113.402L1030.7 121.05C1029.63 121.352 1028.52 121.57 1027.38 121.704C1026.27 121.872 1025.16 121.939 1024.06 121.906C1021.27 121.872 1019.09 121.168 1017.52 119.792C1015.94 118.417 1014.87 116.639 1014.29 114.458C1013.72 112.278 1013.56 109.946 1013.79 107.464L1022.9 53.3199ZM1059.93 66.554L1050.47 121H1041.37L1050.83 66.554H1059.93ZM1052.64 52.2632C1052.64 50.6865 1053.12 49.3782 1054.1 48.3383C1055.1 47.2648 1056.4 46.7113 1057.97 46.6777C1059.55 46.6442 1060.84 47.1306 1061.85 48.137C1062.89 49.1434 1063.39 50.4182 1063.36 51.9613C1063.36 53.5044 1062.84 54.796 1061.8 55.8359C1060.79 56.8423 1059.52 57.3623 1057.97 57.3958C1056.43 57.4294 1055.15 56.9765 1054.15 56.0372C1053.14 55.0644 1052.64 53.8064 1052.64 52.2632ZM1082.93 112.144L1104.37 66.554H1113.98L1086.45 121H1080.06L1082.93 112.144ZM1077.9 66.554L1085.65 113.301L1085.4 121H1079.56L1068.89 66.554H1077.9ZM1135.72 122.006C1131.99 121.939 1128.76 121.201 1126 119.792C1123.29 118.35 1121.06 116.421 1119.31 114.006C1117.6 111.557 1116.38 108.772 1115.64 105.652C1114.9 102.533 1114.68 99.2619 1114.98 95.8401L1115.19 93.6764C1115.52 90.1875 1116.38 86.7658 1117.75 83.4111C1119.13 80.023 1120.96 76.9702 1123.24 74.253C1125.55 71.5357 1128.27 69.3887 1131.39 67.812C1134.54 66.2018 1138.03 65.447 1141.86 65.5476C1145.65 65.6147 1148.8 66.4198 1151.32 67.963C1153.83 69.5061 1155.79 71.5525 1157.2 74.102C1158.65 76.618 1159.58 79.4527 1160.02 82.606C1160.46 85.7259 1160.49 88.9295 1160.12 92.2171L1159.57 96.3936H1120.07L1121.27 88.7954L1151.42 88.8457L1151.57 88.0406C1151.9 85.6252 1151.77 83.2937 1151.16 81.0461C1150.56 78.7985 1149.45 76.9534 1147.84 75.5109C1146.27 74.0349 1144.14 73.2633 1141.45 73.1962C1138.67 73.0956 1136.25 73.6659 1134.21 74.9071C1132.16 76.1148 1130.45 77.7586 1129.07 79.8384C1127.7 81.8848 1126.61 84.1324 1125.8 86.5813C1125.03 88.9966 1124.5 91.3617 1124.19 93.6764L1123.99 95.7898C1123.79 97.9368 1123.86 100.101 1124.19 102.281C1124.53 104.462 1125.17 106.458 1126.11 108.269C1127.08 110.047 1128.42 111.506 1130.13 112.647C1131.84 113.754 1133.96 114.341 1136.47 114.408C1139.52 114.475 1142.26 113.821 1144.67 112.446C1147.12 111.037 1149.35 109.259 1151.37 107.112L1156.55 111.54C1154.97 113.855 1153.09 115.8 1150.91 117.377C1148.73 118.954 1146.35 120.128 1143.77 120.899C1141.18 121.671 1138.5 122.04 1135.72 122.006ZM1199.32 106.256C1199.62 104.176 1199.24 102.549 1198.16 101.375C1197.12 100.201 1195.75 99.3122 1194.04 98.7084C1192.36 98.071 1190.72 97.551 1189.11 97.1484C1187.09 96.6452 1185.06 96.0246 1183.02 95.2866C1180.97 94.5486 1179.09 93.6093 1177.38 92.4687C1175.7 91.2946 1174.36 89.8521 1173.36 88.1412C1172.38 86.3968 1171.95 84.2834 1172.05 81.8009C1172.18 79.1172 1172.89 76.7522 1174.16 74.7058C1175.47 72.6595 1177.15 70.9486 1179.19 69.5732C1181.27 68.1978 1183.54 67.1746 1185.99 66.5037C1188.43 65.8328 1190.87 65.5141 1193.28 65.5476C1196.7 65.6147 1199.81 66.3192 1202.59 67.6611C1205.41 69.0029 1207.64 70.9318 1209.28 73.4478C1210.93 75.9638 1211.7 79.0166 1211.6 82.606L1202.59 82.5557C1202.66 80.6436 1202.27 78.9998 1201.43 77.6244C1200.6 76.249 1199.44 75.1923 1197.96 74.4542C1196.49 73.6827 1194.81 73.2801 1192.93 73.2466C1191.15 73.213 1189.41 73.4982 1187.7 74.102C1185.99 74.6723 1184.53 75.578 1183.32 76.8193C1182.11 78.0269 1181.37 79.6036 1181.1 81.5493C1180.9 82.9918 1181.12 84.1827 1181.76 85.122C1182.4 86.0278 1183.27 86.7658 1184.38 87.3361C1185.52 87.8728 1186.71 88.3257 1187.95 88.6947C1189.22 89.0302 1190.38 89.3321 1191.42 89.6005C1194.17 90.372 1196.89 91.3449 1199.57 92.519C1202.26 93.6931 1204.44 95.3202 1206.11 97.4C1207.79 99.4464 1208.55 102.147 1208.38 105.502C1208.24 108.353 1207.49 110.835 1206.11 112.949C1204.77 115.029 1203.03 116.756 1200.88 118.132C1198.77 119.474 1196.44 120.463 1193.89 121.101C1191.34 121.738 1188.79 122.04 1186.24 122.006C1182.72 121.939 1179.43 121.218 1176.37 119.843C1173.36 118.434 1170.94 116.421 1169.13 113.804C1167.32 111.154 1166.46 107.934 1166.56 104.143L1175.67 104.193C1175.67 106.374 1176.12 108.219 1177.03 109.728C1177.97 111.204 1179.26 112.328 1180.9 113.1C1182.55 113.871 1184.43 114.274 1186.54 114.307C1188.32 114.341 1190.13 114.106 1191.97 113.603C1193.85 113.1 1195.46 112.261 1196.8 111.087C1198.18 109.879 1199.02 108.269 1199.32 106.256Z" fill="#8A8A8A"/>
<path d="M69 110C75.6304 110 81.9893 107.366 86.6777 102.678C91.3661 97.9893 94 91.6304 94 85C94 78.3696 91.3661 72.0107 86.6777 67.3223C81.9893 62.6339 75.6304 60 69 60C62.3696 60 56.0107 62.6339 51.3223 67.3223C46.6339 72.0107 44 78.3696 44 85C44 91.6304 46.6339 97.9893 51.3223 102.678C56.0107 107.366 62.3696 110 69 110ZM80.0352 80.4102L67.5352 92.9102C66.6172 93.8281 65.1328 93.8281 64.2246 92.9102L57.9746 86.6602C57.0566 85.7422 57.0566 84.2578 57.9746 83.3496C58.8926 82.4414 60.377 82.4316 61.2852 83.3496L65.875 87.9395L76.7148 77.0898C77.6328 76.1719 79.1172 76.1719 80.0254 77.0898C80.9336 78.0078 80.9434 79.4922 80.0254 80.4004L80.0352 80.4102Z" fill="white"/>
<path d="M69.1595 31L72.0232 39.8131H81.2893L73.7925 45.2598L76.6563 54.0729L69.1595 48.6259L61.6623 54.0729L64.5261 45.2598L57.0293 39.8131H66.2957L69.1595 31Z" fill="#FFDA44"/>
<path d="M31.0929 46.7695L39.3501 50.9762L45.9023 44.4243L44.4523 53.5764L52.7092 57.7834L43.5568 59.2331L42.1071 68.3858L37.9001 60.1289L28.748 61.5789L35.3003 55.0267L31.0929 46.7695Z" fill="#FFDA44"/>
<path d="M15.3223 84.8367L24.1354 81.9729V72.7065L29.5817 80.2037L38.3951 77.3399L32.9478 84.8367L38.3951 92.3335L29.5817 89.4701L24.1354 96.9669V87.7005L15.3223 84.8367Z" fill="#FFDA44"/>
<path d="M31.0929 122.904L35.2999 114.647L28.748 108.095L37.9004 109.545L42.1068 101.288L43.5568 110.44L52.7088 111.89L44.453 116.097L45.9023 125.249L39.3501 118.697L31.0929 122.904Z" fill="#FFDA44"/>
<path d="M69.1595 138.672L66.2953 129.859H57.0293L64.5264 124.413L61.6623 115.6L69.1595 121.046L76.6563 115.6L73.7925 124.413L81.2893 129.859H72.0229L69.1595 138.672Z" fill="#FFDA44"/>
<path d="M107.227 122.904L98.97 118.697L92.4175 125.25L93.8675 116.097L85.6113 111.89L94.7634 110.44L96.213 101.288L100.42 109.545L109.572 108.095L103.02 114.648L107.227 122.904Z" fill="#FFDA44"/>
<path d="M123 84.8367L114.187 87.7005V96.9669L108.74 89.4697L99.9277 92.3335L105.374 84.8367L99.9277 77.3399L108.74 80.2037L114.187 72.7065V81.9733L123 84.8367Z" fill="#FFDA44"/>
<path d="M107.227 46.7692L103.02 55.0264L109.572 61.5786L100.419 60.1282L96.213 68.3851L94.7634 59.2327L85.6113 57.7827L93.8675 53.576L92.4175 44.4243L98.9704 50.9762L107.227 46.7692Z" fill="#FFDA44"/>
<path d="M69.2609 155.522C107.513 155.522 138.522 124.513 138.522 86.2609C138.522 48.0092 107.513 17 69.2609 17C31.0092 17 0 48.0092 0 86.2609C0 124.513 31.0092 155.522 69.2609 155.522Z" fill="#ED2939"/>
<path d="M69.5 134C95.7335 134 117 112.734 117 86.5C117 60.2665 95.7335 39 69.5 39C43.2665 39 22 60.2665 22 86.5C22 112.734 43.2665 134 69.5 134Z" fill="white"/>
<path d="M69 117C77.2217 117 85.1067 113.734 90.9203 107.92C96.7339 102.107 100 94.2217 100 86C100 77.7783 96.7339 69.8933 90.9203 64.0797C85.1067 58.2661 77.2217 55 69 55C60.7783 55 52.8933 58.2661 47.0797 64.0797C41.2661 69.8933 38 77.7783 38 86C38 94.2217 41.2661 102.107 47.0797 107.92C52.8933 113.734 60.7783 117 69 117ZM82.6836 80.3086L67.1836 95.8086C66.0453 96.9469 64.2047 96.9469 63.0785 95.8086L55.3285 88.0586C54.1902 86.9203 54.1902 85.0797 55.3285 83.9535C56.4668 82.8273 58.3074 82.8152 59.4336 83.9535L65.125 89.6449L78.5664 76.1914C79.7047 75.0531 81.5453 75.0531 82.6715 76.1914C83.7977 77.3297 83.8098 79.1703 82.6715 80.2965L82.6836 80.3086Z" fill="#0052B4"/>
</svg>
