<svg width="23" height="23" viewBox="0 0 23 23" fill="none" xmlns="http://www.w3.org/2000/svg">
<path d="M17.8858 6.00869C16.8049 5.3063 16.025 4.18208 15.7817 2.87237C15.7291 2.58947 15.6999 2.29803 15.6999 2H12.2501L12.2443 15.7797C12.1867 17.3231 10.9123 18.5614 9.35015 18.5614C8.86461 18.5614 8.4075 18.4407 8.00489 18.2292C7.08171 17.7453 6.44977 16.7809 6.44977 15.6715C6.44977 14.0777 7.75103 12.7808 9.34976 12.7808C9.6484 12.7808 9.93459 12.8301 10.2052 12.9143V9.40424C9.92485 9.36583 9.64023 9.34254 9.34976 9.34254C5.84859 9.34254 3 12.1812 3 15.6715C3 17.8124 4.07309 19.7073 5.71115 20.8529C6.74218 21.5751 7.99711 22 9.35015 22C12.8517 22 15.6999 19.1609 15.6999 15.6715V8.68361C17.053 9.65144 18.7109 10.2219 20.5 10.2219V6.78327C19.5363 6.78327 18.6388 6.49804 17.8858 6.00869Z" fill="white"/>
</svg>
