<svg width="20" height="20" viewBox="0 0 20 20" fill="none" xmlns="http://www.w3.org/2000/svg">
<path d="M16.8858 4.00869C15.8049 3.3063 15.025 2.18208 14.7817 0.872366C14.7291 0.589468 14.6999 0.298032 14.6999 0H11.2501L11.2443 13.7797C11.1867 15.3231 9.91228 16.5614 8.35015 16.5614C7.86461 16.5614 7.4075 16.4407 7.00489 16.2292C6.08171 15.7453 5.44977 14.7809 5.44977 13.6715C5.44977 12.0777 6.75103 10.7808 8.34976 10.7808C8.6484 10.7808 8.93459 10.8301 9.2052 10.9143V7.40424C8.92485 7.36583 8.64023 7.34254 8.34976 7.34254C4.84859 7.34254 2 10.1812 2 13.6715C2 15.8124 3.07309 17.7073 4.71115 18.8529C5.74218 19.5751 6.99711 20 8.35015 20C11.8517 20 14.6999 17.1609 14.6999 13.6715V6.68361C16.053 7.65144 17.7109 8.22189 19.5 8.22189V4.78327C18.5363 4.78327 17.6388 4.49804 16.8858 4.00869Z" fill="white"/>
</svg>
