<svg width="108" height="108" viewBox="0 0 108 108" fill="none" xmlns="http://www.w3.org/2000/svg">
<rect width="108" height="108" fill="white"/>
<path d="M32.4907 74.5196C28.4334 81.548 30.6698 90.1736 30.7655 90.557C30.9253 91.228 31.3726 91.7711 31.9796 92.1225C32.363 92.3461 32.8102 92.4738 33.2574 92.4738C33.4812 92.4738 33.7048 92.4738 33.9284 92.3781C34.2798 92.2822 42.9055 89.8862 46.9627 82.8898C51.02 75.8614 48.7838 67.2357 48.6879 66.8524C48.5281 66.1814 48.0809 65.6383 47.4739 65.287C46.8989 64.9355 46.1641 64.8396 45.5252 65.0313C45.1737 65.1272 36.548 67.5232 32.4907 74.5196ZM40.2539 52.2525C39.9983 51.997 33.6089 45.7353 25.5262 45.7353C17.4437 45.7353 11.0223 51.965 10.7667 52.2525C10.2875 52.7318 10 53.4026 10 54.0735C10 54.7444 10.2875 55.4153 10.7667 55.8945C11.0223 56.15 17.4117 62.4117 25.4943 62.4117C33.5769 62.4117 39.9663 56.15 40.2219 55.8945C40.7011 55.4153 40.9886 54.7444 40.9886 54.0735C40.9886 53.4026 40.7331 52.7318 40.2219 52.2525M48.656 41.2946C48.7518 40.9433 50.9881 32.2856 46.9308 25.2572C42.8735 18.2289 34.2798 15.8648 33.8964 15.7689C33.2255 15.5772 32.5227 15.6731 31.9477 16.0246C31.3726 16.3759 30.9253 16.919 30.7336 17.59C30.6378 17.9414 28.4015 26.599 32.4588 33.6274C36.516 40.6557 45.1099 43.0198 45.4932 43.1157C45.7168 43.1795 45.9405 43.2115 46.1641 43.2115C46.6113 43.2115 47.0586 43.0837 47.442 42.8601C48.017 42.5087 48.4643 41.9656 48.656 41.2946ZM75.3637 74.5196C71.3064 67.4913 62.7127 65.1272 62.3293 65.0313C61.6584 64.8396 60.9556 64.9355 60.3806 65.287C59.7736 65.6383 59.3582 66.1814 59.1665 66.8524C59.0707 67.2038 56.8344 75.8614 60.8916 82.8898C64.9489 89.9181 73.5427 92.2822 73.9261 92.3781C74.1497 92.4419 74.3733 92.4738 74.5969 92.4738C75.0443 92.4738 75.4915 92.3461 75.8749 92.1225C76.4499 91.7711 76.8971 91.228 77.0888 90.557C77.1847 90.2057 79.421 81.548 75.3637 74.5196Z" fill="#FFCC00"/>
<path d="M15.6224 74.0716C15.4308 74.7426 15.5266 75.4453 15.878 76.0204C16.2295 76.5954 16.7725 77.0427 17.4434 77.2343C17.6351 77.2983 20.1589 77.9372 23.5134 77.9372C26.5164 77.9372 30.1584 77.426 33.4808 75.5093C40.5093 71.452 42.8733 62.8582 42.9691 62.4748C43.1289 61.804 43.065 61.1011 42.7136 60.5261C42.3621 59.951 41.819 59.5038 41.1482 59.3121C40.7967 59.2162 32.1391 56.98 25.1107 61.0373C18.0824 65.0945 15.7183 73.6883 15.6224 74.0716ZM42.7136 47.5875C43.065 46.9805 43.1608 46.2776 42.9691 45.6387C42.8733 45.2873 40.4772 36.6616 33.4808 32.6043C26.4525 28.547 17.8268 30.7833 17.4434 30.8791C16.7725 31.0708 16.2295 31.4862 15.878 32.0932C15.5266 32.6682 15.4308 33.403 15.6224 34.042C15.7183 34.3934 18.1143 43.019 25.1107 47.0763C28.4013 48.9931 32.0752 49.5043 35.0462 49.5043C38.4007 49.5043 40.9246 48.8334 41.1162 48.8015C41.7871 48.6417 42.3302 48.1945 42.6816 47.5875M55.716 40.3675C55.9716 40.1119 62.2332 33.7224 62.2332 25.6398C62.2332 17.5572 55.9716 11.1678 55.716 10.9122C55.2368 10.4331 54.5659 10.1455 53.8951 10.1455C53.2241 10.1455 52.5533 10.4331 52.074 10.9122C51.8185 11.1678 45.5569 17.5572 45.5569 25.6398C45.5569 33.7224 51.8185 40.1119 52.074 40.3675C52.5533 40.8467 53.2241 41.1342 53.8951 41.1342C54.5659 41.1342 55.2368 40.8786 55.716 40.3675ZM55.716 97.2333C55.9716 96.9777 62.2332 90.5883 62.2332 82.4738C62.2332 74.3592 55.9716 68.0017 55.716 67.7461C55.2368 67.2669 54.5659 66.9793 53.8951 66.9793C53.2241 66.9793 52.5533 67.2669 52.074 67.7461C51.8185 68.0017 45.5569 74.3911 45.5569 82.4738C45.5569 90.5563 51.8185 96.9457 52.074 97.2333C52.5533 97.7124 53.2241 98 53.8951 98C54.5659 98 55.2368 97.7445 55.716 97.2333ZM92.1996 74.0716C92.1038 73.7202 89.7077 65.0945 82.7113 61.0373C75.683 56.98 67.0572 59.2162 66.6739 59.3121C66.003 59.4718 65.4599 59.9191 65.1085 60.5261C64.757 61.1331 64.6613 61.8359 64.8529 62.4748C64.9487 62.8263 67.3448 71.452 74.3412 75.5093C77.6317 77.426 81.3057 77.9372 84.2767 77.9372C87.6312 77.9372 90.155 77.2983 90.3467 77.2343C91.0175 77.0427 91.5607 76.6274 91.9121 76.0204C92.2634 75.4134 92.3593 74.7426 92.1676 74.0716" fill="#FFED00"/>
<path d="M81.3877 63.514C89.4986 63.7832 96.0547 57.7481 96.3477 57.4831C96.8644 57.0262 97.1328 56.3758 97.157 55.6748C97.1737 55.2313 97.0758 54.7766 96.8652 54.3821C96.7598 54.1848 96.6545 53.9875 96.4647 53.8353C96.2146 53.5705 90.0387 47.0897 81.956 46.8054C73.845 46.5362 67.289 52.5712 66.9959 52.8363C66.4793 53.2932 66.2108 53.9435 66.1867 54.6444C66.1475 55.3172 66.409 56.0106 66.879 56.4839C67.1291 56.7488 73.305 63.2297 81.3877 63.514ZM61.1968 25.6931C56.9075 32.5822 58.8692 41.2766 58.9651 41.6599C59.112 42.3421 59.5275 42.9169 60.1084 43.2587C60.7042 43.6287 61.3789 43.7393 62.0611 43.5925C62.4162 43.5114 71.1068 41.407 75.3962 34.5178C79.6856 27.6287 77.7239 18.9342 77.6279 18.5509C77.5789 18.3235 77.5018 18.1112 77.3965 17.914C77.1858 17.5193 76.8625 17.185 76.4847 16.9521C75.9039 16.6103 75.2141 16.4716 74.532 16.6184C74.1769 16.6993 65.4863 18.8039 61.1968 25.6931Z" fill="#FFCC00"/>
<path d="M90.4865 32.3291C90.1407 32.2239 81.5553 29.7093 74.397 33.5308C67.2386 37.3523 64.5792 45.8701 64.474 46.216C64.277 46.8643 64.3393 47.5917 64.6552 48.1834C64.9712 48.7753 65.5408 49.2317 66.1892 49.4288C66.5351 49.5338 75.1204 52.0485 82.2506 48.242C89.3807 44.4356 92.0683 35.9028 92.2017 35.5419C92.3987 34.8935 92.3364 34.1663 92.0205 33.5744C91.7045 32.9826 91.1631 32.5111 90.4865 32.3291Z" fill="#FFED00"/>
</svg>
