<svg width="108" height="108" viewBox="0 0 108 108" fill="none" xmlns="http://www.w3.org/2000/svg">
<rect width="108" height="108" fill="white"/>
<path d="M72.2864 100.772C67.6228 102.537 62.8639 103.595 57.9304 103.901C48.9781 104.457 40.5207 102.655 32.4546 98.7958C26.8218 96.1004 21.7833 92.6044 17.4933 88.0686C10.924 81.1214 6.70071 72.9618 4.874 63.5788C4.1215 59.7144 3.84477 55.8079 4.08333 51.8892C4.76221 40.765 8.68691 30.9063 16.0646 22.5088C24.0749 13.3909 34.2227 7.88454 46.1222 5.81574C61.9464 3.06461 75.873 7.31637 87.8707 17.9023C94.3691 23.637 98.8487 30.7038 101.514 38.9191C102.775 42.808 103.518 46.7974 103.803 50.882C104.368 58.9981 103.111 66.8057 99.942 74.2993C97.8944 79.1396 95.1175 83.5259 91.5732 87.4216C86.1885 93.3411 79.8045 97.8253 72.2864 100.774M67.9255 97.8212C74.8792 95.0769 80.9674 91.063 85.9649 85.4846C93.8907 76.6372 97.6572 66.1859 97.8031 54.3997C97.8385 51.5072 97.5454 48.6147 96.9865 45.7644C95.1244 36.2482 90.9188 27.935 83.811 21.2719C72.6381 10.7947 59.4135 6.36624 44.1632 8.75038C33.5806 10.4046 24.6175 15.249 17.5751 23.3556C7.91261 34.4798 4.14468 47.3927 6.3231 61.9436C7.72721 71.3225 11.791 79.5188 18.2826 86.4184C28.3077 97.0736 40.7866 101.618 55.3321 100.692C59.6426 100.417 63.7963 99.3925 67.9268 97.8212H67.9255Z" fill="#00205B"/>
<path d="M61.3843 48.453C61.3843 48.9064 61.3829 49.2917 61.3843 49.6784C61.387 50.5853 61.387 50.5894 62.279 50.5894C66.2979 50.5907 70.3167 50.5894 74.3355 50.5894C74.7466 50.5894 75.1577 50.5989 75.5687 50.5921C75.914 50.5866 76.0593 50.7405 76.0579 51.085C76.0524 52.674 76.0483 54.2617 76.0648 55.8507C76.0702 56.3408 75.7948 56.3939 75.407 56.3926C73.4887 56.3844 71.5704 56.3885 69.6521 56.3885C67.1858 56.3885 64.7194 56.4117 62.2543 56.3735C61.5473 56.3626 61.3514 56.6009 61.3706 57.2763C61.4144 58.7496 61.4171 60.2269 61.3706 61.7002C61.3486 62.3796 61.5446 62.5961 62.2489 62.592C66.7925 62.5621 71.3375 62.5757 75.8811 62.5757C76.5215 62.5757 76.8417 62.8875 76.8417 63.5111C76.8417 64.8959 76.8238 66.2793 76.8458 67.6641C76.8554 68.2537 76.6841 68.511 76.0291 68.5083C69.2699 68.4892 62.5106 68.4892 55.7513 68.5097C55.073 68.511 54.9018 68.2618 54.9031 67.63C54.9182 58.4173 54.9209 49.2046 54.9004 39.9919C54.899 39.2757 55.158 39.1259 55.8198 39.1286C62.1228 39.149 68.4244 39.1409 74.7274 39.1395C74.9782 39.1395 75.2303 39.1477 75.481 39.1368C76.865 39.0741 76.8499 38.8508 76.8389 40.448C76.8307 41.6735 76.8088 42.8989 76.8471 44.123C76.8677 44.7684 76.6594 44.9849 75.9908 44.9808C71.4923 44.955 66.9939 44.9672 62.4955 44.9686C61.398 44.9686 61.387 44.9822 61.387 46.0688C61.387 46.8408 61.387 47.6115 61.387 48.4516L61.3843 48.453Z" fill="#00205B"/>
<path d="M30.4081 57.7694C30.1117 58.0353 30.1983 58.3475 30.197 58.6324C30.1916 61.6072 30.1943 64.582 30.1943 67.5568C30.1943 68.4853 30.1861 68.4921 29.2389 68.4935C28.6299 68.4935 28.0223 68.488 27.4134 68.4907C27.0534 68.4921 26.864 68.3367 26.8843 67.9577C26.8924 67.7995 26.8843 67.64 26.8843 67.4805C26.8843 58.3734 26.8843 49.2676 26.8843 40.1605C26.8843 39.4588 27.2212 39.1071 27.8951 39.1052C31.2538 39.1052 34.6139 39.0589 37.9712 39.1271C40.3854 39.1761 42.6479 39.8333 44.5749 41.3807C46.5804 42.9921 47.5588 45.1258 47.6914 47.6929C47.8213 50.2151 47.3044 52.5164 45.6047 54.4606C44.6115 55.5949 43.3733 56.357 41.9916 56.9023C41.6384 57.0414 41.2744 57.1518 40.7967 57.3168C43.3435 60.991 45.8605 64.6216 48.3639 68.2317C48.1041 68.5848 47.8105 68.4812 47.5574 68.4866C46.8362 68.5016 46.1122 68.4526 45.395 68.5044C44.7779 68.5494 44.4071 68.3067 44.0607 67.8091C41.8495 64.6284 39.6046 61.4736 37.3907 58.2943C37.0997 57.8757 36.7899 57.6958 36.2783 57.7053C34.3405 57.7408 32.4027 57.734 30.4108 57.7653M42.9429 52.6228C44.0323 51.4094 44.3909 49.9574 44.4044 48.3555C44.4355 44.6718 42.0119 42.5736 38.7182 42.3568C36.1146 42.185 33.4921 42.2955 30.879 42.2696C30.4054 42.2655 30.1875 42.4263 30.1902 42.9403C30.2037 46.5954 30.2024 50.2519 30.1902 53.9071C30.1889 54.3815 30.3688 54.5424 30.8303 54.5383C33.377 54.5192 35.9251 54.5724 38.4692 54.4987C40.1296 54.4497 41.6466 53.8852 42.9429 52.6214V52.6228Z" fill="#00205B"/>
</svg>
