<svg width="108" height="108" viewBox="0 0 108 108" fill="none" xmlns="http://www.w3.org/2000/svg">
<rect width="108" height="108" fill="white"/>
<path d="M60.2288 0.000159124C60.2288 0.000159124 55.1345 6.33395 52.3932 20.5909C49.6035 34.8242 51.6655 43.6488 51.6655 43.6488C48.4391 35.0614 45.6736 34.8242 45.6736 34.8242C45.6736 34.8242 43.5873 53.612 39.6574 61.9622C35.7275 70.3361 34.7329 76.7173 37.8138 84.5931C43.5873 98.5891 60.2288 103.333 60.2288 103.333C60.2288 103.333 51.908 94.3191 55.1344 84.5931C60.7139 71.6883 77.137 66.9438 68.5737 43.198C60.9323 19.903 60.2288 0.0238863 60.2288 0.0238863" fill="white"/>
<path d="M46.9901 38.3332C46.9901 38.3332 56.6155 56.1346 50.8012 69.657C42.7638 86.2292 57.666 101.667 57.666 101.667C57.666 101.667 30.5488 88.2622 39.4657 67.7658C47.1856 50.0353 47.0146 38.3332 47.0146 38.3332" fill="#1B4677"/>
<path d="M59.3219 6.66666C59.3219 6.66666 48.9509 30.1969 55.2476 47.9376C61.5443 65.6782 49.1485 73.0489 53.692 85C56.3094 70.933 75.2488 68.7939 67.4706 45.2637C59.6923 21.78 59.3219 6.66666 59.3219 6.66666Z" fill="#C4122D"/>
</svg>
