<svg width="108" height="108" viewBox="0 0 108 108" fill="none" xmlns="http://www.w3.org/2000/svg">
<rect width="108" height="108" fill="white"/>
<path d="M63.8253 28.8062C59.6365 22.6276 53.2972 22.4619 51.2588 22.4619C49.2205 22.4619 41.7219 22.7373 36.045 32.6617C30.3682 42.5861 29.2063 55.55 28.5999 63.8909C28.5999 63.8909 16.8029 59.1455 16.9151 44.5827C16.9151 44.5827 16.7928 33.9596 26.8036 27.6867C26.8036 27.6867 26.4163 30.8232 29.0356 32.5316C31.6549 34.2401 34.0576 32.8325 34.8322 32.1874C35.6068 31.5423 40.3256 26.8172 41.3142 22.5205C42.3028 18.2239 38.6516 14.8401 34.5749 15.0058C30.4982 15.1716 22.9817 16.8597 15.771 23.7343C8.56034 30.609 6.8838 41.0918 7.0061 45.7735C7.1284 50.4552 8.02528 58.3626 14.7748 65.7957C21.5243 73.2288 28.5999 74.6874 28.5999 74.6874C28.5999 74.6874 29.5427 83.7958 31.26 89.5536C31.26 89.5536 32.376 93.2051 35.9406 92.9909C39.5051 92.7767 41.3499 90.1554 41.0365 87.7074C39.9466 83.8693 39.1854 79.9452 38.7611 75.9777C38.7611 75.9777 50.8486 76.4698 59.7792 66.4281C68.7097 56.3864 68.8193 46.9006 68.8193 44.4731C68.8193 42.0455 68.0141 34.9847 63.8253 28.8062ZM54.8744 56.6669C54.8744 56.6669 49.302 65.7498 38.4987 66.0686C38.4987 66.0686 38.621 46.7706 45.3578 36.3795C45.3578 36.3795 53.0832 25.6187 57.8427 39.0391C57.8427 39.0391 60.8085 48.9992 54.8744 56.6669ZM71.1634 73.1447L87.4295 22.3369C87.4295 22.3369 89.7226 16.1049 97.025 15.7224C97.025 15.7224 101.917 15.8499 100.847 19.2209L75.4949 91.3845C75.4949 91.3845 74.0324 93.5468 67.9963 90.3645C66.8995 89.739 65.9404 88.8982 65.1764 87.8926C64.4123 86.887 63.8592 85.7372 63.5501 84.5124L59.4199 69.7609C59.3358 69.5658 59.3169 69.3487 59.3661 69.1419C59.4152 68.9352 59.5297 68.7498 59.6925 68.6134C59.6925 68.6134 64.024 64.3244 66.8803 58.9644C66.8803 58.9644 67.5198 57.6435 67.8281 59.0256L71.1634 73.1447Z" fill="url(#paint0_linear_159_269)"/>
<defs>
<linearGradient id="paint0_linear_159_269" x1="10.8382" y1="38.7688" x2="193.068" y2="89.8361" gradientUnits="userSpaceOnUse">
<stop stop-color="#E83E3F"/>
<stop offset="0.03" stop-color="#DE3C43"/>
<stop offset="0.08" stop-color="#C43850"/>
<stop offset="0.14" stop-color="#9A3263"/>
<stop offset="0.19" stop-color="#6B2A79"/>
<stop offset="0.24" stop-color="#63297B"/>
<stop offset="0.36" stop-color="#58277E"/>
<stop offset="0.53" stop-color="#512680"/>
<stop offset="1" stop-color="#4F2680"/>
</linearGradient>
</defs>
</svg>
