<svg width="108" height="108" viewBox="0 0 108 108" fill="none" xmlns="http://www.w3.org/2000/svg">
<rect width="108" height="108" fill="white"/>
<path d="M54.7582 77.5H53.7582L52.2582 96.4512L53.2582 98.5H55.2582L56.2582 96.4512L54.7582 77.5Z" fill="#34D4C5"/>
<path d="M54.7582 31H53.7582L52.2582 12.0488L53.2582 10H55.2582L56.2582 12.0488L54.7582 31Z" fill="#34D4C5"/>
<path d="M50.8756 77.258L49.8896 77.0913L45.2516 95.5274L45.8961 97.7142L47.8681 98.0476L49.1956 96.1942L50.8756 77.258Z" fill="#34D4C5"/>
<path d="M58.6276 31.4084L57.6416 31.2417L59.3216 12.3056L60.6491 10.4522L62.6211 10.7856L63.2656 12.9724L58.6276 31.4084Z" fill="#34D4C5"/>
<path d="M47.4751 76.4942L46.5251 76.1821L39.1846 93.7182L39.4951 95.9767L41.3951 96.601L42.9847 94.9668L47.4751 76.4942Z" fill="#34D4C5"/>
<path d="M61.9908 32.3175L61.0407 32.0053L65.5312 13.5328L67.1207 11.8985L69.0208 12.5228L69.3313 14.7814L61.9908 32.3175Z" fill="#34D4C5"/>
<path d="M44.0548 75.1465L43.1659 74.6885L33.1524 90.848L33.1029 93.1272L34.8808 94.0433L36.7081 92.6801L44.0548 75.1465Z" fill="#34D4C5"/>
<path d="M65.3517 33.8111L64.4628 33.3531L71.8094 15.8195L73.6368 14.4563L75.4146 15.3723L75.3652 17.6516L65.3517 33.8111Z" fill="#34D4C5"/>
<path d="M41.0145 73.3656L40.205 72.7785L27.8652 87.2398L27.472 89.4855L29.0911 90.6596L31.1034 89.5881L41.0145 73.3656Z" fill="#34D4C5"/>
<path d="M68.3134 35.7215L67.5038 35.1345L77.4149 18.912L79.4272 17.8405L81.0463 19.0146L80.6531 21.2602L68.3134 35.7215Z" fill="#34D4C5"/>
<path d="M38.2096 71.0798L37.501 70.3742L23.0672 82.7462L22.3304 84.9037L23.7478 86.3147L25.9019 85.5684L38.2096 71.0798Z" fill="#34D4C5"/>
<path d="M71.0163 38.1261L70.3076 37.4206L82.6153 22.932L84.7694 22.1856L86.1868 23.5967L85.45 25.7541L71.0163 38.1261Z" fill="#34D4C5"/>
<path d="M35.8275 68.4294L35.235 67.6238L19.0802 77.6449L18.0224 79.6645L19.2074 81.2755L21.4504 80.8671L35.8275 68.4294Z" fill="#34D4C5"/>
<path d="M73.2845 40.8762L72.692 40.0706L87.0691 27.6329L89.312 27.2245L90.4971 28.8355L89.4393 30.8551L73.2845 40.8762Z" fill="#34D4C5"/>
<path d="M33.8142 65.3319L33.3566 64.4427L15.819 71.7795L14.4547 73.6061L15.3698 75.3845L17.6491 75.3363L33.8142 65.3319Z" fill="#34D4C5"/>
<path d="M75.1618 44.057L74.7043 43.1678L90.8694 33.1634L93.1487 33.1152L94.0637 34.8936L92.6995 36.7202L75.1618 44.057Z" fill="#34D4C5"/>
<path d="M32.3332 61.9971L32.0204 61.0473L13.5509 65.5502L11.9177 67.1409L12.5433 69.0405L14.802 69.3495L32.3332 61.9971Z" fill="#34D4C5"/>
<path d="M76.4992 47.4522L76.1864 46.5024L93.7175 39.15L95.9763 39.4589L96.6019 41.3586L94.9687 42.9492L76.4992 47.4522Z" fill="#34D4C5"/>
<path d="M31.4252 58.6567L31.2569 57.671L12.3236 59.3828L10.4724 60.7134L10.8091 62.6849L12.997 63.3257L31.4252 58.6567Z" fill="#34D4C5"/>
<path d="M77.2611 50.8286L77.0928 49.8428L95.521 45.1739L97.7089 45.8147L98.0456 47.7861L96.1944 49.1168L77.2611 50.8286Z" fill="#34D4C5"/>
<path d="M31.0162 55.0238L31.0044 54.0238L12.0369 52.7472L10 53.7712L10.0236 55.7711L12.084 56.7469L31.0162 55.0238Z" fill="#34D4C5"/>
<path d="M77.5143 54.4764L77.5025 53.4765L96.4347 51.7533L98.4951 52.7291L98.5187 54.729L96.4818 55.753L77.5143 54.4764Z" fill="#34D4C5"/>
<path d="M31.2005 51.2286L31.3517 50.2401L12.8453 45.8914L10.6688 46.5701L10.3664 48.5471L12.2404 49.8454L31.2005 51.2286Z" fill="#34D4C5"/>
<path d="M77.1673 58.2603L77.3185 57.2718L96.2786 58.6549L98.1526 59.9533L97.8502 61.9303L95.6737 62.6089L77.1673 58.2603Z" fill="#34D4C5"/>
<path d="M31.8915 47.8844L32.1859 46.9287L14.5158 39.9166L12.2634 40.2693L11.6747 42.1806L13.3384 43.7394L31.8915 47.8844Z" fill="#34D4C5"/>
<path d="M76.3309 61.5719L76.6253 60.6162L95.1784 64.7611L96.8421 66.3199L96.2533 68.2313L94.001 68.5839L76.3309 61.5719Z" fill="#34D4C5"/>
<path d="M33.1412 44.5108L33.5794 43.612L17.2021 33.9588L14.9223 33.9599L14.0459 35.7576L15.4492 37.5543L33.1412 44.5108Z" fill="#34D4C5"/>
<path d="M74.9381 64.8883L75.3763 63.9894L93.0683 70.9459L94.4716 72.7426L93.5952 74.5404L91.3154 74.5414L74.9381 64.8883Z" fill="#34D4C5"/>
<path d="M34.8771 41.3991L35.4476 40.5777L20.7374 28.5357L18.4842 28.1885L17.3434 29.8312L18.4558 31.8212L34.8771 41.3991Z" fill="#34D4C5"/>
<path d="M73.0705 67.923L73.6409 67.1017L90.0623 76.6796L91.1747 78.6696L90.0339 80.3123L87.7807 79.965L73.0705 67.923Z" fill="#34D4C5"/>
<path d="M37.1016 38.5508L37.7924 37.8277L25.1259 23.6518L22.9537 22.9595L21.5721 24.4056L22.3627 26.544L37.1016 38.5508Z" fill="#34D4C5"/>
<path d="M70.7246 70.6724L71.4154 69.9493L86.1543 81.9561L86.9449 84.0945L85.5633 85.5406L83.3911 84.8483L70.7246 70.6724Z" fill="#34D4C5"/>
<path d="M39.9194 35.9411L40.7198 35.3416L30.5591 19.2743L28.5305 18.234L26.9297 19.433L27.3576 21.6723L39.9194 35.9411Z" fill="#34D4C5"/>
<path d="M67.7964 73.1584L68.5967 72.5589L81.1586 86.8277L81.5864 89.067L79.9857 90.266L77.9571 89.2257L67.7964 73.1584Z" fill="#34D4C5"/>
<path d="M43.054 33.8731L43.9404 33.4102L36.4972 15.9174L34.6624 14.5642L32.8896 15.4901L32.9516 17.769L43.054 33.8731Z" fill="#34D4C5"/>
<path d="M64.5793 75.0909L65.4658 74.628L75.5681 90.732L75.6301 93.011L73.8573 93.9368L72.0225 92.5837L64.5793 75.0909Z" fill="#34D4C5"/>
<path d="M46.3014 32.3984L47.2482 32.0765L42.5687 13.651L40.9625 12.0331L39.0689 12.6768L38.7815 14.9385L46.3014 32.3984Z" fill="#34D4C5"/>
<path d="M61.2682 76.4243L62.215 76.1024L69.7349 93.5624L69.4476 95.824L67.554 96.4677L65.9478 94.8498L61.2682 76.4243Z" fill="#34D4C5"/>
<path d="M49.981 31.3918L50.9677 31.229L49.3629 12.2864L48.0427 10.4277L46.0694 10.7533L45.4162 12.9375L49.981 31.3918Z" fill="#34D4C5"/>
<path d="M57.5514 77.2717L58.538 77.1089L63.1028 95.5632L62.4497 97.7474L60.4763 98.073L59.1562 96.2143L57.5514 77.2717Z" fill="#34D4C5"/>
</svg>
