<svg viewBox="0 0 108 108" fill="none" xmlns="http://www.w3.org/2000/svg">
<path d="M14.9419 98.7859C13.9965 97.7206 14.0607 99.6157 14.0607 72.7672C14.0607 41.7809 12.4319 45.4797 26.0479 45.5453C35.4495 45.5905 35.2877 45.5651 36.4888 47.1896C37.2639 48.2379 37.2234 46.827 37.2234 72.8377C37.2234 99.0552 37.2728 97.4521 36.4316 98.555C35.9954 99.1269 15.4405 99.3478 14.9419 98.7859ZM42.383 98.8096C42.202 98.3381 42.2882 84.4517 42.4735 84.2135C42.6259 84.0178 43.2081 83.9784 46.8041 83.921C49.0891 83.8844 51.4973 83.7796 52.1557 83.688C52.8141 83.5964 54.2717 83.3942 55.3948 83.2387C56.518 83.0832 57.6925 82.8657 58.0049 82.7555C58.3174 82.6452 58.6829 82.5551 58.8173 82.5551C59.3856 82.5551 63.4701 81.143 64.1264 80.7197C64.5139 80.4698 65.4568 80.0201 65.5934 80.0201C65.719 80.0201 67.2456 79.0091 67.5768 78.7066C67.7317 78.565 68.0327 78.3454 68.2458 78.2185C68.4588 78.0916 68.633 77.938 68.633 77.8772C68.633 77.8165 68.7244 77.7668 68.836 77.7668C69.0855 77.7668 72.013 74.9007 72.013 74.6565C72.013 74.5599 72.1077 74.3805 72.2235 74.2578C72.8458 73.5984 74.548 71.0033 74.548 70.714C74.548 70.6427 74.6114 70.5844 74.6888 70.5844C74.7663 70.5844 74.8296 70.4985 74.8296 70.3937C74.8296 70.2888 75.1465 69.5631 75.5338 68.781C75.9211 67.9988 76.238 67.2884 76.238 67.2021C76.238 67.1159 76.3554 66.7484 76.4989 66.3855C76.6425 66.0226 76.9041 65.2503 77.0804 64.6694C77.2566 64.0885 77.4521 63.5095 77.5148 63.3827C77.5774 63.256 77.6696 62.749 77.7197 62.2561C77.7697 61.7632 77.895 61.0747 77.998 60.7261C78.101 60.3776 78.224 59.4903 78.2712 58.7545C78.3185 58.0186 78.4113 56.8462 78.4776 56.1491C78.5493 55.3946 78.5431 54.3401 78.4622 53.5437C78.3875 52.8079 78.2718 51.6037 78.2051 50.8679C78.0471 49.1254 77.6861 46.9184 77.5094 46.6139C77.4327 46.4817 77.327 46.1052 77.2746 45.7772C77.2221 45.4492 77.0946 45.0187 76.9911 44.8205C76.8877 44.6222 76.8027 44.3811 76.8022 44.2846C76.8006 43.9696 76.2066 42.3532 76.0086 42.1252C75.9024 42.0029 75.8155 41.8614 75.8155 41.8106C75.8155 41.3594 73.6403 37.5286 72.6819 36.2918C70.7757 33.832 67.7302 31.0106 66.9813 31.0106C66.8828 31.0106 66.8022 30.9589 66.8022 30.8957C66.8022 30.8325 66.2003 30.4681 65.4646 30.0859C63.6433 29.1397 63.5616 29.0938 63.3823 28.9144C63.2958 28.828 63.107 28.7573 62.9625 28.7573C62.8181 28.7573 62.403 28.6402 62.0401 28.497C60.483 27.8829 59.302 27.529 57.9363 27.2673C57.3589 27.1566 56.8234 27.003 56.7463 26.9259C56.6691 26.8488 56.3665 26.7857 56.0737 26.7857C55.781 26.7857 55.049 26.6917 54.4471 26.5769C51.4632 26.0076 43.2946 25.8648 34.9038 26.2352C32.8125 26.3275 28.6286 26.3887 25.6062 26.3713C19.0302 26.3333 19.6588 26.1074 19.6526 28.5105C19.6459 31.0775 20.7082 31.2157 35.7488 30.6049C43.4122 30.2937 43.5471 30.2913 45.4662 30.4387C46.4732 30.516 48.3427 30.653 49.6208 30.7431C50.8988 30.8333 52.2905 30.9937 52.7134 31.0996C53.1364 31.2056 53.7188 31.2923 54.0078 31.2923C54.2968 31.2923 54.5684 31.3491 54.6113 31.4185C54.6542 31.488 55.1174 31.6168 55.6406 31.7048C56.6832 31.8803 57.7922 32.2057 58.3741 32.507C58.5797 32.6135 58.829 32.7006 58.9281 32.7006C59.1044 32.7006 60.0452 33.1001 60.7465 33.4728C60.9401 33.5757 61.3204 33.7716 61.5915 33.9081C61.8626 34.0447 62.1532 34.1932 62.2373 34.2383C64.6436 35.5269 68.1176 39.1129 69.5477 41.7842C70.6587 43.8596 70.6944 43.9358 71.1772 45.2604C72.2684 48.2541 72.5218 49.4141 72.7853 52.6204C72.9877 55.083 72.8656 58.9413 72.5678 59.4919C72.495 59.6264 72.4355 59.9154 72.4355 60.1341C72.4355 60.9503 71.5619 64.2179 71.1549 64.9239C71.0072 65.1801 70.8864 65.4735 70.8864 65.5759C70.8864 65.7953 70.2806 67.0937 69.8966 67.6973C69.7488 67.9297 69.5071 68.3416 69.3596 68.6127C68.4417 70.2998 68.168 70.7207 67.8557 70.9253C67.6636 71.0512 67.5064 71.2343 67.5064 71.3323C67.5064 72.0129 63.1158 75.6197 61.6891 76.1111C61.4418 76.1963 60.8591 76.4711 60.3944 76.7219C58.4992 77.7443 55.3815 78.6263 52.7002 78.8984C51.8973 78.9799 51.0949 79.1071 50.9171 79.1811C50.2872 79.4433 42.8617 79.3604 42.5605 79.0878C42.1842 78.7472 42.1575 74.1151 42.5301 73.8055C42.709 73.6568 43.6921 73.5907 46.7903 73.5189C49.0054 73.4676 51.1664 73.3562 51.5924 73.2713C53.5079 72.8899 54.2898 72.6978 55.6061 72.2849C57.0594 71.8291 59.3286 70.7592 59.8402 70.2885C60.0001 70.1414 60.1831 70.021 60.247 70.021C60.5717 70.021 62.6919 68.0776 63.5817 66.9642C65.6567 64.3679 67.1424 59.0583 67.0413 54.5999C66.9958 52.5926 66.7795 50.7083 66.524 50.0933C66.4596 49.9384 66.305 49.3707 66.1804 48.8316C66.0559 48.2926 65.8226 47.5638 65.6622 47.2121C64.9928 45.7447 64.5014 44.7814 64.1831 44.3123C63.997 44.0381 63.8448 43.7776 63.8448 43.7333C63.8448 43.5662 62.3734 41.7584 61.7371 41.1437C58.9473 38.4486 56.121 37.2551 51.7332 36.9191C45.6288 36.4518 44.9309 36.4363 29.8059 36.4345C17.3746 36.4329 14.3921 36.3975 14.244 36.2495C13.956 35.9617 13.9767 20.9123 14.2652 20.734C14.6909 20.471 15.8989 20.427 18.1111 20.5939C20.4017 20.7667 24.2439 20.6901 32.7916 20.3011C36.4674 20.1339 49.2013 20.137 50.5362 20.3054C51.0784 20.3738 52.5314 20.5328 53.7651 20.6587C54.9988 20.7846 56.1196 20.9471 56.2556 21.0199C56.3917 21.0928 56.6933 21.1523 56.9259 21.1523C57.3244 21.1523 59.5941 21.6987 61.3098 22.2077C61.7358 22.334 62.4013 22.5172 62.7885 22.6146C64.0791 22.9393 68.9465 25.2483 70.1205 26.0927C70.4255 26.3122 71.0237 26.7306 71.4497 27.0225C71.8757 27.3145 72.2876 27.6225 72.3651 27.707C72.4426 27.7915 72.8286 28.1233 73.223 28.4442C74.1187 29.1732 75.7637 30.795 76.2613 31.4396C76.4678 31.7071 76.9574 32.2745 77.3493 32.7006C77.7412 33.1266 78.0634 33.518 78.0653 33.5704C78.0674 33.6228 78.388 34.1478 78.7782 34.737C79.1684 35.3262 79.5423 35.9487 79.6091 36.1204C79.6759 36.2921 79.8954 36.6731 80.0968 36.967C80.2982 37.2609 80.4629 37.5809 80.4629 37.6782C80.4629 37.7754 80.5197 37.9152 80.5892 37.9888C80.6586 38.0624 80.8545 38.4711 81.0244 38.8972C81.1944 39.3232 81.4497 39.9569 81.5917 40.3055C82.4288 42.359 83.078 44.5136 83.289 45.9387C83.375 46.5197 83.5052 47.1217 83.5782 47.2767C83.6512 47.4316 83.7697 48.1604 83.8414 48.8962C83.9131 49.6321 84.0351 50.5193 84.1125 50.8679C84.3468 51.9235 84.3029 57.9878 84.0541 58.943C83.938 59.389 83.8436 60.0519 83.8444 60.4161C83.846 61.127 83.326 64.1339 83.1209 64.599C83.0526 64.7539 82.9405 65.2609 82.8718 65.7256C82.8032 66.1904 82.6817 66.7607 82.602 66.9931C82.5223 67.2255 82.317 67.8909 82.1459 68.4718C81.9748 69.0528 81.6592 69.9083 81.4445 70.3731C81.2298 70.8378 81.0078 71.3765 80.9512 71.5701C80.7669 72.2011 79.529 74.5037 79.1477 74.925C79.0191 75.0672 78.9138 75.2284 78.9138 75.2832C78.9138 75.338 78.594 75.8083 78.2031 76.3283C77.8123 76.8483 77.3845 77.4259 77.2525 77.6118C76.6342 78.4828 73.5338 81.5206 72.7108 82.0619C72.2037 82.3953 71.7068 82.767 71.6065 82.8879C71.5062 83.0088 70.907 83.4344 70.275 83.8338C69.643 84.2332 68.9042 84.7084 68.6331 84.8897C68.362 85.071 67.8581 85.3186 67.5134 85.44C67.1687 85.5614 66.7884 85.7435 66.6684 85.8446C66.5484 85.9458 66.1016 86.1713 65.6756 86.3458C65.2496 86.5202 64.6158 86.7901 64.2673 86.9454C63.134 87.4504 61.5552 87.9647 60.6057 88.138C60.3345 88.1875 60.0478 88.2783 59.9684 88.3399C59.889 88.4015 59.4771 88.496 59.053 88.5501C58.6289 88.6041 58.2124 88.7029 58.1275 88.7697C58.0425 88.8364 57.3137 88.958 56.5079 89.0398C55.7021 89.1216 54.6309 89.2474 54.1274 89.3194C53.6239 89.3913 52.1867 89.4515 50.9335 89.453C49.1676 89.4551 48.6106 89.5003 48.4572 89.6536C48.2407 89.8701 48.1936 93.5902 48.4032 93.9292C48.7225 94.4459 58.4967 93.4948 59.6531 92.8345C59.7876 92.7577 60.014 92.6949 60.1562 92.6949C60.2983 92.6949 60.6953 92.6073 61.0383 92.5002C61.3813 92.3931 61.9471 92.2262 62.2956 92.1293C63.4811 91.7998 65.5788 91.0377 66.7318 90.5175C67.0417 90.3778 67.5803 90.1413 67.9289 89.992C68.8932 89.579 70.788 88.597 71.0383 88.3806C71.1606 88.2748 71.2955 88.1883 71.3381 88.1883C71.525 88.1883 73.2509 87.0734 73.9251 86.5171C74.0085 86.4483 74.1986 86.3518 74.3476 86.3028C74.4965 86.2538 74.9213 85.9292 75.2915 85.5814C75.6617 85.2337 75.9995 84.9492 76.0422 84.9492C76.3426 84.9492 81.025 80.3898 81.0275 80.0948C81.028 80.015 81.2399 79.7268 81.4981 79.4545C81.7563 79.1822 82.0852 78.7069 82.229 78.3983C82.3729 78.0897 82.7197 77.552 82.9998 77.2034C83.2799 76.8549 83.735 76.126 84.0113 75.5838C84.8112 74.0139 85.5676 72.5149 85.7524 72.1335C85.8463 71.9398 86.1621 71.0843 86.4542 70.2322C86.7463 69.3802 87.0331 68.6197 87.0915 68.5423C87.1499 68.4648 87.3022 67.9895 87.4299 67.486C87.5577 66.9825 87.7177 66.3805 87.7855 66.1481C87.8533 65.9157 88.0132 65.2186 88.1408 64.599C88.2685 63.9793 88.4575 63.1871 88.5609 62.8386C88.6642 62.49 88.7859 61.8563 88.8312 61.4303C88.8765 61.0042 88.98 60.212 89.0613 59.6698C89.2896 58.1457 89.3882 51.9634 89.2039 50.727C89.1173 50.1461 88.9564 48.9391 88.8463 48.0449C88.7362 47.1506 88.5794 46.2434 88.4978 46.0288C88.4163 45.8143 88.3473 45.3735 88.3445 45.0494C88.3419 44.7252 88.249 44.3016 88.1383 44.1079C88.0276 43.9143 87.9348 43.6235 87.932 43.4617C87.9264 43.1284 87.2438 40.8729 87.0834 40.6575C87.0257 40.5801 86.8694 40.1682 86.736 39.7421C86.6027 39.3161 86.3725 38.6989 86.2245 38.3706C86.0765 38.0422 85.9554 37.7034 85.9554 37.6177C85.9554 37.532 85.8675 37.2937 85.76 37.0881C85.6525 36.8825 85.4936 36.5558 85.4069 36.3622C85.3201 36.1685 84.9324 35.4397 84.5453 34.7426C84.1582 34.0455 83.7447 33.285 83.6265 33.0526C82.5626 30.9624 77.9768 25.721 76.3566 24.7436C76.2283 24.6661 75.8454 24.3492 75.5058 24.0394C74.7316 23.333 73.8789 22.7463 73.1546 22.4217C72.9692 22.3386 72.5889 22.0963 72.3096 21.8833C72.0303 21.6703 71.5166 21.3495 71.168 21.1704C70.8195 20.9913 70.2808 20.6972 69.971 20.517C69.6611 20.3367 69.3062 20.1841 69.1822 20.1779C69.0581 20.1716 68.6779 20.0196 68.3372 19.84C67.9964 19.6605 67.0839 19.2766 66.3093 18.987C65.5348 18.6974 64.7979 18.405 64.6719 18.3373C64.5459 18.2696 64.1973 18.1725 63.8973 18.1215C63.5973 18.0706 63.0984 17.9443 62.7885 17.8409C61.9791 17.5707 59.7008 17.0682 59.2854 17.0682C59.0912 17.0682 58.8954 17.0085 58.8503 16.9355C58.8052 16.8625 58.4687 16.7671 58.1026 16.7234C57.7365 16.6798 56.9387 16.5723 56.3297 16.4847C50.878 15.7003 48.8088 15.6228 36.8755 15.7554C14.8506 16.0001 16.9478 16.3064 16.9478 12.845C16.9478 9.63028 15.488 10.021 27.8371 9.9302C47.0937 9.78857 53.5638 9.98098 57.4369 10.8105C57.6693 10.8603 58.3347 10.9871 58.9157 11.0923C61.6905 11.5948 62.8374 11.8275 62.9828 11.9174C63.07 11.9713 63.4422 12.0668 63.81 12.1297C65.0417 12.3404 69.55 13.8649 70.1118 14.2607C70.1893 14.3152 70.4542 14.403 70.7006 14.4556C70.947 14.5083 71.2241 14.6423 71.3164 14.7535C71.4087 14.8648 71.5582 14.9557 71.6487 14.9557C71.8737 14.9557 74.824 16.4561 75.1126 16.7173C75.2403 16.8328 75.3851 16.9274 75.4344 16.9274C75.535 16.9274 77.5141 18.2266 78.5019 18.9412C80.7087 20.5374 83.9945 23.7518 85.7305 26.0125C86.2652 26.7088 86.7762 27.3419 86.8659 27.4194C86.9557 27.4968 87.1837 27.8412 87.3725 28.1846C87.5613 28.528 87.8608 28.9677 88.0381 29.1617C88.3693 29.5241 89.6881 31.8492 90.0254 32.6653C90.1294 32.9171 90.2702 33.1231 90.3382 33.1231C90.4063 33.1231 90.462 33.1927 90.462 33.2778C90.462 33.4327 90.6339 33.8466 91.2459 35.1651C91.9641 36.7127 92.997 39.6513 92.997 40.1472C92.997 40.2988 93.0452 40.444 93.1042 40.4698C93.2824 40.5479 94.2657 44.6714 94.3578 45.7275C94.4051 46.2697 94.4914 46.7767 94.5495 46.8541C95.1218 47.6167 95.1153 61.5001 94.5423 62.2062C94.4788 62.2844 94.3821 62.7598 94.3273 63.2625C94.2725 63.7652 94.1812 64.2398 94.1244 64.3173C94.0676 64.3948 93.9787 64.836 93.9268 65.2978C93.7857 66.5533 92.6576 70.741 92.1422 71.9222C92.0746 72.0771 91.8824 72.6158 91.7151 73.1193C91.5478 73.6228 91.3276 74.1931 91.2257 74.3868C91.1239 74.5804 90.9368 74.9924 90.8099 75.3022C90.683 75.612 90.5091 75.9923 90.4235 76.1472C90.3379 76.3021 90.1152 76.7457 89.9287 77.133C89.7421 77.5203 89.1996 78.4891 88.723 79.2859C88.2465 80.0828 87.7853 80.8631 87.6983 81.0201C87.6112 81.1771 87.3844 81.4757 87.1942 81.6838C87.0041 81.8919 86.6449 82.378 86.396 82.7641C85.7421 83.7787 82.9946 86.7569 81.6504 87.9082C81.4233 88.1027 80.7754 88.6581 80.2106 89.1424C79.6458 89.6267 78.9478 90.1719 78.6596 90.3539C78.3713 90.5358 77.9778 90.8507 77.7852 91.0536C77.5926 91.2565 77.3831 91.4237 77.3196 91.425C77.2561 91.4266 76.9278 91.6176 76.59 91.8499C76.2523 92.0823 75.9364 92.2724 75.888 92.2724C75.8396 92.2724 75.4369 92.519 74.9932 92.8203C74.5494 93.1217 73.8083 93.5549 73.3461 93.783C72.884 94.0112 72.2524 94.3341 71.9426 94.5006C71.4705 94.7544 70.6168 95.1513 68.8443 95.9412C68.6894 96.0103 68.119 96.2276 67.5768 96.4243C67.0346 96.6209 66.4642 96.8352 66.3093 96.9005C64.8249 97.5264 61.592 98.3935 59.6558 98.6852C59.327 98.7347 59.0222 98.8331 58.9785 98.9038C58.8209 99.1587 42.4814 99.066 42.383 98.8096Z" fill="#E15432"/>
</svg>
