<svg width="108" height="108" viewBox="0 0 108 108" fill="none" xmlns="http://www.w3.org/2000/svg">
<rect width="108" height="108" fill="white"/>
<path d="M17.6548 68.5405C4.81259 64.9511 4.77016 42.9341 17.5973 38.7039C20.729 37.6711 31.8369 38.0656 33.024 39.2518C34.0894 40.3165 31.9835 45.6004 30.6463 45.2176C21.5892 42.6252 16.507 45.6177 16.5014 53.5463C16.4968 60.0512 20.3243 63.9451 25.4575 62.6577L27.2037 62.2198V59.7804V57.341L24.5275 57.1197L21.8512 56.8983L21.6318 53.8675L21.4123 50.8366H27.8764H34.3404V59.0554V67.2742L32.598 67.9362C29.7751 69.0087 20.6501 69.3777 17.6548 68.5405ZM41.4772 53.4096V38H47.5082C62.26 38 67.4389 41.8851 67.4716 52.976L67.4875 58.3246L65.7304 61.4254C64.6376 63.3539 62.7562 65.2404 60.7541 66.4152L57.5349 68.3042L49.5061 68.5617L41.4773 68.8192L41.4772 53.4096ZM55.3131 61.5644C62.6023 58.7951 60.1374 44.4991 52.3606 44.441L49.3275 44.4183V52.8572C49.3275 62.8945 49.8421 63.643 55.3131 61.5644ZM74.306 53.3326V38H79.9803C95.3173 38 102.213 46.4002 93.1651 54.0614L91.4622 55.5032L95.7311 61.906L100 68.3087L96.3374 68.5275C91.3527 68.8252 91.2906 68.7825 87.8024 62.656C85.7587 59.0667 84.2959 57.2549 83.4417 57.2549H82.1564V62.9601V68.6652H78.2312H74.306V53.3326ZM87.723 50.694C90.1553 48.2635 88.1875 44.4183 84.5115 44.4183H82.1564V47.984V51.5498H84.5115C85.8068 51.5498 87.252 51.1647 87.723 50.694Z" fill="#08B694"/>
</svg>
