<svg width="108" height="108" viewBox="0 0 108 108" fill="none" xmlns="http://www.w3.org/2000/svg">
<rect width="108" height="108" fill="white"/>
<path d="M54.2656 51.921H57.5908C66.1594 51.921 70.8789 47.1579 70.8789 38.509C70.8789 30.482 65.9226 26.743 55.2824 26.743H54.2663L54.2669 20.0202H59.755C64.9573 20.0202 70.2353 21.6704 74.2359 24.5474C77.562 26.9414 81.5277 31.3059 81.5277 38.509C81.5277 43.1364 79.9172 54.2384 65.1076 58.026L84.9997 87.4287L75.8057 90.5981L54.2675 58.8521L54.2656 51.921Z" fill="#143C77"/>
<path d="M54.2823 98.1719H43.0449V9.84308H54.2823V98.1719Z" fill="#EE2722"/>
<path d="M34.2095 88.98H22.9746V19.9581H34.2095V88.98Z" fill="#143C77"/>
</svg>
