<svg width="108" height="108" viewBox="0 0 108 108" fill="none" xmlns="http://www.w3.org/2000/svg">
<rect width="108" height="108" fill="white"/>
<path d="M26.1738 62.5037C26.2159 71.1311 29.672 78.8841 35.3613 84.5938C41.0513 90.2628 48.8477 93.7636 57.4876 93.7636C65.0736 93.7636 71.9016 91.0964 77.3378 86.7199C76.1578 86.7614 75.0198 86.8448 73.8397 86.8448C50.7023 86.8448 31.9053 68.5888 31.0624 45.7065C27.9863 50.5827 26.2159 56.293 26.1738 62.5037Z" fill="#E50040"/>
<path d="M37.8184 45.9482C38.1135 52.6586 40.2627 58.8693 43.845 64.1208C46.8796 65.7466 50.3357 66.663 54.0863 66.663C60.1129 66.663 65.5077 64.2042 69.5115 60.2446C69.9329 59.8692 70.2701 59.4524 70.6915 59.0356C70.186 59.0356 69.6377 59.0356 69.09 59.0356C56.8258 59.0356 45.7837 54.0339 37.8184 45.9482Z" fill="#E50040"/>
<path d="M74.7313 51.9316C75.532 49.6806 75.9113 47.3053 75.9113 44.8045C75.9113 42.2201 75.4899 39.7607 74.6471 37.4683C72.6242 42.9288 69.6737 47.9305 65.7969 52.1814C66.8501 52.2649 67.9881 52.3484 69.0419 52.3484C71.0227 52.3484 72.9194 52.2235 74.7313 51.9316Z" fill="#E50040"/>
<path d="M61.0381 28.1509L60.8691 38.1549C64.2411 37.6553 67.1068 35.5706 68.6241 32.6108C66.0109 30.9857 63.2714 29.3191 61.0381 28.1509Z" fill="#E50040"/>
<path d="M54.0877 73.3051C53.5822 73.3051 53.1187 73.2637 52.6973 73.2637C58.6397 77.5981 65.9306 80.141 73.8959 80.141C77.5203 80.141 81.1453 79.5993 84.3904 78.5573C87.214 73.8889 88.8996 68.3869 88.8996 62.5102C88.8996 55.508 86.5816 49.0054 82.662 43.8374C82.662 44.1293 82.662 44.4626 82.662 44.7959C82.662 48.6307 81.904 52.257 80.597 55.5494C80.4708 55.9662 80.3018 56.383 80.0915 56.7163C75.4553 66.5113 65.5512 73.3051 54.0877 73.3051Z" fill="#E50040"/>
<path d="M49.2773 30.8171C50.1202 33.4015 51.8479 35.5683 54.1659 36.9023L54.3763 27.9409C53.1542 28.5247 51.7637 29.3583 50.2885 30.1919C49.9512 30.4003 49.6567 30.6087 49.2773 30.8171Z" fill="#E50040"/>
<path d="M20.0427 54.7994L20.2117 55.2582C21.8973 46.5881 26.5341 38.9607 33.0242 33.5422L33.2767 33.3759C33.2767 33.3759 36.0168 31.4582 39.6833 29.0408C39.5991 28.9994 39.5137 28.9573 39.3874 28.8745C38.4184 28.7075 37.4066 28.624 36.3528 28.624C26.2383 28.6661 18.1895 36.7518 18.1895 46.7965C18.1895 49.6313 18.8206 52.2985 19.9586 54.7159L20.0427 54.7994Z" fill="#E50040"/>
<path d="M21.8967 94.2739H36.7735C26.3639 87.5215 19.4517 75.8095 19.4517 62.5137C19.4517 61.3461 19.5365 60.2627 19.6207 59.1372C19.4097 59.3877 19.1145 59.5961 18.862 59.7624C12.9616 63.0134 9 69.2241 9 76.3512C9.08415 84.6459 14.3948 91.7316 21.8967 94.2739Z" fill="#E50040"/>
<path d="M57.9434 50.6612C59.9663 48.8277 61.8202 46.7436 63.4644 44.4926C62.1154 44.8259 60.7249 44.9929 59.2918 44.9929C52.1692 44.9929 46.0157 40.6999 43.4452 34.4893C42.1389 35.3649 40.9168 36.1986 39.9471 36.8652C39.6519 37.0315 39.4836 37.1571 39.2305 37.3234C43.8666 43.5755 50.3567 48.2853 57.9434 50.6612Z" fill="#E50040"/>
<path d="M75.8887 29.2894C79.3027 31.5404 81.8311 33.3325 81.8311 33.3325L82.0422 33.4995C87.1839 37.7925 91.1034 43.4194 93.4209 49.7964L93.5057 49.5045C95.6548 50.3381 97.6356 51.505 99.4481 52.839C99.5743 51.9219 99.6164 50.9633 99.6164 49.9213C99.6164 44.1695 97.2563 38.9594 93.5057 35.1667C89.7123 31.4155 84.4865 29.0396 78.7123 29.0396C77.7433 29.0396 76.8156 29.123 75.8887 29.248C75.8887 29.2894 75.8887 29.2894 75.8887 29.2894Z" fill="#E50040"/>
<path d="M57.5257 19.9601C58.9161 20.0022 59.8017 20.3355 60.939 20.7523C62.0349 21.2106 63.1729 21.7529 64.4372 22.3782C65.6172 23.0034 66.9242 23.7535 68.1884 24.4615C71.2652 23.2532 74.5523 22.5031 78.0504 22.4196C74.8895 16.7927 68.9471 13 62.1191 13C53.9434 13 46.9891 18.4185 44.7559 25.7954C48.043 23.7114 51.4142 21.7944 54.1537 20.7523C55.2497 20.3355 56.2194 20.0022 57.5257 19.9601Z" fill="#E50040"/>
</svg>
