<svg viewBox="0 0 139 139" fill="none" xmlns="http://www.w3.org/2000/svg">
<path d="M69.2609 138.522C107.513 138.522 138.522 107.513 138.522 69.2609C138.522 31.0092 107.513 0 69.2609 0C31.0092 0 0 31.0092 0 69.2609C0 107.513 31.0092 138.522 69.2609 138.522Z" fill="#ED2939"/>
<path d="M69.5 117C95.7335 117 117 95.7335 117 69.5C117 43.2665 95.7335 22 69.5 22C43.2665 22 22 43.2665 22 69.5C22 95.7335 43.2665 117 69.5 117Z" fill="white"/>
<path d="M69 100C77.2217 100 85.1067 96.7339 90.9203 90.9203C96.7339 85.1067 100 77.2217 100 69C100 60.7783 96.7339 52.8933 90.9203 47.0797C85.1067 41.2661 77.2217 38 69 38C60.7783 38 52.8933 41.2661 47.0797 47.0797C41.2661 52.8933 38 60.7783 38 69C38 77.2217 41.2661 85.1067 47.0797 90.9203C52.8933 96.7339 60.7783 100 69 100ZM82.6836 63.3086L67.1836 78.8086C66.0453 79.9469 64.2047 79.9469 63.0785 78.8086L55.3285 71.0586C54.1902 69.9203 54.1902 68.0797 55.3285 66.9535C56.4668 65.8273 58.3074 65.8152 59.4336 66.9535L65.125 72.6449L78.5664 59.1914C79.7047 58.0531 81.5453 58.0531 82.6715 59.1914C83.7977 60.3297 83.8098 62.1703 82.6715 63.2965L82.6836 63.3086Z" fill="#0052B4"/>
<path d="M69 93C75.6304 93 81.9893 90.3661 86.6777 85.6777C91.3661 80.9893 94 74.6304 94 68C94 61.3696 91.3661 55.0107 86.6777 50.3223C81.9893 45.6339 75.6304 43 69 43C62.3696 43 56.0107 45.6339 51.3223 50.3223C46.6339 55.0107 44 61.3696 44 68C44 74.6304 46.6339 80.9893 51.3223 85.6777C56.0107 90.3661 62.3696 93 69 93ZM80.0352 63.4102L67.5352 75.9102C66.6172 76.8281 65.1328 76.8281 64.2246 75.9102L57.9746 69.6602C57.0566 68.7422 57.0566 67.2578 57.9746 66.3496C58.8926 65.4414 60.377 65.4316 61.2852 66.3496L65.875 70.9395L76.7148 60.0898C77.6328 59.1719 79.1172 59.1719 80.0254 60.0898C80.9336 61.0078 80.9434 62.4922 80.0254 63.4004L80.0352 63.4102Z" fill="white"/>
<path d="M69.1595 14L72.0232 22.8131H81.2893L73.7925 28.2598L76.6563 37.0729L69.1595 31.6259L61.6623 37.0729L64.5261 28.2598L57.0293 22.8131H66.2957L69.1595 14Z" fill="#FFDA44"/>
<path d="M31.0929 29.7695L39.3501 33.9762L45.9023 27.4243L44.4523 36.5764L52.7092 40.7834L43.5568 42.2331L42.1071 51.3858L37.9001 43.1289L28.748 44.5789L35.3003 38.0267L31.0929 29.7695Z" fill="#FFDA44"/>
<path d="M15.3223 67.8367L24.1354 64.9729V55.7065L29.5817 63.2037L38.3951 60.3399L32.9478 67.8367L38.3951 75.3335L29.5817 72.4701L24.1354 79.9669V70.7005L15.3223 67.8367Z" fill="#FFDA44"/>
<path d="M31.0929 105.904L35.2999 97.6468L28.748 91.0946L37.9004 92.545L42.1068 84.2881L43.5568 93.4405L52.7088 94.8901L44.453 99.0972L45.9023 108.249L39.3501 101.697L31.0929 105.904Z" fill="#FFDA44"/>
<path d="M69.1595 121.672L66.2953 112.859H57.0293L64.5264 107.413L61.6623 98.6001L69.1595 104.046L76.6563 98.6001L73.7925 107.413L81.2893 112.859H72.0229L69.1595 121.672Z" fill="#FFDA44"/>
<path d="M107.227 105.904L98.97 101.697L92.4175 108.25L93.8675 99.0968L85.6113 94.8901L94.7634 93.4405L96.213 84.2881L100.42 92.545L109.572 91.0946L103.02 97.6475L107.227 105.904Z" fill="#FFDA44"/>
<path d="M123 67.8367L114.187 70.7005V79.9669L108.74 72.4697L99.9277 75.3335L105.374 67.8367L99.9277 60.3399L108.74 63.2037L114.187 55.7065V64.9733L123 67.8367Z" fill="#FFDA44"/>
<path d="M107.227 29.7692L103.02 38.0264L109.572 44.5786L100.419 43.1282L96.213 51.3851L94.7634 42.2327L85.6113 40.7827L93.8675 36.576L92.4175 27.4243L98.9704 33.9762L107.227 29.7692Z" fill="#FFDA44"/>
<path d="M69.2609 138.522C107.513 138.522 138.522 107.513 138.522 69.2609C138.522 31.0092 107.513 0 69.2609 0C31.0092 0 0 31.0092 0 69.2609C0 107.513 31.0092 138.522 69.2609 138.522Z" fill="#ED2939"/>
<path d="M69.5 117C95.7335 117 117 95.7335 117 69.5C117 43.2665 95.7335 22 69.5 22C43.2665 22 22 43.2665 22 69.5C22 95.7335 43.2665 117 69.5 117Z" fill="white"/>
<path d="M69 100C77.2217 100 85.1067 96.7339 90.9203 90.9203C96.7339 85.1067 100 77.2217 100 69C100 60.7783 96.7339 52.8933 90.9203 47.0797C85.1067 41.2661 77.2217 38 69 38C60.7783 38 52.8933 41.2661 47.0797 47.0797C41.2661 52.8933 38 60.7783 38 69C38 77.2217 41.2661 85.1067 47.0797 90.9203C52.8933 96.7339 60.7783 100 69 100ZM82.6836 63.3086L67.1836 78.8086C66.0453 79.9469 64.2047 79.9469 63.0785 78.8086L55.3285 71.0586C54.1902 69.9203 54.1902 68.0797 55.3285 66.9535C56.4668 65.8273 58.3074 65.8152 59.4336 66.9535L65.125 72.6449L78.5664 59.1914C79.7047 58.0531 81.5453 58.0531 82.6715 59.1914C83.7977 60.3297 83.8098 62.1703 82.6715 63.2965L82.6836 63.3086Z" fill="#0052B4"/>
</svg>
